<?xml version="1.0" encoding="UTF-8" standalone="no"?>
<!DOCTYPE svg PUBLIC "-//W3C//DTD SVG 1.1//EN"
 "http://www.w3.org/Graphics/SVG/1.1/DTD/svg11.dtd">
<!-- Generated by graphviz version 2.40.1 (20161225.0304)
 -->
<!-- Title: twoDegreesRelationshipsDiagramImplied Pages: 1 -->
<svg width="568pt" height="607pt"
 viewBox="0.00 0.00 568.00 606.70" xmlns="http://www.w3.org/2000/svg" xmlns:xlink="http://www.w3.org/1999/xlink">
<g id="graph0" class="graph" transform="scale(1 1) rotate(0) translate(4 602.7)">
<title>twoDegreesRelationshipsDiagramImplied</title>
<polygon fill="#ffffff" stroke="transparent" points="-4,4 -4,-602.7 564,-602.7 564,4 -4,4"/>
<text text-anchor="middle" x="72.4936" y="-7.3" font-family="Helvetica,sans-Serif" font-size="11.00" fill="#000000">Generated by SchemaSpy</text>
<!-- orderdetails -->
<g id="node1" class="node">
<title>orderdetails</title>
<g id="a_node1"><a xlink:href="../../tables/orderdetails.html" xlink:title="orderdetails" target="_top">
<polygon fill="#ffffff" stroke="transparent" points="261.5,-253.7 261.5,-402.7 374.5,-402.7 374.5,-253.7 261.5,-253.7"/>
<polygon fill="#f5f5f5" stroke="transparent" points="262,-379.2 262,-402.2 375,-402.2 375,-379.2 262,-379.2"/>
<polygon fill="none" stroke="#000000" points="262,-379.2 262,-402.2 375,-402.2 375,-379.2 262,-379.2"/>
<text text-anchor="start" x="267" y="-387.8" font-family="Helvetica,sans-Serif" font-weight="bold" font-size="11.00" fill="#000000">orderdetails</text>
<text text-anchor="start" x="340.5219" y="-387.3" font-family="Helvetica,sans-Serif" font-size="11.00" fill="#000000">[table]</text>
<polygon fill="none" stroke="#000000" points="262,-357.2 262,-379.2 375,-379.2 375,-357.2 262,-357.2"/>
<image xlink:href="../../images/primaryKeys.png" width="11px" height="12px" preserveAspectRatio="xMinYMin meet" x="267" y="-374.2"/>
<text text-anchor="start" x="284" y="-364.3" font-family="Helvetica,sans-Serif" font-size="11.00" fill="#000000">orderdetail_id</text>
<polygon fill="#ffffff" stroke="transparent" points="262,-335.2 262,-357.2 375,-357.2 375,-335.2 262,-335.2"/>
<polygon fill="none" stroke="#000000" points="262,-335.2 262,-357.2 375,-357.2 375,-335.2 262,-335.2"/>
<image xlink:href="../../images/foreignKeys.png" width="11px" height="12px" preserveAspectRatio="xMinYMin meet" x="267" y="-352.2"/>
<text text-anchor="start" x="284" y="-342.3" font-family="Helvetica,sans-Serif" font-size="11.00" fill="#000000">order_id</text>
<polygon fill="#ffffff" stroke="transparent" points="262,-313.2 262,-335.2 375,-335.2 375,-313.2 262,-313.2"/>
<polygon fill="none" stroke="#000000" points="262,-313.2 262,-335.2 375,-335.2 375,-313.2 262,-313.2"/>
<text text-anchor="start" x="284" y="-320.3" font-family="Helvetica,sans-Serif" font-size="11.00" fill="#000000">created_by</text>
<polygon fill="#ffffff" stroke="transparent" points="262,-291.2 262,-313.2 375,-313.2 375,-291.2 262,-291.2"/>
<polygon fill="none" stroke="#000000" points="262,-291.2 262,-313.2 375,-313.2 375,-291.2 262,-291.2"/>
<text text-anchor="start" x="284" y="-298.3" font-family="Helvetica,sans-Serif" font-size="11.00" fill="#000000">updated_by</text>
<polygon fill="none" stroke="#000000" points="262,-272.2 262,-291.2 375,-291.2 375,-272.2 262,-272.2"/>
<text text-anchor="start" x="265" y="-278.3" font-family="Helvetica,sans-Serif" font-size="11.00" fill="#000000">...</text>
<polygon fill="#ffffff" stroke="transparent" points="262,-253.2 262,-272.2 375,-272.2 375,-253.2 262,-253.2"/>
<polygon fill="none" stroke="#000000" points="262,-253.2 262,-272.2 375,-272.2 375,-253.2 262,-253.2"/>
<polygon fill="#ffffff" stroke="transparent" points="263,-254.2 263,-271.2 293,-271.2 293,-254.2 263,-254.2"/>
<text text-anchor="start" x="265" y="-259.3" font-family="Helvetica,sans-Serif" font-size="11.00" fill="#000000">&lt; 1</text>
<polygon fill="#ffffff" stroke="transparent" points="293,-254.2 293,-271.2 345,-271.2 345,-254.2 293,-254.2"/>
<text text-anchor="start" x="299.7478" y="-259.3" font-family="Helvetica,sans-Serif" font-size="11.00" fill="#000000">52 rows</text>
<polygon fill="#ffffff" stroke="transparent" points="345,-254.2 345,-271.2 374,-271.2 374,-254.2 345,-254.2"/>
<text text-anchor="start" x="356.4053" y="-259.3" font-family="Helvetica,sans-Serif" font-size="11.00" fill="#000000">1 &gt;</text>
<polygon fill="#000000" stroke="#000000" points="293,-254.2 293,-271.2 293,-271.2 293,-254.2 293,-254.2"/>
<polygon fill="#000000" stroke="#000000" points="345,-254.2 345,-271.2 345,-271.2 345,-254.2 345,-254.2"/>
</a>
</g>
</g>
<!-- orders -->
<g id="node2" class="node">
<title>orders</title>
<g id="a_node2"><a xlink:href="../../tables/orders.html" xlink:title="orders" target="_top">
<polygon fill="#ffffff" stroke="transparent" points="8,-38.2 8,-436.2 197,-436.2 197,-38.2 8,-38.2"/>
<polygon fill="#f5f5f5" stroke="transparent" points="10.5,-411.2 10.5,-434.2 195.5,-434.2 195.5,-411.2 10.5,-411.2"/>
<polygon fill="none" stroke="#000000" points="10.5,-411.2 10.5,-434.2 195.5,-434.2 195.5,-411.2 10.5,-411.2"/>
<text text-anchor="start" x="15.5" y="-419.8" font-family="Helvetica,sans-Serif" font-weight="bold" font-size="11.00" fill="#000000">orders</text>
<text text-anchor="start" x="160.5437" y="-419.3" font-family="Helvetica,sans-Serif" font-size="11.00" fill="#000000">[table]</text>
<polygon fill="none" stroke="#000000" points="10.5,-389.2 10.5,-411.2 103.5,-411.2 103.5,-389.2 10.5,-389.2"/>
<image xlink:href="../../images/primaryKeys.png" width="11px" height="12px" preserveAspectRatio="xMinYMin meet" x="15.5" y="-406.2"/>
<text text-anchor="start" x="30.5" y="-396.3" font-family="Helvetica,sans-Serif" font-size="11.00" fill="#000000">order_id</text>
<polygon fill="none" stroke="#000000" points="103.5,-389.2 103.5,-411.2 195.5,-411.2 195.5,-389.2 103.5,-389.2"/>
<text text-anchor="start" x="106.5" y="-396.9" font-family="Helvetica,sans-Serif" font-size="11.00" fill="#000000">int8[19]</text>
<polygon fill="none" stroke="#000000" points="10.5,-367.2 10.5,-389.2 103.5,-389.2 103.5,-367.2 10.5,-367.2"/>
<text text-anchor="start" x="30.5" y="-374.3" font-family="Helvetica,sans-Serif" font-size="11.00" fill="#000000">order_no</text>
<polygon fill="none" stroke="#000000" points="103.5,-367.2 103.5,-389.2 195.5,-389.2 195.5,-367.2 103.5,-367.2"/>
<text text-anchor="start" x="106.5" y="-374.9" font-family="Helvetica,sans-Serif" font-size="11.00" fill="#000000">varchar[40]</text>
<polygon fill="none" stroke="#000000" points="10.5,-345.2 10.5,-367.2 103.5,-367.2 103.5,-345.2 10.5,-345.2"/>
<text text-anchor="start" x="30.5" y="-352.3" font-family="Helvetica,sans-Serif" font-size="11.00" fill="#000000">visit_date</text>
<polygon fill="none" stroke="#000000" points="103.5,-345.2 103.5,-367.2 195.5,-367.2 195.5,-345.2 103.5,-345.2"/>
<text text-anchor="start" x="106.1023" y="-352.9" font-family="Helvetica,sans-Serif" font-size="11.00" fill="#000000">timestamptz[35,6]</text>
<polygon fill="none" stroke="#000000" points="10.5,-323.2 10.5,-345.2 103.5,-345.2 103.5,-323.2 10.5,-323.2"/>
<text text-anchor="start" x="30.5" y="-330.3" font-family="Helvetica,sans-Serif" font-size="11.00" fill="#000000">order_date</text>
<polygon fill="none" stroke="#000000" points="103.5,-323.2 103.5,-345.2 195.5,-345.2 195.5,-323.2 103.5,-323.2"/>
<text text-anchor="start" x="106.1023" y="-330.9" font-family="Helvetica,sans-Serif" font-size="11.00" fill="#000000">timestamptz[35,6]</text>
<polygon fill="none" stroke="#000000" points="10.5,-301.2 10.5,-323.2 103.5,-323.2 103.5,-301.2 10.5,-301.2"/>
<text text-anchor="start" x="30.5" y="-308.3" font-family="Helvetica,sans-Serif" font-size="11.00" fill="#000000">total_amt</text>
<polygon fill="none" stroke="#000000" points="103.5,-301.2 103.5,-323.2 195.5,-323.2 195.5,-301.2 103.5,-301.2"/>
<text text-anchor="start" x="106.5" y="-308.9" font-family="Helvetica,sans-Serif" font-size="11.00" fill="#000000">numeric[18,2]</text>
<polygon fill="#ffffff" stroke="transparent" points="10.5,-279.2 10.5,-301.2 103.5,-301.2 103.5,-279.2 10.5,-279.2"/>
<polygon fill="none" stroke="#000000" points="10.5,-279.2 10.5,-301.2 103.5,-301.2 103.5,-279.2 10.5,-279.2"/>
<text text-anchor="start" x="30.5" y="-286.3" font-family="Helvetica,sans-Serif" font-size="11.00" fill="#000000">created_by</text>
<polygon fill="none" stroke="#000000" points="103.5,-279.2 103.5,-301.2 195.5,-301.2 195.5,-279.2 103.5,-279.2"/>
<text text-anchor="start" x="106.5" y="-286.9" font-family="Helvetica,sans-Serif" font-size="11.00" fill="#000000">int8[19]</text>
<polygon fill="#ffffff" stroke="transparent" points="10.5,-257.2 10.5,-279.2 103.5,-279.2 103.5,-257.2 10.5,-257.2"/>
<polygon fill="none" stroke="#000000" points="10.5,-257.2 10.5,-279.2 103.5,-279.2 103.5,-257.2 10.5,-257.2"/>
<text text-anchor="start" x="30.5" y="-264.3" font-family="Helvetica,sans-Serif" font-size="11.00" fill="#000000">updated_by</text>
<polygon fill="none" stroke="#000000" points="103.5,-257.2 103.5,-279.2 195.5,-279.2 195.5,-257.2 103.5,-257.2"/>
<text text-anchor="start" x="106.5" y="-264.9" font-family="Helvetica,sans-Serif" font-size="11.00" fill="#000000">int8[19]</text>
<polygon fill="none" stroke="#000000" points="10.5,-235.2 10.5,-257.2 103.5,-257.2 103.5,-235.2 10.5,-235.2"/>
<text text-anchor="start" x="30.5" y="-242.3" font-family="Helvetica,sans-Serif" font-size="11.00" fill="#000000">created</text>
<polygon fill="none" stroke="#000000" points="103.5,-235.2 103.5,-257.2 195.5,-257.2 195.5,-235.2 103.5,-235.2"/>
<text text-anchor="start" x="106.1023" y="-242.9" font-family="Helvetica,sans-Serif" font-size="11.00" fill="#000000">timestamptz[35,6]</text>
<polygon fill="none" stroke="#000000" points="10.5,-213.2 10.5,-235.2 103.5,-235.2 103.5,-213.2 10.5,-213.2"/>
<text text-anchor="start" x="30.5" y="-220.3" font-family="Helvetica,sans-Serif" font-size="11.00" fill="#000000">updated</text>
<polygon fill="none" stroke="#000000" points="103.5,-213.2 103.5,-235.2 195.5,-235.2 195.5,-213.2 103.5,-213.2"/>
<text text-anchor="start" x="106.1023" y="-220.9" font-family="Helvetica,sans-Serif" font-size="11.00" fill="#000000">timestamptz[35,6]</text>
<polygon fill="none" stroke="#000000" points="10.5,-191.2 10.5,-213.2 103.5,-213.2 103.5,-191.2 10.5,-191.2"/>
<text text-anchor="start" x="30.5" y="-198.3" font-family="Helvetica,sans-Serif" font-size="11.00" fill="#000000">status</text>
<polygon fill="none" stroke="#000000" points="103.5,-191.2 103.5,-213.2 195.5,-213.2 195.5,-191.2 103.5,-191.2"/>
<text text-anchor="start" x="106.5" y="-198.9" font-family="Helvetica,sans-Serif" font-size="11.00" fill="#000000">varchar[2]</text>
<polygon fill="none" stroke="#000000" points="10.5,-169.2 10.5,-191.2 103.5,-191.2 103.5,-169.2 10.5,-169.2"/>
<text text-anchor="start" x="30.5" y="-176.3" font-family="Helvetica,sans-Serif" font-size="11.00" fill="#000000">phone</text>
<polygon fill="none" stroke="#000000" points="103.5,-169.2 103.5,-191.2 195.5,-191.2 195.5,-169.2 103.5,-169.2"/>
<text text-anchor="start" x="106.5" y="-176.9" font-family="Helvetica,sans-Serif" font-size="11.00" fill="#000000">text[2147483647]</text>
<polygon fill="none" stroke="#000000" points="10.5,-147.2 10.5,-169.2 103.5,-169.2 103.5,-147.2 10.5,-147.2"/>
<text text-anchor="start" x="30.5" y="-154.3" font-family="Helvetica,sans-Serif" font-size="11.00" fill="#000000">name</text>
<polygon fill="none" stroke="#000000" points="103.5,-147.2 103.5,-169.2 195.5,-169.2 195.5,-147.2 103.5,-147.2"/>
<text text-anchor="start" x="106.5" y="-154.9" font-family="Helvetica,sans-Serif" font-size="11.00" fill="#000000">text[2147483647]</text>
<polygon fill="none" stroke="#000000" points="10.5,-125.2 10.5,-147.2 103.5,-147.2 103.5,-125.2 10.5,-125.2"/>
<text text-anchor="start" x="30.5" y="-132.3" font-family="Helvetica,sans-Serif" font-size="11.00" fill="#000000">email</text>
<polygon fill="none" stroke="#000000" points="103.5,-125.2 103.5,-147.2 195.5,-147.2 195.5,-125.2 103.5,-125.2"/>
<text text-anchor="start" x="106.5" y="-132.9" font-family="Helvetica,sans-Serif" font-size="11.00" fill="#000000">text[2147483647]</text>
<polygon fill="none" stroke="#000000" points="10.5,-103.2 10.5,-125.2 103.5,-125.2 103.5,-103.2 10.5,-103.2"/>
<text text-anchor="start" x="30.5" y="-110.3" font-family="Helvetica,sans-Serif" font-size="11.00" fill="#000000">loyalti_no</text>
<polygon fill="none" stroke="#000000" points="103.5,-103.2 103.5,-125.2 195.5,-125.2 195.5,-103.2 103.5,-103.2"/>
<text text-anchor="start" x="106.5" y="-110.9" font-family="Helvetica,sans-Serif" font-size="11.00" fill="#000000">varchar[40]</text>
<polygon fill="none" stroke="#000000" points="10.5,-81.2 10.5,-103.2 103.5,-103.2 103.5,-81.2 10.5,-81.2"/>
<text text-anchor="start" x="30.5" y="-88.3" font-family="Helvetica,sans-Serif" font-size="11.00" fill="#000000">bsuid</text>
<polygon fill="none" stroke="#000000" points="103.5,-81.2 103.5,-103.2 195.5,-103.2 195.5,-81.2 103.5,-81.2"/>
<text text-anchor="start" x="106.5" y="-88.9" font-family="Helvetica,sans-Serif" font-size="11.00" fill="#000000">text[2147483647]</text>
<polygon fill="#ffffff" stroke="transparent" points="10.5,-59.2 10.5,-81.2 103.5,-81.2 103.5,-59.2 10.5,-59.2"/>
<polygon fill="none" stroke="#000000" points="10.5,-59.2 10.5,-81.2 103.5,-81.2 103.5,-59.2 10.5,-59.2"/>
<text text-anchor="start" x="30.5" y="-66.3" font-family="Helvetica,sans-Serif" font-size="11.00" fill="#000000">flow_token</text>
<polygon fill="none" stroke="#000000" points="103.5,-59.2 103.5,-81.2 195.5,-81.2 195.5,-59.2 103.5,-59.2"/>
<text text-anchor="start" x="106.5" y="-66.9" font-family="Helvetica,sans-Serif" font-size="11.00" fill="#000000">text[2147483647]</text>
<polygon fill="#ffffff" stroke="transparent" points="10.5,-40.2 10.5,-59.2 195.5,-59.2 195.5,-40.2 10.5,-40.2"/>
<polygon fill="none" stroke="#000000" points="10.5,-40.2 10.5,-59.2 195.5,-59.2 195.5,-40.2 10.5,-40.2"/>
<polygon fill="#ffffff" stroke="transparent" points="11.5,-41.2 11.5,-58.2 65.5,-58.2 65.5,-41.2 11.5,-41.2"/>
<text text-anchor="start" x="13.5" y="-46.3" font-family="Helvetica,sans-Serif" font-size="11.00" fill="#000000">&lt; 0</text>
<polygon fill="#ffffff" stroke="transparent" points="65.5,-41.2 65.5,-58.2 141.5,-58.2 141.5,-41.2 65.5,-41.2"/>
<text text-anchor="start" x="84.2478" y="-46.3" font-family="Helvetica,sans-Serif" font-size="11.00" fill="#000000">20 rows</text>
<polygon fill="#ffffff" stroke="transparent" points="141.5,-41.2 141.5,-58.2 194.5,-58.2 194.5,-41.2 141.5,-41.2"/>
<text text-anchor="start" x="176.9053" y="-46.3" font-family="Helvetica,sans-Serif" font-size="11.00" fill="#000000">2 &gt;</text>
<polygon fill="#000000" stroke="#000000" points="65.5,-41.2 65.5,-58.2 65.5,-58.2 65.5,-41.2 65.5,-41.2"/>
<polygon fill="#000000" stroke="#000000" points="141.5,-41.2 141.5,-58.2 141.5,-58.2 141.5,-41.2 141.5,-41.2"/>
<polygon fill="none" stroke="#000000" stroke-width="2" points="9,-39.2 9,-435.2 196,-435.2 196,-39.2 9,-39.2"/>
</a>
</g>
</g>
<!-- orderdetails&#45;&gt;orders -->
<g id="edge1" class="edge">
<title>orderdetails:w&#45;&gt;orders:e</title>
<path fill="none" stroke="#000000" d="M247.8878,-349.4162C225.7394,-361.0414 227.9213,-400.2 195.5,-400.2"/>
<polygon fill="#000000" stroke="#000000" points="254.2,-347.9777 262.8,-349.71 258.1,-347.0888 262,-346.2 262,-346.2 262,-346.2 258.1,-347.0888 261.2,-342.69 254.2,-347.9777 254.2,-347.9777"/>
<ellipse fill="none" stroke="#000000" cx="251.08" cy="-348.6888" rx="3.2" ry="3.2"/>
</g>
<!-- ordertickets -->
<g id="node3" class="node">
<title>ordertickets</title>
<g id="a_node3"><a xlink:href="../../tables/ordertickets.html" xlink:title="ordertickets" target="_top">
<polygon fill="#ffffff" stroke="transparent" points="439,-340.7 439,-401.7 552,-401.7 552,-340.7 439,-340.7"/>
<polygon fill="#f5f5f5" stroke="transparent" points="439.5,-378.2 439.5,-401.2 552.5,-401.2 552.5,-378.2 439.5,-378.2"/>
<polygon fill="none" stroke="#000000" points="439.5,-378.2 439.5,-401.2 552.5,-401.2 552.5,-378.2 439.5,-378.2"/>
<text text-anchor="start" x="444.5" y="-386.8" font-family="Helvetica,sans-Serif" font-weight="bold" font-size="11.00" fill="#000000">ordertickets</text>
<text text-anchor="start" x="518.0219" y="-386.3" font-family="Helvetica,sans-Serif" font-size="11.00" fill="#000000">[table]</text>
<polygon fill="none" stroke="#000000" points="439.5,-359.2 439.5,-378.2 552.5,-378.2 552.5,-359.2 439.5,-359.2"/>
<text text-anchor="start" x="442.5" y="-365.3" font-family="Helvetica,sans-Serif" font-size="11.00" fill="#000000">...</text>
<polygon fill="#ffffff" stroke="transparent" points="439.5,-340.2 439.5,-359.2 552.5,-359.2 552.5,-340.2 439.5,-340.2"/>
<polygon fill="none" stroke="#000000" points="439.5,-340.2 439.5,-359.2 552.5,-359.2 552.5,-340.2 439.5,-340.2"/>
<polygon fill="#ffffff" stroke="transparent" points="440.5,-341.2 440.5,-358.2 473.5,-358.2 473.5,-341.2 440.5,-341.2"/>
<text text-anchor="start" x="442.5" y="-346.3" font-family="Helvetica,sans-Serif" font-size="11.00" fill="#000000">&lt; 1</text>
<polygon fill="#ffffff" stroke="transparent" points="473.5,-341.2 473.5,-358.2 528.5,-358.2 528.5,-341.2 473.5,-341.2"/>
<text text-anchor="start" x="481.7478" y="-346.3" font-family="Helvetica,sans-Serif" font-size="11.00" fill="#000000">56 rows</text>
<polygon fill="#ffffff" stroke="transparent" points="528.5,-341.2 528.5,-358.2 551.5,-358.2 551.5,-341.2 528.5,-341.2"/>
<text text-anchor="start" x="543.3862" y="-346.3" font-family="Helvetica,sans-Serif" font-size="11.00" fill="#000000"> &#160;</text>
<polygon fill="#000000" stroke="#000000" points="473.5,-341.2 473.5,-358.2 473.5,-358.2 473.5,-341.2 473.5,-341.2"/>
<polygon fill="#000000" stroke="#000000" points="528.5,-341.2 528.5,-358.2 528.5,-358.2 528.5,-341.2 528.5,-341.2"/>
</a>
</g>
</g>
<!-- ordertickets&#45;&gt;orderdetails -->
<g id="edge2" class="edge">
<title>ordertickets:w&#45;&gt;orderdetails:e</title>
<path fill="none" stroke="#000000" stroke-dasharray="5,2" d="M424.8432,-368.2C407.2137,-368.2 398.0677,-368.2 375,-368.2"/>
<polygon fill="#000000" stroke="#000000" points="431.5,-368.2001 439.5,-371.8 435.5,-368.2 439.5,-368.2 439.5,-368.2 439.5,-368.2 435.5,-368.2 439.5,-364.6 431.5,-368.2001 431.5,-368.2001"/>
<ellipse fill="none" stroke="#000000" cx="428.3" cy="-368.2001" rx="3.2" ry="3.2"/>
</g>
<!-- payments -->
<g id="node4" class="node">
<title>payments</title>
<g id="a_node4"><a xlink:href="../../tables/payments.html" xlink:title="payments" target="_top">
<polygon fill="#ffffff" stroke="transparent" points="246,-423.7 246,-594.7 390,-594.7 390,-423.7 246,-423.7"/>
<polygon fill="#f5f5f5" stroke="transparent" points="246,-571.2 246,-594.2 390,-594.2 390,-571.2 246,-571.2"/>
<polygon fill="none" stroke="#000000" points="246,-571.2 246,-594.2 390,-594.2 390,-571.2 246,-571.2"/>
<text text-anchor="start" x="251" y="-579.8" font-family="Helvetica,sans-Serif" font-weight="bold" font-size="11.00" fill="#000000">payments</text>
<text text-anchor="start" x="355.0437" y="-579.3" font-family="Helvetica,sans-Serif" font-size="11.00" fill="#000000">[table]</text>
<polygon fill="none" stroke="#000000" points="246,-549.2 246,-571.2 390,-571.2 390,-549.2 246,-549.2"/>
<image xlink:href="../../images/primaryKeys.png" width="11px" height="12px" preserveAspectRatio="xMinYMin meet" x="251" y="-566.2"/>
<text text-anchor="start" x="266" y="-556.3" font-family="Helvetica,sans-Serif" font-size="11.00" fill="#000000">payment_id</text>
<polygon fill="#ffffff" stroke="transparent" points="246,-527.2 246,-549.2 390,-549.2 390,-527.2 246,-527.2"/>
<polygon fill="none" stroke="#000000" points="246,-527.2 246,-549.2 390,-549.2 390,-527.2 246,-527.2"/>
<image xlink:href="../../images/foreignKeys.png" width="11px" height="12px" preserveAspectRatio="xMinYMin meet" x="251" y="-544.2"/>
<text text-anchor="start" x="266" y="-534.3" font-family="Helvetica,sans-Serif" font-size="11.00" fill="#000000">paymentgateway_id</text>
<polygon fill="#ffffff" stroke="transparent" points="246,-505.2 246,-527.2 390,-527.2 390,-505.2 246,-505.2"/>
<polygon fill="none" stroke="#000000" points="246,-505.2 246,-527.2 390,-527.2 390,-505.2 246,-505.2"/>
<image xlink:href="../../images/foreignKeys.png" width="11px" height="12px" preserveAspectRatio="xMinYMin meet" x="251" y="-522.2"/>
<text text-anchor="start" x="266" y="-512.3" font-family="Helvetica,sans-Serif" font-size="11.00" fill="#000000">order_id</text>
<polygon fill="#ffffff" stroke="transparent" points="246,-483.2 246,-505.2 390,-505.2 390,-483.2 246,-483.2"/>
<polygon fill="none" stroke="#000000" points="246,-483.2 246,-505.2 390,-505.2 390,-483.2 246,-483.2"/>
<text text-anchor="start" x="266" y="-490.3" font-family="Helvetica,sans-Serif" font-size="11.00" fill="#000000">created_by</text>
<polygon fill="#ffffff" stroke="transparent" points="246,-461.2 246,-483.2 390,-483.2 390,-461.2 246,-461.2"/>
<polygon fill="none" stroke="#000000" points="246,-461.2 246,-483.2 390,-483.2 390,-461.2 246,-461.2"/>
<text text-anchor="start" x="266" y="-468.3" font-family="Helvetica,sans-Serif" font-size="11.00" fill="#000000">updated_by</text>
<polygon fill="none" stroke="#000000" points="246,-442.2 246,-461.2 390,-461.2 390,-442.2 246,-442.2"/>
<text text-anchor="start" x="249" y="-448.3" font-family="Helvetica,sans-Serif" font-size="11.00" fill="#000000">...</text>
<polygon fill="#ffffff" stroke="transparent" points="246,-423.2 246,-442.2 390,-442.2 390,-423.2 246,-423.2"/>
<polygon fill="none" stroke="#000000" points="246,-423.2 246,-442.2 390,-442.2 390,-423.2 246,-423.2"/>
<polygon fill="#ffffff" stroke="transparent" points="247,-424.2 247,-441.2 301,-441.2 301,-424.2 247,-424.2"/>
<text text-anchor="start" x="249" y="-429.3" font-family="Helvetica,sans-Serif" font-size="11.00" fill="#000000">&lt; 2</text>
<polygon fill="#ffffff" stroke="transparent" points="301,-424.2 301,-441.2 345,-441.2 345,-424.2 301,-424.2"/>
<text text-anchor="start" x="319.9431" y="-429.3" font-family="Helvetica,sans-Serif" font-size="11.00" fill="#000000"> &#160;</text>
<polygon fill="#ffffff" stroke="transparent" points="345,-424.2 345,-441.2 389,-441.2 389,-424.2 345,-424.2"/>
<text text-anchor="start" x="380.8862" y="-429.3" font-family="Helvetica,sans-Serif" font-size="11.00" fill="#000000"> &#160;</text>
<polygon fill="#000000" stroke="#000000" points="301,-424.2 301,-441.2 301,-441.2 301,-424.2 301,-424.2"/>
<polygon fill="#000000" stroke="#000000" points="345,-424.2 345,-441.2 345,-441.2 345,-424.2 345,-424.2"/>
</a>
</g>
</g>
<!-- payments&#45;&gt;orders -->
<g id="edge3" class="edge">
<title>payments:w&#45;&gt;orders:e</title>
<path fill="none" stroke="#000000" d="M231.8754,-512.6011C201.5254,-493.0216 245.7988,-400.2 195.5,-400.2"/>
<polygon fill="#000000" stroke="#000000" points="238.2477,-514.2247 245.1111,-519.6885 242.1238,-515.2124 246,-516.2 246,-516.2 246,-516.2 242.1238,-515.2124 246.8889,-512.7115 238.2477,-514.2247 238.2477,-514.2247"/>
<ellipse fill="none" stroke="#000000" cx="235.1468" cy="-513.4346" rx="3.2" ry="3.2"/>
</g>
<!-- paymentgateways -->
<g id="node5" class="node">
<title>paymentgateways</title>
<g id="a_node5"><a xlink:href="../../tables/paymentgateways.html" xlink:title="paymentgateways" target="_top">
<polygon fill="#ffffff" stroke="transparent" points="27.5,-510.7 27.5,-571.7 177.5,-571.7 177.5,-510.7 27.5,-510.7"/>
<polygon fill="#f5f5f5" stroke="transparent" points="27.5,-548.2 27.5,-571.2 177.5,-571.2 177.5,-548.2 27.5,-548.2"/>
<polygon fill="none" stroke="#000000" points="27.5,-548.2 27.5,-571.2 177.5,-571.2 177.5,-548.2 27.5,-548.2"/>
<text text-anchor="start" x="32.5" y="-556.8" font-family="Helvetica,sans-Serif" font-weight="bold" font-size="11.00" fill="#000000">paymentgateways</text>
<text text-anchor="start" x="143.0219" y="-556.3" font-family="Helvetica,sans-Serif" font-size="11.00" fill="#000000">[table]</text>
<polygon fill="none" stroke="#000000" points="27.5,-529.2 27.5,-548.2 177.5,-548.2 177.5,-529.2 27.5,-529.2"/>
<text text-anchor="start" x="30.5" y="-535.3" font-family="Helvetica,sans-Serif" font-size="11.00" fill="#000000">...</text>
<polygon fill="#ffffff" stroke="transparent" points="27.5,-510.2 27.5,-529.2 177.5,-529.2 177.5,-510.2 27.5,-510.2"/>
<polygon fill="none" stroke="#000000" points="27.5,-510.2 27.5,-529.2 177.5,-529.2 177.5,-510.2 27.5,-510.2"/>
<polygon fill="#ffffff" stroke="transparent" points="28.5,-511.2 28.5,-528.2 75.5,-528.2 75.5,-511.2 28.5,-511.2"/>
<text text-anchor="start" x="30.5" y="-516.3" font-family="Helvetica,sans-Serif" font-size="11.00" fill="#000000"> &#160;</text>
<polygon fill="#ffffff" stroke="transparent" points="75.5,-511.2 75.5,-528.2 121.5,-528.2 121.5,-511.2 75.5,-511.2"/>
<text text-anchor="start" x="95.4431" y="-516.3" font-family="Helvetica,sans-Serif" font-size="11.00" fill="#000000"> &#160;</text>
<polygon fill="#ffffff" stroke="transparent" points="121.5,-511.2 121.5,-528.2 176.5,-528.2 176.5,-511.2 121.5,-511.2"/>
<text text-anchor="start" x="158.9053" y="-516.3" font-family="Helvetica,sans-Serif" font-size="11.00" fill="#000000">1 &gt;</text>
<polygon fill="#000000" stroke="#000000" points="75.5,-511.2 75.5,-528.2 75.5,-528.2 75.5,-511.2 75.5,-511.2"/>
<polygon fill="#000000" stroke="#000000" points="121.5,-511.2 121.5,-528.2 121.5,-528.2 121.5,-511.2 121.5,-511.2"/>
</a>
</g>
</g>
<!-- payments&#45;&gt;paymentgateways -->
<g id="edge4" class="edge">
<title>payments:w&#45;&gt;paymentgateways:e</title>
<path fill="none" stroke="#000000" d="M231.5353,-538.2C212.0831,-538.2 202.474,-538.2 177.5,-538.2"/>
<polygon fill="#000000" stroke="#000000" points="238,-538.2001 246,-541.8 242,-538.2 246,-538.2 246,-538.2 246,-538.2 242,-538.2 246,-534.6 238,-538.2001 238,-538.2001"/>
<ellipse fill="none" stroke="#000000" cx="234.8" cy="-538.2001" rx="3.2" ry="3.2"/>
</g>
</g>
</svg>
