<?xml version="1.0" encoding="UTF-8" standalone="no"?>
<!DOCTYPE svg PUBLIC "-//W3C//DTD SVG 1.1//EN"
 "http://www.w3.org/Graphics/SVG/1.1/DTD/svg11.dtd">
<!-- Generated by graphviz version 2.40.1 (20161225.0304)
 -->
<!-- Title: oneDegreeRelationshipsDiagram Pages: 1 -->
<svg width="406pt" height="576pt"
 viewBox="0.00 0.00 406.00 575.70" xmlns="http://www.w3.org/2000/svg" xmlns:xlink="http://www.w3.org/1999/xlink">
<g id="graph0" class="graph" transform="scale(1 1) rotate(0) translate(4 571.7)">
<title>oneDegreeRelationshipsDiagram</title>
<polygon fill="#ffffff" stroke="transparent" points="-4,4 -4,-571.7 402,-571.7 402,4 -4,4"/>
<text text-anchor="middle" x="72.4936" y="-7.3" font-family="Helvetica,sans-Serif" font-size="11.00" fill="#000000">Generated by SchemaSpy</text>
<!-- orderdetails -->
<g id="node1" class="node">
<title>orderdetails</title>
<g id="a_node1"><a xlink:href="../../tables/orderdetails.html" xlink:title="orderdetails" target="_top">
<polygon fill="#ffffff" stroke="transparent" points="261.5,-392.7 261.5,-563.7 374.5,-563.7 374.5,-392.7 261.5,-392.7"/>
<polygon fill="#f5f5f5" stroke="transparent" points="262,-540.2 262,-563.2 375,-563.2 375,-540.2 262,-540.2"/>
<polygon fill="none" stroke="#000000" points="262,-540.2 262,-563.2 375,-563.2 375,-540.2 262,-540.2"/>
<text text-anchor="start" x="267" y="-548.8" font-family="Helvetica,sans-Serif" font-weight="bold" font-size="11.00" fill="#000000">orderdetails</text>
<text text-anchor="start" x="340.5219" y="-548.3" font-family="Helvetica,sans-Serif" font-size="11.00" fill="#000000">[table]</text>
<polygon fill="none" stroke="#000000" points="262,-518.2 262,-540.2 375,-540.2 375,-518.2 262,-518.2"/>
<image xlink:href="../../images/primaryKeys.png" width="11px" height="12px" preserveAspectRatio="xMinYMin meet" x="267" y="-535.2"/>
<text text-anchor="start" x="286" y="-525.3" font-family="Helvetica,sans-Serif" font-size="11.00" fill="#000000">orderdetail_id</text>
<polygon fill="#ffffff" stroke="transparent" points="262,-496.2 262,-518.2 375,-518.2 375,-496.2 262,-496.2"/>
<polygon fill="none" stroke="#000000" points="262,-496.2 262,-518.2 375,-518.2 375,-496.2 262,-496.2"/>
<image xlink:href="../../images/foreignKeys.png" width="11px" height="12px" preserveAspectRatio="xMinYMin meet" x="267" y="-513.2"/>
<text text-anchor="start" x="286" y="-503.3" font-family="Helvetica,sans-Serif" font-size="11.00" fill="#000000">order_id</text>
<polygon fill="#ffffff" stroke="transparent" points="262,-474.2 262,-496.2 375,-496.2 375,-474.2 262,-474.2"/>
<polygon fill="none" stroke="#000000" points="262,-474.2 262,-496.2 375,-496.2 375,-474.2 262,-474.2"/>
<image xlink:href="../../images/foreignKeys.png" width="11px" height="12px" preserveAspectRatio="xMinYMin meet" x="267" y="-491.2"/>
<text text-anchor="start" x="286" y="-481.3" font-family="Helvetica,sans-Serif" font-size="11.00" fill="#000000">product_id</text>
<polygon fill="#ffffff" stroke="transparent" points="262,-452.2 262,-474.2 375,-474.2 375,-452.2 262,-452.2"/>
<polygon fill="none" stroke="#000000" points="262,-452.2 262,-474.2 375,-474.2 375,-452.2 262,-452.2"/>
<text text-anchor="start" x="286" y="-459.3" font-family="Helvetica,sans-Serif" font-size="11.00" fill="#000000">created_by</text>
<polygon fill="#ffffff" stroke="transparent" points="262,-430.2 262,-452.2 375,-452.2 375,-430.2 262,-430.2"/>
<polygon fill="none" stroke="#000000" points="262,-430.2 262,-452.2 375,-452.2 375,-430.2 262,-430.2"/>
<text text-anchor="start" x="286" y="-437.3" font-family="Helvetica,sans-Serif" font-size="11.00" fill="#000000">updated_by</text>
<polygon fill="none" stroke="#000000" points="262,-411.2 262,-430.2 375,-430.2 375,-411.2 262,-411.2"/>
<text text-anchor="start" x="265" y="-417.3" font-family="Helvetica,sans-Serif" font-size="11.00" fill="#000000">...</text>
<polygon fill="#ffffff" stroke="transparent" points="262,-392.2 262,-411.2 375,-411.2 375,-392.2 262,-392.2"/>
<polygon fill="none" stroke="#000000" points="262,-392.2 262,-411.2 375,-411.2 375,-392.2 262,-392.2"/>
<polygon fill="#ffffff" stroke="transparent" points="263,-393.2 263,-410.2 303,-410.2 303,-393.2 263,-393.2"/>
<text text-anchor="start" x="265" y="-398.3" font-family="Helvetica,sans-Serif" font-size="11.00" fill="#000000">&lt; 2</text>
<polygon fill="#ffffff" stroke="transparent" points="303,-393.2 303,-410.2 334,-410.2 334,-393.2 303,-393.2"/>
<text text-anchor="start" x="315.4431" y="-398.3" font-family="Helvetica,sans-Serif" font-size="11.00" fill="#000000"> &#160;</text>
<polygon fill="#ffffff" stroke="transparent" points="334,-393.2 334,-410.2 374,-410.2 374,-393.2 334,-393.2"/>
<text text-anchor="start" x="356.4053" y="-398.3" font-family="Helvetica,sans-Serif" font-size="11.00" fill="#000000">1 &gt;</text>
<polygon fill="#000000" stroke="#000000" points="303,-393.2 303,-410.2 303,-410.2 303,-393.2 303,-393.2"/>
<polygon fill="#000000" stroke="#000000" points="334,-393.2 334,-410.2 334,-410.2 334,-393.2 334,-393.2"/>
</a>
</g>
</g>
<!-- orders -->
<g id="node2" class="node">
<title>orders</title>
<g id="a_node2"><a xlink:href="../../tables/orders.html" xlink:title="orders" target="_top">
<polygon fill="#ffffff" stroke="transparent" points="8,-38.2 8,-436.2 197,-436.2 197,-38.2 8,-38.2"/>
<polygon fill="#f5f5f5" stroke="transparent" points="10.5,-411.2 10.5,-434.2 195.5,-434.2 195.5,-411.2 10.5,-411.2"/>
<polygon fill="none" stroke="#000000" points="10.5,-411.2 10.5,-434.2 195.5,-434.2 195.5,-411.2 10.5,-411.2"/>
<text text-anchor="start" x="15.5" y="-419.8" font-family="Helvetica,sans-Serif" font-weight="bold" font-size="11.00" fill="#000000">orders</text>
<text text-anchor="start" x="160.5437" y="-419.3" font-family="Helvetica,sans-Serif" font-size="11.00" fill="#000000">[table]</text>
<polygon fill="none" stroke="#000000" points="10.5,-389.2 10.5,-411.2 103.5,-411.2 103.5,-389.2 10.5,-389.2"/>
<image xlink:href="../../images/primaryKeys.png" width="11px" height="12px" preserveAspectRatio="xMinYMin meet" x="15.5" y="-406.2"/>
<text text-anchor="start" x="30.5" y="-396.3" font-family="Helvetica,sans-Serif" font-size="11.00" fill="#000000">order_id</text>
<polygon fill="none" stroke="#000000" points="103.5,-389.2 103.5,-411.2 195.5,-411.2 195.5,-389.2 103.5,-389.2"/>
<text text-anchor="start" x="106.5" y="-396.9" font-family="Helvetica,sans-Serif" font-size="11.00" fill="#000000">int8[19]</text>
<polygon fill="none" stroke="#000000" points="10.5,-367.2 10.5,-389.2 103.5,-389.2 103.5,-367.2 10.5,-367.2"/>
<text text-anchor="start" x="30.5" y="-374.3" font-family="Helvetica,sans-Serif" font-size="11.00" fill="#000000">order_no</text>
<polygon fill="none" stroke="#000000" points="103.5,-367.2 103.5,-389.2 195.5,-389.2 195.5,-367.2 103.5,-367.2"/>
<text text-anchor="start" x="106.5" y="-374.9" font-family="Helvetica,sans-Serif" font-size="11.00" fill="#000000">varchar[40]</text>
<polygon fill="none" stroke="#000000" points="10.5,-345.2 10.5,-367.2 103.5,-367.2 103.5,-345.2 10.5,-345.2"/>
<text text-anchor="start" x="30.5" y="-352.3" font-family="Helvetica,sans-Serif" font-size="11.00" fill="#000000">visit_date</text>
<polygon fill="none" stroke="#000000" points="103.5,-345.2 103.5,-367.2 195.5,-367.2 195.5,-345.2 103.5,-345.2"/>
<text text-anchor="start" x="106.1023" y="-352.9" font-family="Helvetica,sans-Serif" font-size="11.00" fill="#000000">timestamptz[35,6]</text>
<polygon fill="none" stroke="#000000" points="10.5,-323.2 10.5,-345.2 103.5,-345.2 103.5,-323.2 10.5,-323.2"/>
<text text-anchor="start" x="30.5" y="-330.3" font-family="Helvetica,sans-Serif" font-size="11.00" fill="#000000">order_date</text>
<polygon fill="none" stroke="#000000" points="103.5,-323.2 103.5,-345.2 195.5,-345.2 195.5,-323.2 103.5,-323.2"/>
<text text-anchor="start" x="106.1023" y="-330.9" font-family="Helvetica,sans-Serif" font-size="11.00" fill="#000000">timestamptz[35,6]</text>
<polygon fill="none" stroke="#000000" points="10.5,-301.2 10.5,-323.2 103.5,-323.2 103.5,-301.2 10.5,-301.2"/>
<text text-anchor="start" x="30.5" y="-308.3" font-family="Helvetica,sans-Serif" font-size="11.00" fill="#000000">total_amt</text>
<polygon fill="none" stroke="#000000" points="103.5,-301.2 103.5,-323.2 195.5,-323.2 195.5,-301.2 103.5,-301.2"/>
<text text-anchor="start" x="106.5" y="-308.9" font-family="Helvetica,sans-Serif" font-size="11.00" fill="#000000">numeric[18,2]</text>
<polygon fill="#ffffff" stroke="transparent" points="10.5,-279.2 10.5,-301.2 103.5,-301.2 103.5,-279.2 10.5,-279.2"/>
<polygon fill="none" stroke="#000000" points="10.5,-279.2 10.5,-301.2 103.5,-301.2 103.5,-279.2 10.5,-279.2"/>
<text text-anchor="start" x="30.5" y="-286.3" font-family="Helvetica,sans-Serif" font-size="11.00" fill="#000000">created_by</text>
<polygon fill="none" stroke="#000000" points="103.5,-279.2 103.5,-301.2 195.5,-301.2 195.5,-279.2 103.5,-279.2"/>
<text text-anchor="start" x="106.5" y="-286.9" font-family="Helvetica,sans-Serif" font-size="11.00" fill="#000000">int8[19]</text>
<polygon fill="#ffffff" stroke="transparent" points="10.5,-257.2 10.5,-279.2 103.5,-279.2 103.5,-257.2 10.5,-257.2"/>
<polygon fill="none" stroke="#000000" points="10.5,-257.2 10.5,-279.2 103.5,-279.2 103.5,-257.2 10.5,-257.2"/>
<text text-anchor="start" x="30.5" y="-264.3" font-family="Helvetica,sans-Serif" font-size="11.00" fill="#000000">updated_by</text>
<polygon fill="none" stroke="#000000" points="103.5,-257.2 103.5,-279.2 195.5,-279.2 195.5,-257.2 103.5,-257.2"/>
<text text-anchor="start" x="106.5" y="-264.9" font-family="Helvetica,sans-Serif" font-size="11.00" fill="#000000">int8[19]</text>
<polygon fill="none" stroke="#000000" points="10.5,-235.2 10.5,-257.2 103.5,-257.2 103.5,-235.2 10.5,-235.2"/>
<text text-anchor="start" x="30.5" y="-242.3" font-family="Helvetica,sans-Serif" font-size="11.00" fill="#000000">created</text>
<polygon fill="none" stroke="#000000" points="103.5,-235.2 103.5,-257.2 195.5,-257.2 195.5,-235.2 103.5,-235.2"/>
<text text-anchor="start" x="106.1023" y="-242.9" font-family="Helvetica,sans-Serif" font-size="11.00" fill="#000000">timestamptz[35,6]</text>
<polygon fill="none" stroke="#000000" points="10.5,-213.2 10.5,-235.2 103.5,-235.2 103.5,-213.2 10.5,-213.2"/>
<text text-anchor="start" x="30.5" y="-220.3" font-family="Helvetica,sans-Serif" font-size="11.00" fill="#000000">updated</text>
<polygon fill="none" stroke="#000000" points="103.5,-213.2 103.5,-235.2 195.5,-235.2 195.5,-213.2 103.5,-213.2"/>
<text text-anchor="start" x="106.1023" y="-220.9" font-family="Helvetica,sans-Serif" font-size="11.00" fill="#000000">timestamptz[35,6]</text>
<polygon fill="none" stroke="#000000" points="10.5,-191.2 10.5,-213.2 103.5,-213.2 103.5,-191.2 10.5,-191.2"/>
<text text-anchor="start" x="30.5" y="-198.3" font-family="Helvetica,sans-Serif" font-size="11.00" fill="#000000">status</text>
<polygon fill="none" stroke="#000000" points="103.5,-191.2 103.5,-213.2 195.5,-213.2 195.5,-191.2 103.5,-191.2"/>
<text text-anchor="start" x="106.5" y="-198.9" font-family="Helvetica,sans-Serif" font-size="11.00" fill="#000000">varchar[2]</text>
<polygon fill="none" stroke="#000000" points="10.5,-169.2 10.5,-191.2 103.5,-191.2 103.5,-169.2 10.5,-169.2"/>
<text text-anchor="start" x="30.5" y="-176.3" font-family="Helvetica,sans-Serif" font-size="11.00" fill="#000000">phone</text>
<polygon fill="none" stroke="#000000" points="103.5,-169.2 103.5,-191.2 195.5,-191.2 195.5,-169.2 103.5,-169.2"/>
<text text-anchor="start" x="106.5" y="-176.9" font-family="Helvetica,sans-Serif" font-size="11.00" fill="#000000">text[2147483647]</text>
<polygon fill="none" stroke="#000000" points="10.5,-147.2 10.5,-169.2 103.5,-169.2 103.5,-147.2 10.5,-147.2"/>
<text text-anchor="start" x="30.5" y="-154.3" font-family="Helvetica,sans-Serif" font-size="11.00" fill="#000000">name</text>
<polygon fill="none" stroke="#000000" points="103.5,-147.2 103.5,-169.2 195.5,-169.2 195.5,-147.2 103.5,-147.2"/>
<text text-anchor="start" x="106.5" y="-154.9" font-family="Helvetica,sans-Serif" font-size="11.00" fill="#000000">text[2147483647]</text>
<polygon fill="none" stroke="#000000" points="10.5,-125.2 10.5,-147.2 103.5,-147.2 103.5,-125.2 10.5,-125.2"/>
<text text-anchor="start" x="30.5" y="-132.3" font-family="Helvetica,sans-Serif" font-size="11.00" fill="#000000">email</text>
<polygon fill="none" stroke="#000000" points="103.5,-125.2 103.5,-147.2 195.5,-147.2 195.5,-125.2 103.5,-125.2"/>
<text text-anchor="start" x="106.5" y="-132.9" font-family="Helvetica,sans-Serif" font-size="11.00" fill="#000000">text[2147483647]</text>
<polygon fill="none" stroke="#000000" points="10.5,-103.2 10.5,-125.2 103.5,-125.2 103.5,-103.2 10.5,-103.2"/>
<text text-anchor="start" x="30.5" y="-110.3" font-family="Helvetica,sans-Serif" font-size="11.00" fill="#000000">loyalti_no</text>
<polygon fill="none" stroke="#000000" points="103.5,-103.2 103.5,-125.2 195.5,-125.2 195.5,-103.2 103.5,-103.2"/>
<text text-anchor="start" x="106.5" y="-110.9" font-family="Helvetica,sans-Serif" font-size="11.00" fill="#000000">varchar[40]</text>
<polygon fill="none" stroke="#000000" points="10.5,-81.2 10.5,-103.2 103.5,-103.2 103.5,-81.2 10.5,-81.2"/>
<text text-anchor="start" x="30.5" y="-88.3" font-family="Helvetica,sans-Serif" font-size="11.00" fill="#000000">bsuid</text>
<polygon fill="none" stroke="#000000" points="103.5,-81.2 103.5,-103.2 195.5,-103.2 195.5,-81.2 103.5,-81.2"/>
<text text-anchor="start" x="106.5" y="-88.9" font-family="Helvetica,sans-Serif" font-size="11.00" fill="#000000">text[2147483647]</text>
<polygon fill="none" stroke="#000000" points="10.5,-59.2 10.5,-81.2 103.5,-81.2 103.5,-59.2 10.5,-59.2"/>
<text text-anchor="start" x="30.5" y="-66.3" font-family="Helvetica,sans-Serif" font-size="11.00" fill="#000000">flow_token</text>
<polygon fill="none" stroke="#000000" points="103.5,-59.2 103.5,-81.2 195.5,-81.2 195.5,-59.2 103.5,-59.2"/>
<text text-anchor="start" x="106.5" y="-66.9" font-family="Helvetica,sans-Serif" font-size="11.00" fill="#000000">text[2147483647]</text>
<polygon fill="#ffffff" stroke="transparent" points="10.5,-40.2 10.5,-59.2 195.5,-59.2 195.5,-40.2 10.5,-40.2"/>
<polygon fill="none" stroke="#000000" points="10.5,-40.2 10.5,-59.2 195.5,-59.2 195.5,-40.2 10.5,-40.2"/>
<polygon fill="#ffffff" stroke="transparent" points="11.5,-41.2 11.5,-58.2 75.5,-58.2 75.5,-41.2 11.5,-41.2"/>
<text text-anchor="start" x="13.5" y="-46.3" font-family="Helvetica,sans-Serif" font-size="11.00" fill="#000000">&lt; 0</text>
<polygon fill="#ffffff" stroke="transparent" points="75.5,-41.2 75.5,-58.2 130.5,-58.2 130.5,-41.2 75.5,-41.2"/>
<text text-anchor="start" x="99.9431" y="-46.3" font-family="Helvetica,sans-Serif" font-size="11.00" fill="#000000"> &#160;</text>
<polygon fill="#ffffff" stroke="transparent" points="130.5,-41.2 130.5,-58.2 194.5,-58.2 194.5,-41.2 130.5,-41.2"/>
<text text-anchor="start" x="176.9053" y="-46.3" font-family="Helvetica,sans-Serif" font-size="11.00" fill="#000000">2 &gt;</text>
<polygon fill="#000000" stroke="#000000" points="75.5,-41.2 75.5,-58.2 75.5,-58.2 75.5,-41.2 75.5,-41.2"/>
<polygon fill="#000000" stroke="#000000" points="130.5,-41.2 130.5,-58.2 130.5,-58.2 130.5,-41.2 130.5,-41.2"/>
<polygon fill="none" stroke="#000000" stroke-width="2" points="9,-39.2 9,-435.2 196,-435.2 196,-39.2 9,-39.2"/>
</a>
</g>
</g>
<!-- orderdetails&#45;&gt;orders -->
<g id="edge1" class="edge">
<title>orderdetails:w&#45;&gt;orders:e</title>
<path fill="none" stroke="#000000" d="M247.8676,-504.1131C214.2005,-486.5693 245.805,-400.2 195.5,-400.2"/>
<polygon fill="#000000" stroke="#000000" points="254.1843,-505.4928 261.2318,-510.7171 258.0921,-506.3464 262,-507.2 262,-507.2 262,-507.2 258.0921,-506.3464 262.7682,-503.6829 254.1843,-505.4928 254.1843,-505.4928"/>
<ellipse fill="none" stroke="#000000" cx="251.058" cy="-504.8099" rx="3.2" ry="3.2"/>
</g>
<!-- payments -->
<g id="node3" class="node">
<title>payments</title>
<g id="a_node3"><a xlink:href="../../tables/payments.html" xlink:title="payments" target="_top">
<polygon fill="#ffffff" stroke="transparent" points="246,-200.7 246,-371.7 390,-371.7 390,-200.7 246,-200.7"/>
<polygon fill="#f5f5f5" stroke="transparent" points="246,-348.2 246,-371.2 390,-371.2 390,-348.2 246,-348.2"/>
<polygon fill="none" stroke="#000000" points="246,-348.2 246,-371.2 390,-371.2 390,-348.2 246,-348.2"/>
<text text-anchor="start" x="251" y="-356.8" font-family="Helvetica,sans-Serif" font-weight="bold" font-size="11.00" fill="#000000">payments</text>
<text text-anchor="start" x="355.0437" y="-356.3" font-family="Helvetica,sans-Serif" font-size="11.00" fill="#000000">[table]</text>
<polygon fill="none" stroke="#000000" points="246,-326.2 246,-348.2 390,-348.2 390,-326.2 246,-326.2"/>
<image xlink:href="../../images/primaryKeys.png" width="11px" height="12px" preserveAspectRatio="xMinYMin meet" x="251" y="-343.2"/>
<text text-anchor="start" x="266" y="-333.3" font-family="Helvetica,sans-Serif" font-size="11.00" fill="#000000">payment_id</text>
<polygon fill="#ffffff" stroke="transparent" points="246,-304.2 246,-326.2 390,-326.2 390,-304.2 246,-304.2"/>
<polygon fill="none" stroke="#000000" points="246,-304.2 246,-326.2 390,-326.2 390,-304.2 246,-304.2"/>
<image xlink:href="../../images/foreignKeys.png" width="11px" height="12px" preserveAspectRatio="xMinYMin meet" x="251" y="-321.2"/>
<text text-anchor="start" x="266" y="-311.3" font-family="Helvetica,sans-Serif" font-size="11.00" fill="#000000">paymentgateway_id</text>
<polygon fill="#ffffff" stroke="transparent" points="246,-282.2 246,-304.2 390,-304.2 390,-282.2 246,-282.2"/>
<polygon fill="none" stroke="#000000" points="246,-282.2 246,-304.2 390,-304.2 390,-282.2 246,-282.2"/>
<image xlink:href="../../images/foreignKeys.png" width="11px" height="12px" preserveAspectRatio="xMinYMin meet" x="251" y="-299.2"/>
<text text-anchor="start" x="266" y="-289.3" font-family="Helvetica,sans-Serif" font-size="11.00" fill="#000000">order_id</text>
<polygon fill="#ffffff" stroke="transparent" points="246,-260.2 246,-282.2 390,-282.2 390,-260.2 246,-260.2"/>
<polygon fill="none" stroke="#000000" points="246,-260.2 246,-282.2 390,-282.2 390,-260.2 246,-260.2"/>
<text text-anchor="start" x="266" y="-267.3" font-family="Helvetica,sans-Serif" font-size="11.00" fill="#000000">created_by</text>
<polygon fill="#ffffff" stroke="transparent" points="246,-238.2 246,-260.2 390,-260.2 390,-238.2 246,-238.2"/>
<polygon fill="none" stroke="#000000" points="246,-238.2 246,-260.2 390,-260.2 390,-238.2 246,-238.2"/>
<text text-anchor="start" x="266" y="-245.3" font-family="Helvetica,sans-Serif" font-size="11.00" fill="#000000">updated_by</text>
<polygon fill="none" stroke="#000000" points="246,-219.2 246,-238.2 390,-238.2 390,-219.2 246,-219.2"/>
<text text-anchor="start" x="249" y="-225.3" font-family="Helvetica,sans-Serif" font-size="11.00" fill="#000000">...</text>
<polygon fill="#ffffff" stroke="transparent" points="246,-200.2 246,-219.2 390,-219.2 390,-200.2 246,-200.2"/>
<polygon fill="none" stroke="#000000" points="246,-200.2 246,-219.2 390,-219.2 390,-200.2 246,-200.2"/>
<polygon fill="#ffffff" stroke="transparent" points="247,-201.2 247,-218.2 301,-218.2 301,-201.2 247,-201.2"/>
<text text-anchor="start" x="249" y="-206.3" font-family="Helvetica,sans-Serif" font-size="11.00" fill="#000000">&lt; 2</text>
<polygon fill="#ffffff" stroke="transparent" points="301,-201.2 301,-218.2 345,-218.2 345,-201.2 301,-201.2"/>
<text text-anchor="start" x="319.9431" y="-206.3" font-family="Helvetica,sans-Serif" font-size="11.00" fill="#000000"> &#160;</text>
<polygon fill="#ffffff" stroke="transparent" points="345,-201.2 345,-218.2 389,-218.2 389,-201.2 345,-201.2"/>
<text text-anchor="start" x="380.8862" y="-206.3" font-family="Helvetica,sans-Serif" font-size="11.00" fill="#000000"> &#160;</text>
<polygon fill="#000000" stroke="#000000" points="301,-201.2 301,-218.2 301,-218.2 301,-201.2 301,-201.2"/>
<polygon fill="#000000" stroke="#000000" points="345,-201.2 345,-218.2 345,-218.2 345,-201.2 345,-201.2"/>
</a>
</g>
</g>
<!-- payments&#45;&gt;orders -->
<g id="edge2" class="edge">
<title>payments:w&#45;&gt;orders:e</title>
<path fill="none" stroke="#000000" d="M231.9464,-297.0082C204.4242,-316.0691 242.129,-400.2 195.5,-400.2"/>
<polygon fill="#000000" stroke="#000000" points="238.2785,-295.2924 246.9416,-296.6747 242.1392,-294.2462 246,-293.2 246,-293.2 246,-293.2 242.1392,-294.2462 245.0584,-289.7253 238.2785,-295.2924 238.2785,-295.2924"/>
<ellipse fill="none" stroke="#000000" cx="235.1898" cy="-296.1293" rx="3.2" ry="3.2"/>
</g>
</g>
</svg>
