<?xml version="1.0" encoding="UTF-8" standalone="no"?>
<!DOCTYPE svg PUBLIC "-//W3C//DTD SVG 1.1//EN"
 "http://www.w3.org/Graphics/SVG/1.1/DTD/svg11.dtd">
<!-- Generated by graphviz version 2.40.1 (20161225.0304)
 -->
<!-- Title: twoDegreesRelationshipsDiagram Pages: 1 -->
<svg width="527pt" height="421pt"
 viewBox="0.00 0.00 527.00 420.70" xmlns="http://www.w3.org/2000/svg" xmlns:xlink="http://www.w3.org/1999/xlink">
<g id="graph0" class="graph" transform="scale(1 1) rotate(0) translate(4 416.7)">
<title>twoDegreesRelationshipsDiagram</title>
<polygon fill="#ffffff" stroke="transparent" points="-4,4 -4,-416.7 523,-416.7 523,4 -4,4"/>
<text text-anchor="middle" x="72.4936" y="-7.3" font-family="Helvetica,sans-Serif" font-size="11.00" fill="#000000">Generated by SchemaSpy</text>
<!-- orderdetails -->
<g id="node1" class="node">
<title>orderdetails</title>
<g id="a_node1"><a xlink:href="../../tables/orderdetails.html" xlink:title="orderdetails" target="_top">
<polygon fill="#ffffff" stroke="transparent" points="150,-38.2 150,-326.2 356,-326.2 356,-38.2 150,-38.2"/>
<polygon fill="#f5f5f5" stroke="transparent" points="152,-301.2 152,-324.2 354,-324.2 354,-301.2 152,-301.2"/>
<polygon fill="none" stroke="#000000" points="152,-301.2 152,-324.2 354,-324.2 354,-301.2 152,-301.2"/>
<text text-anchor="start" x="157" y="-309.8" font-family="Helvetica,sans-Serif" font-weight="bold" font-size="11.00" fill="#000000">orderdetails</text>
<text text-anchor="start" x="319.0437" y="-309.3" font-family="Helvetica,sans-Serif" font-size="11.00" fill="#000000">[table]</text>
<polygon fill="none" stroke="#000000" points="152,-279.2 152,-301.2 262,-301.2 262,-279.2 152,-279.2"/>
<image xlink:href="../../images/primaryKeys.png" width="11px" height="12px" preserveAspectRatio="xMinYMin meet" x="157" y="-296.2"/>
<text text-anchor="start" x="172" y="-286.3" font-family="Helvetica,sans-Serif" font-size="11.00" fill="#000000">orderdetail_id</text>
<polygon fill="none" stroke="#000000" points="262,-279.2 262,-301.2 354,-301.2 354,-279.2 262,-279.2"/>
<text text-anchor="start" x="265" y="-286.9" font-family="Helvetica,sans-Serif" font-size="11.00" fill="#000000">int8[19]</text>
<polygon fill="#ffffff" stroke="transparent" points="152,-257.2 152,-279.2 262,-279.2 262,-257.2 152,-257.2"/>
<polygon fill="none" stroke="#000000" points="152,-257.2 152,-279.2 262,-279.2 262,-257.2 152,-257.2"/>
<image xlink:href="../../images/foreignKeys.png" width="11px" height="12px" preserveAspectRatio="xMinYMin meet" x="157" y="-274.2"/>
<text text-anchor="start" x="172" y="-264.3" font-family="Helvetica,sans-Serif" font-size="11.00" fill="#000000">order_id</text>
<polygon fill="none" stroke="#000000" points="262,-257.2 262,-279.2 354,-279.2 354,-257.2 262,-257.2"/>
<text text-anchor="start" x="265" y="-264.9" font-family="Helvetica,sans-Serif" font-size="11.00" fill="#000000">int8[19]</text>
<polygon fill="none" stroke="#000000" points="152,-235.2 152,-257.2 262,-257.2 262,-235.2 152,-235.2"/>
<text text-anchor="start" x="172" y="-242.3" font-family="Helvetica,sans-Serif" font-size="11.00" fill="#000000">qty</text>
<polygon fill="none" stroke="#000000" points="262,-235.2 262,-257.2 354,-257.2 354,-235.2 262,-235.2"/>
<text text-anchor="start" x="265" y="-242.9" font-family="Helvetica,sans-Serif" font-size="11.00" fill="#000000">int8[19]</text>
<polygon fill="none" stroke="#000000" points="152,-213.2 152,-235.2 262,-235.2 262,-213.2 152,-213.2"/>
<text text-anchor="start" x="172" y="-220.3" font-family="Helvetica,sans-Serif" font-size="11.00" fill="#000000">price</text>
<polygon fill="none" stroke="#000000" points="262,-213.2 262,-235.2 354,-235.2 354,-213.2 262,-213.2"/>
<text text-anchor="start" x="265" y="-220.9" font-family="Helvetica,sans-Serif" font-size="11.00" fill="#000000">numeric[18,2]</text>
<polygon fill="none" stroke="#000000" points="152,-191.2 152,-213.2 262,-213.2 262,-191.2 152,-191.2"/>
<text text-anchor="start" x="172" y="-198.3" font-family="Helvetica,sans-Serif" font-size="11.00" fill="#000000">total_amt</text>
<polygon fill="none" stroke="#000000" points="262,-191.2 262,-213.2 354,-213.2 354,-191.2 262,-191.2"/>
<text text-anchor="start" x="265" y="-198.9" font-family="Helvetica,sans-Serif" font-size="11.00" fill="#000000">numeric[18,2]</text>
<polygon fill="none" stroke="#000000" points="152,-169.2 152,-191.2 262,-191.2 262,-169.2 152,-169.2"/>
<text text-anchor="start" x="172" y="-176.3" font-family="Helvetica,sans-Serif" font-size="11.00" fill="#000000">created</text>
<polygon fill="none" stroke="#000000" points="262,-169.2 262,-191.2 354,-191.2 354,-169.2 262,-169.2"/>
<text text-anchor="start" x="264.6023" y="-176.9" font-family="Helvetica,sans-Serif" font-size="11.00" fill="#000000">timestamptz[35,6]</text>
<polygon fill="none" stroke="#000000" points="152,-147.2 152,-169.2 262,-169.2 262,-147.2 152,-147.2"/>
<text text-anchor="start" x="172" y="-154.3" font-family="Helvetica,sans-Serif" font-size="11.00" fill="#000000">updated</text>
<polygon fill="none" stroke="#000000" points="262,-147.2 262,-169.2 354,-169.2 354,-147.2 262,-147.2"/>
<text text-anchor="start" x="264.6023" y="-154.9" font-family="Helvetica,sans-Serif" font-size="11.00" fill="#000000">timestamptz[35,6]</text>
<polygon fill="#ffffff" stroke="transparent" points="152,-125.2 152,-147.2 262,-147.2 262,-125.2 152,-125.2"/>
<polygon fill="none" stroke="#000000" points="152,-125.2 152,-147.2 262,-147.2 262,-125.2 152,-125.2"/>
<text text-anchor="start" x="172" y="-132.3" font-family="Helvetica,sans-Serif" font-size="11.00" fill="#000000">created_by</text>
<polygon fill="none" stroke="#000000" points="262,-125.2 262,-147.2 354,-147.2 354,-125.2 262,-125.2"/>
<text text-anchor="start" x="265" y="-132.9" font-family="Helvetica,sans-Serif" font-size="11.00" fill="#000000">int8[19]</text>
<polygon fill="#ffffff" stroke="transparent" points="152,-103.2 152,-125.2 262,-125.2 262,-103.2 152,-103.2"/>
<polygon fill="none" stroke="#000000" points="152,-103.2 152,-125.2 262,-125.2 262,-103.2 152,-103.2"/>
<text text-anchor="start" x="172" y="-110.3" font-family="Helvetica,sans-Serif" font-size="11.00" fill="#000000">updated_by</text>
<polygon fill="none" stroke="#000000" points="262,-103.2 262,-125.2 354,-125.2 354,-103.2 262,-103.2"/>
<text text-anchor="start" x="265" y="-110.9" font-family="Helvetica,sans-Serif" font-size="11.00" fill="#000000">int8[19]</text>
<polygon fill="none" stroke="#000000" points="152,-81.2 152,-103.2 262,-103.2 262,-81.2 152,-81.2"/>
<text text-anchor="start" x="172" y="-88.3" font-family="Helvetica,sans-Serif" font-size="11.00" fill="#000000">product_code</text>
<polygon fill="none" stroke="#000000" points="262,-81.2 262,-103.2 354,-103.2 354,-81.2 262,-81.2"/>
<text text-anchor="start" x="265" y="-88.9" font-family="Helvetica,sans-Serif" font-size="11.00" fill="#000000">varchar[40]</text>
<polygon fill="none" stroke="#000000" points="152,-59.2 152,-81.2 262,-81.2 262,-59.2 152,-59.2"/>
<text text-anchor="start" x="172" y="-66.3" font-family="Helvetica,sans-Serif" font-size="11.00" fill="#000000">product_name</text>
<polygon fill="none" stroke="#000000" points="262,-59.2 262,-81.2 354,-81.2 354,-59.2 262,-59.2"/>
<text text-anchor="start" x="265" y="-66.9" font-family="Helvetica,sans-Serif" font-size="11.00" fill="#000000">text[2147483647]</text>
<polygon fill="#ffffff" stroke="transparent" points="152,-40.2 152,-59.2 354,-59.2 354,-40.2 152,-40.2"/>
<polygon fill="none" stroke="#000000" points="152,-40.2 152,-59.2 354,-59.2 354,-40.2 152,-40.2"/>
<polygon fill="#ffffff" stroke="transparent" points="153,-41.2 153,-58.2 223,-58.2 223,-41.2 153,-41.2"/>
<text text-anchor="start" x="155" y="-46.3" font-family="Helvetica,sans-Serif" font-size="11.00" fill="#000000">&lt; 1</text>
<polygon fill="#ffffff" stroke="transparent" points="223,-41.2 223,-58.2 284,-58.2 284,-41.2 223,-41.2"/>
<text text-anchor="start" x="250.4431" y="-46.3" font-family="Helvetica,sans-Serif" font-size="11.00" fill="#000000"> &#160;</text>
<polygon fill="#ffffff" stroke="transparent" points="284,-41.2 284,-58.2 353,-58.2 353,-41.2 284,-41.2"/>
<text text-anchor="start" x="335.4053" y="-46.3" font-family="Helvetica,sans-Serif" font-size="11.00" fill="#000000">1 &gt;</text>
<polygon fill="#000000" stroke="#000000" points="223,-41.2 223,-58.2 223,-58.2 223,-41.2 223,-41.2"/>
<polygon fill="#000000" stroke="#000000" points="284,-41.2 284,-58.2 284,-58.2 284,-41.2 284,-41.2"/>
<polygon fill="none" stroke="#000000" stroke-width="2" points="151,-39.2 151,-325.2 355,-325.2 355,-39.2 151,-39.2"/>
</a>
</g>
</g>
<!-- orders -->
<g id="node2" class="node">
<title>orders</title>
<g id="a_node2"><a xlink:href="../../tables/orders.html" xlink:title="orders" target="_top">
<polygon fill="#ffffff" stroke="transparent" points="8,-228.7 8,-355.7 101,-355.7 101,-228.7 8,-228.7"/>
<polygon fill="#f5f5f5" stroke="transparent" points="8.5,-332.2 8.5,-355.2 101.5,-355.2 101.5,-332.2 8.5,-332.2"/>
<polygon fill="none" stroke="#000000" points="8.5,-332.2 8.5,-355.2 101.5,-355.2 101.5,-332.2 8.5,-332.2"/>
<text text-anchor="start" x="13.5" y="-340.8" font-family="Helvetica,sans-Serif" font-weight="bold" font-size="11.00" fill="#000000">orders</text>
<text text-anchor="start" x="66.5437" y="-340.3" font-family="Helvetica,sans-Serif" font-size="11.00" fill="#000000">[table]</text>
<polygon fill="none" stroke="#000000" points="8.5,-310.2 8.5,-332.2 101.5,-332.2 101.5,-310.2 8.5,-310.2"/>
<image xlink:href="../../images/primaryKeys.png" width="11px" height="12px" preserveAspectRatio="xMinYMin meet" x="13.5" y="-327.2"/>
<text text-anchor="start" x="28.5" y="-317.3" font-family="Helvetica,sans-Serif" font-size="11.00" fill="#000000">order_id</text>
<polygon fill="#ffffff" stroke="transparent" points="8.5,-288.2 8.5,-310.2 101.5,-310.2 101.5,-288.2 8.5,-288.2"/>
<polygon fill="none" stroke="#000000" points="8.5,-288.2 8.5,-310.2 101.5,-310.2 101.5,-288.2 8.5,-288.2"/>
<text text-anchor="start" x="28.5" y="-295.3" font-family="Helvetica,sans-Serif" font-size="11.00" fill="#000000">created_by</text>
<polygon fill="#ffffff" stroke="transparent" points="8.5,-266.2 8.5,-288.2 101.5,-288.2 101.5,-266.2 8.5,-266.2"/>
<polygon fill="none" stroke="#000000" points="8.5,-266.2 8.5,-288.2 101.5,-288.2 101.5,-266.2 8.5,-266.2"/>
<text text-anchor="start" x="28.5" y="-273.3" font-family="Helvetica,sans-Serif" font-size="11.00" fill="#000000">updated_by</text>
<polygon fill="none" stroke="#000000" points="8.5,-247.2 8.5,-266.2 101.5,-266.2 101.5,-247.2 8.5,-247.2"/>
<text text-anchor="start" x="11.5" y="-253.3" font-family="Helvetica,sans-Serif" font-size="11.00" fill="#000000">...</text>
<polygon fill="#ffffff" stroke="transparent" points="8.5,-228.2 8.5,-247.2 101.5,-247.2 101.5,-228.2 8.5,-228.2"/>
<polygon fill="none" stroke="#000000" points="8.5,-228.2 8.5,-247.2 101.5,-247.2 101.5,-228.2 8.5,-228.2"/>
<polygon fill="#ffffff" stroke="transparent" points="9.5,-229.2 9.5,-246.2 37.5,-246.2 37.5,-229.2 9.5,-229.2"/>
<text text-anchor="start" x="11.5" y="-234.3" font-family="Helvetica,sans-Serif" font-size="11.00" fill="#000000"> &#160;</text>
<polygon fill="#ffffff" stroke="transparent" points="37.5,-229.2 37.5,-246.2 64.5,-246.2 64.5,-229.2 37.5,-229.2"/>
<text text-anchor="start" x="47.9431" y="-234.3" font-family="Helvetica,sans-Serif" font-size="11.00" fill="#000000"> &#160;</text>
<polygon fill="#ffffff" stroke="transparent" points="64.5,-229.2 64.5,-246.2 100.5,-246.2 100.5,-229.2 64.5,-229.2"/>
<text text-anchor="start" x="82.9053" y="-234.3" font-family="Helvetica,sans-Serif" font-size="11.00" fill="#000000">2 &gt;</text>
<polygon fill="#000000" stroke="#000000" points="37.5,-229.2 37.5,-246.2 37.5,-246.2 37.5,-229.2 37.5,-229.2"/>
<polygon fill="#000000" stroke="#000000" points="64.5,-229.2 64.5,-246.2 64.5,-246.2 64.5,-229.2 64.5,-229.2"/>
</a>
</g>
</g>
<!-- orderdetails&#45;&gt;orders -->
<g id="edge1" class="edge">
<title>orderdetails:w&#45;&gt;orders:e</title>
<path fill="none" stroke="#000000" d="M138.0458,-273.0911C123.2722,-286.2117 127.9358,-321.2 101.5,-321.2"/>
<polygon fill="#000000" stroke="#000000" points="144.4503,-270.8463 153.1908,-271.5974 148.2252,-269.5231 152,-268.2 152,-268.2 152,-268.2 148.2252,-269.5231 150.8092,-264.8026 144.4503,-270.8463 144.4503,-270.8463"/>
<ellipse fill="none" stroke="#000000" cx="141.4305" cy="-271.9048" rx="3.2" ry="3.2"/>
</g>
<!-- orderticket -->
<g id="node3" class="node">
<title>orderticket</title>
<g id="a_node3"><a xlink:href="../../tables/orderticket.html" xlink:title="orderticket" target="_top">
<polygon fill="#ffffff" stroke="transparent" points="405,-241.7 405,-346.7 511,-346.7 511,-241.7 405,-241.7"/>
<polygon fill="#f5f5f5" stroke="transparent" points="405,-323.2 405,-346.2 511,-346.2 511,-323.2 405,-323.2"/>
<polygon fill="none" stroke="#000000" points="405,-323.2 405,-346.2 511,-346.2 511,-323.2 405,-323.2"/>
<text text-anchor="start" x="410" y="-331.8" font-family="Helvetica,sans-Serif" font-weight="bold" font-size="11.00" fill="#000000">orderticket</text>
<text text-anchor="start" x="476.5219" y="-331.3" font-family="Helvetica,sans-Serif" font-size="11.00" fill="#000000">[table]</text>
<polygon fill="none" stroke="#000000" points="405,-301.2 405,-323.2 511,-323.2 511,-301.2 405,-301.2"/>
<image xlink:href="../../images/primaryKeys.png" width="11px" height="12px" preserveAspectRatio="xMinYMin meet" x="410" y="-318.2"/>
<text text-anchor="start" x="425" y="-308.3" font-family="Helvetica,sans-Serif" font-size="11.00" fill="#000000">orderticket_id</text>
<polygon fill="#ffffff" stroke="transparent" points="405,-279.2 405,-301.2 511,-301.2 511,-279.2 405,-279.2"/>
<polygon fill="none" stroke="#000000" points="405,-279.2 405,-301.2 511,-301.2 511,-279.2 405,-279.2"/>
<image xlink:href="../../images/foreignKeys.png" width="11px" height="12px" preserveAspectRatio="xMinYMin meet" x="410" y="-296.2"/>
<text text-anchor="start" x="425" y="-286.3" font-family="Helvetica,sans-Serif" font-size="11.00" fill="#000000">orderdetail_id</text>
<polygon fill="none" stroke="#000000" points="405,-260.2 405,-279.2 511,-279.2 511,-260.2 405,-260.2"/>
<text text-anchor="start" x="408" y="-266.3" font-family="Helvetica,sans-Serif" font-size="11.00" fill="#000000">...</text>
<polygon fill="#ffffff" stroke="transparent" points="405,-241.2 405,-260.2 511,-260.2 511,-241.2 405,-241.2"/>
<polygon fill="none" stroke="#000000" points="405,-241.2 405,-260.2 511,-260.2 511,-241.2 405,-241.2"/>
<polygon fill="#ffffff" stroke="transparent" points="406,-242.2 406,-259.2 447,-259.2 447,-242.2 406,-242.2"/>
<text text-anchor="start" x="408" y="-247.3" font-family="Helvetica,sans-Serif" font-size="11.00" fill="#000000">&lt; 1</text>
<polygon fill="#ffffff" stroke="transparent" points="447,-242.2 447,-259.2 479,-259.2 479,-242.2 447,-242.2"/>
<text text-anchor="start" x="459.9431" y="-247.3" font-family="Helvetica,sans-Serif" font-size="11.00" fill="#000000"> &#160;</text>
<polygon fill="#ffffff" stroke="transparent" points="479,-242.2 479,-259.2 510,-259.2 510,-242.2 479,-242.2"/>
<text text-anchor="start" x="501.8862" y="-247.3" font-family="Helvetica,sans-Serif" font-size="11.00" fill="#000000"> &#160;</text>
<polygon fill="#000000" stroke="#000000" points="447,-242.2 447,-259.2 447,-259.2 447,-242.2 447,-242.2"/>
<polygon fill="#000000" stroke="#000000" points="479,-242.2 479,-259.2 479,-259.2 479,-242.2 479,-242.2"/>
</a>
</g>
</g>
<!-- orderticket&#45;&gt;orderdetails -->
<g id="edge2" class="edge">
<title>orderticket:w&#45;&gt;orderdetails:e</title>
<path fill="none" stroke="#000000" d="M390.276,-290.2C378.2815,-290.2 370.8229,-290.2 354,-290.2"/>
<polygon fill="#000000" stroke="#000000" points="397,-290.2001 405,-293.8 401,-290.2 405,-290.2 405,-290.2 405,-290.2 401,-290.2 405,-286.6 397,-290.2001 397,-290.2001"/>
<ellipse fill="none" stroke="#000000" cx="393.8" cy="-290.2001" rx="3.2" ry="3.2"/>
</g>
<!-- payments -->
<g id="node4" class="node">
<title>payments</title>
<g id="a_node4"><a xlink:href="../../tables/payments.html" xlink:title="payments" target="_top">
<polygon fill="#ffffff" stroke="transparent" points="203.5,-347.7 203.5,-408.7 302.5,-408.7 302.5,-347.7 203.5,-347.7"/>
<polygon fill="#f5f5f5" stroke="transparent" points="204,-385.2 204,-408.2 303,-408.2 303,-385.2 204,-385.2"/>
<polygon fill="none" stroke="#000000" points="204,-385.2 204,-408.2 303,-408.2 303,-385.2 204,-385.2"/>
<text text-anchor="start" x="209" y="-393.8" font-family="Helvetica,sans-Serif" font-weight="bold" font-size="11.00" fill="#000000">payments</text>
<text text-anchor="start" x="268.5219" y="-393.3" font-family="Helvetica,sans-Serif" font-size="11.00" fill="#000000">[table]</text>
<polygon fill="none" stroke="#000000" points="204,-366.2 204,-385.2 303,-385.2 303,-366.2 204,-366.2"/>
<text text-anchor="start" x="207" y="-372.3" font-family="Helvetica,sans-Serif" font-size="11.00" fill="#000000">...</text>
<polygon fill="#ffffff" stroke="transparent" points="204,-347.2 204,-366.2 303,-366.2 303,-347.2 204,-347.2"/>
<polygon fill="none" stroke="#000000" points="204,-347.2 204,-366.2 303,-366.2 303,-347.2 204,-347.2"/>
<polygon fill="#ffffff" stroke="transparent" points="205,-348.2 205,-365.2 244,-365.2 244,-348.2 205,-348.2"/>
<text text-anchor="start" x="207" y="-353.3" font-family="Helvetica,sans-Serif" font-size="11.00" fill="#000000">&lt; 2</text>
<polygon fill="#ffffff" stroke="transparent" points="244,-348.2 244,-365.2 273,-365.2 273,-348.2 244,-348.2"/>
<text text-anchor="start" x="255.4431" y="-353.3" font-family="Helvetica,sans-Serif" font-size="11.00" fill="#000000"> &#160;</text>
<polygon fill="#ffffff" stroke="transparent" points="273,-348.2 273,-365.2 302,-365.2 302,-348.2 273,-348.2"/>
<text text-anchor="start" x="293.8862" y="-353.3" font-family="Helvetica,sans-Serif" font-size="11.00" fill="#000000"> &#160;</text>
<polygon fill="#000000" stroke="#000000" points="244,-348.2 244,-365.2 244,-365.2 244,-348.2 244,-348.2"/>
<polygon fill="#000000" stroke="#000000" points="273,-348.2 273,-365.2 273,-365.2 273,-348.2 273,-348.2"/>
</a>
</g>
</g>
<!-- payments&#45;&gt;orders -->
<g id="edge3" class="edge">
<title>payments:w&#45;&gt;orders:e</title>
<path fill="none" stroke="#000000" d="M189.3204,-373.5247C152.0326,-364.4101 147.5602,-321.2 101.5,-321.2"/>
<polygon fill="#000000" stroke="#000000" points="196.0516,-374.2928 203.5918,-378.7768 200.0258,-374.7464 204,-375.2 204,-375.2 204,-375.2 200.0258,-374.7464 204.4082,-371.6232 196.0516,-374.2928 196.0516,-374.2928"/>
<ellipse fill="none" stroke="#000000" cx="192.8722" cy="-373.93" rx="3.2" ry="3.2"/>
</g>
</g>
</svg>
