<?xml version="1.0" encoding="UTF-8" standalone="no"?>
<!DOCTYPE svg PUBLIC "-//W3C//DTD SVG 1.1//EN"
 "http://www.w3.org/Graphics/SVG/1.1/DTD/svg11.dtd">
<!-- Generated by graphviz version 2.40.1 (20161225.0304)
 -->
<!-- Title: compactImpliedRelationshipsDiagram Pages: 1 -->
<svg width="563pt" height="721pt"
 viewBox="0.00 0.00 563.00 721.20" xmlns="http://www.w3.org/2000/svg" xmlns:xlink="http://www.w3.org/1999/xlink">
<g id="graph0" class="graph" transform="scale(1 1) rotate(0) translate(4 717.2)">
<title>compactImpliedRelationshipsDiagram</title>
<polygon fill="#ffffff" stroke="transparent" points="-4,4 -4,-717.2 559,-717.2 559,4 -4,4"/>
<text text-anchor="middle" x="72.4936" y="-7.3" font-family="Helvetica,sans-Serif" font-size="11.00" fill="#000000">Generated by SchemaSpy</text>
<!-- paymentmethod -->
<g id="node1" class="node">
<title>paymentmethod</title>
<g id="a_node1"><a xlink:href="../../tables/paymentmethod.html" xlink:title="paymentmethod" target="_top">
<polygon fill="#ffffff" stroke="transparent" points="241,-400.2 241,-505.2 385,-505.2 385,-400.2 241,-400.2"/>
<polygon fill="#f5f5f5" stroke="transparent" points="241,-481.7 241,-504.7 385,-504.7 385,-481.7 241,-481.7"/>
<polygon fill="none" stroke="#000000" points="241,-481.7 241,-504.7 385,-504.7 385,-481.7 241,-481.7"/>
<text text-anchor="start" x="246" y="-490.3" font-family="Helvetica,sans-Serif" font-weight="bold" font-size="11.00" fill="#000000">paymentmethod</text>
<text text-anchor="start" x="350.0437" y="-489.8" font-family="Helvetica,sans-Serif" font-size="11.00" fill="#000000">[table]</text>
<polygon fill="none" stroke="#000000" points="241,-459.7 241,-481.7 385,-481.7 385,-459.7 241,-459.7"/>
<image xlink:href="../../images/primaryKeys.png" width="11px" height="12px" preserveAspectRatio="xMinYMin meet" x="246" y="-476.7"/>
<text text-anchor="start" x="261" y="-466.8" font-family="Helvetica,sans-Serif" font-size="11.00" fill="#000000">paymentmethod_id</text>
<polygon fill="#ffffff" stroke="transparent" points="241,-437.7 241,-459.7 385,-459.7 385,-437.7 241,-437.7"/>
<polygon fill="none" stroke="#000000" points="241,-437.7 241,-459.7 385,-459.7 385,-437.7 241,-437.7"/>
<image xlink:href="../../images/foreignKeys.png" width="11px" height="12px" preserveAspectRatio="xMinYMin meet" x="246" y="-454.7"/>
<text text-anchor="start" x="261" y="-444.8" font-family="Helvetica,sans-Serif" font-size="11.00" fill="#000000">paymentgateway_id</text>
<polygon fill="none" stroke="#000000" points="241,-418.7 241,-437.7 385,-437.7 385,-418.7 241,-418.7"/>
<text text-anchor="start" x="244" y="-424.8" font-family="Helvetica,sans-Serif" font-size="11.00" fill="#000000">...</text>
<polygon fill="#ffffff" stroke="transparent" points="241,-399.7 241,-418.7 385,-418.7 385,-399.7 241,-399.7"/>
<polygon fill="none" stroke="#000000" points="241,-399.7 241,-418.7 385,-418.7 385,-399.7 241,-399.7"/>
<polygon fill="#ffffff" stroke="transparent" points="242,-400.7 242,-417.7 296,-417.7 296,-400.7 242,-400.7"/>
<text text-anchor="start" x="244" y="-405.8" font-family="Helvetica,sans-Serif" font-size="11.00" fill="#000000">&lt; 1</text>
<polygon fill="#ffffff" stroke="transparent" points="296,-400.7 296,-417.7 340,-417.7 340,-400.7 296,-400.7"/>
<text text-anchor="start" x="314.9431" y="-405.8" font-family="Helvetica,sans-Serif" font-size="11.00" fill="#000000"> &#160;</text>
<polygon fill="#ffffff" stroke="transparent" points="340,-400.7 340,-417.7 384,-417.7 384,-400.7 340,-400.7"/>
<text text-anchor="start" x="375.8862" y="-405.8" font-family="Helvetica,sans-Serif" font-size="11.00" fill="#000000"> &#160;</text>
<polygon fill="#000000" stroke="#000000" points="296,-400.7 296,-417.7 296,-417.7 296,-400.7 296,-400.7"/>
<polygon fill="#000000" stroke="#000000" points="340,-400.7 340,-417.7 340,-417.7 340,-400.7 340,-400.7"/>
</a>
</g>
</g>
<!-- paymentgateways -->
<g id="node8" class="node">
<title>paymentgateways</title>
<g id="a_node8"><a xlink:href="../../tables/paymentgateways.html" xlink:title="paymentgateways" target="_top">
<polygon fill="#ffffff" stroke="transparent" points="42,-293.2 42,-420.2 192,-420.2 192,-293.2 42,-293.2"/>
<polygon fill="#f5f5f5" stroke="transparent" points="42,-396.7 42,-419.7 192,-419.7 192,-396.7 42,-396.7"/>
<polygon fill="none" stroke="#000000" points="42,-396.7 42,-419.7 192,-419.7 192,-396.7 42,-396.7"/>
<text text-anchor="start" x="47" y="-405.3" font-family="Helvetica,sans-Serif" font-weight="bold" font-size="11.00" fill="#000000">paymentgateways</text>
<text text-anchor="start" x="157.5219" y="-404.8" font-family="Helvetica,sans-Serif" font-size="11.00" fill="#000000">[table]</text>
<polygon fill="none" stroke="#000000" points="42,-374.7 42,-396.7 192,-396.7 192,-374.7 42,-374.7"/>
<image xlink:href="../../images/primaryKeys.png" width="11px" height="12px" preserveAspectRatio="xMinYMin meet" x="47" y="-391.7"/>
<text text-anchor="start" x="65" y="-381.8" font-family="Helvetica,sans-Serif" font-size="11.00" fill="#000000">paymentgateway_id</text>
<polygon fill="#ffffff" stroke="transparent" points="42,-352.7 42,-374.7 192,-374.7 192,-352.7 42,-352.7"/>
<polygon fill="none" stroke="#000000" points="42,-352.7 42,-374.7 192,-374.7 192,-352.7 42,-352.7"/>
<text text-anchor="start" x="65" y="-359.8" font-family="Helvetica,sans-Serif" font-size="11.00" fill="#000000">created_by</text>
<polygon fill="#ffffff" stroke="transparent" points="42,-330.7 42,-352.7 192,-352.7 192,-330.7 42,-330.7"/>
<polygon fill="none" stroke="#000000" points="42,-330.7 42,-352.7 192,-352.7 192,-330.7 42,-330.7"/>
<text text-anchor="start" x="65" y="-337.8" font-family="Helvetica,sans-Serif" font-size="11.00" fill="#000000">updated_by</text>
<polygon fill="none" stroke="#000000" points="42,-311.7 42,-330.7 192,-330.7 192,-311.7 42,-311.7"/>
<text text-anchor="start" x="45" y="-317.8" font-family="Helvetica,sans-Serif" font-size="11.00" fill="#000000">...</text>
<polygon fill="#ffffff" stroke="transparent" points="42,-292.7 42,-311.7 192,-311.7 192,-292.7 42,-292.7"/>
<polygon fill="none" stroke="#000000" points="42,-292.7 42,-311.7 192,-311.7 192,-292.7 42,-292.7"/>
<polygon fill="#ffffff" stroke="transparent" points="43,-293.7 43,-310.7 90,-310.7 90,-293.7 43,-293.7"/>
<text text-anchor="start" x="45" y="-298.8" font-family="Helvetica,sans-Serif" font-size="11.00" fill="#000000"> &#160;</text>
<polygon fill="#ffffff" stroke="transparent" points="90,-293.7 90,-310.7 136,-310.7 136,-293.7 90,-293.7"/>
<text text-anchor="start" x="109.9431" y="-298.8" font-family="Helvetica,sans-Serif" font-size="11.00" fill="#000000"> &#160;</text>
<polygon fill="#ffffff" stroke="transparent" points="136,-293.7 136,-310.7 191,-310.7 191,-293.7 136,-293.7"/>
<text text-anchor="start" x="173.4053" y="-298.8" font-family="Helvetica,sans-Serif" font-size="11.00" fill="#000000">2 &gt;</text>
<polygon fill="#000000" stroke="#000000" points="90,-293.7 90,-310.7 90,-310.7 90,-293.7 90,-293.7"/>
<polygon fill="#000000" stroke="#000000" points="136,-293.7 136,-310.7 136,-310.7 136,-293.7 136,-293.7"/>
</a>
</g>
</g>
<!-- paymentmethod&#45;&gt;paymentgateways -->
<g id="edge3" class="edge">
<title>paymentmethod:w&#45;&gt;paymentgateways:e</title>
<path fill="none" stroke="#000000" d="M227.2151,-443.7565C211.3751,-428.9048 221.3754,-385.7 192,-385.7"/>
<polygon fill="#000000" stroke="#000000" points="233.4696,-445.9994 239.7847,-452.0887 237.2348,-447.3497 241,-448.7 241,-448.7 241,-448.7 237.2348,-447.3497 242.2153,-445.3113 233.4696,-445.9994 233.4696,-445.9994"/>
<ellipse fill="none" stroke="#000000" cx="230.4574" cy="-444.9192" rx="3.2" ry="3.2"/>
</g>
<!-- docsequence -->
<g id="node2" class="node">
<title>docsequence</title>
<g id="a_node2"><a xlink:href="../../tables/docsequence.html" xlink:title="docsequence" target="_top">
<polygon fill="#ffffff" stroke="transparent" points="8,-582.2 8,-709.2 130,-709.2 130,-582.2 8,-582.2"/>
<polygon fill="#f5f5f5" stroke="transparent" points="8,-685.7 8,-708.7 130,-708.7 130,-685.7 8,-685.7"/>
<polygon fill="none" stroke="#000000" points="8,-685.7 8,-708.7 130,-708.7 130,-685.7 8,-685.7"/>
<text text-anchor="start" x="13" y="-694.3" font-family="Helvetica,sans-Serif" font-weight="bold" font-size="11.00" fill="#000000">docsequence</text>
<text text-anchor="start" x="95.5219" y="-693.8" font-family="Helvetica,sans-Serif" font-size="11.00" fill="#000000">[table]</text>
<polygon fill="none" stroke="#000000" points="8,-663.7 8,-685.7 130,-685.7 130,-663.7 8,-663.7"/>
<image xlink:href="../../images/primaryKeys.png" width="11px" height="12px" preserveAspectRatio="xMinYMin meet" x="13" y="-680.7"/>
<text text-anchor="start" x="28" y="-670.8" font-family="Helvetica,sans-Serif" font-size="11.00" fill="#000000">docsequence_id</text>
<polygon fill="#ffffff" stroke="transparent" points="8,-641.7 8,-663.7 130,-663.7 130,-641.7 8,-641.7"/>
<polygon fill="none" stroke="#000000" points="8,-641.7 8,-663.7 130,-663.7 130,-641.7 8,-641.7"/>
<text text-anchor="start" x="28" y="-648.8" font-family="Helvetica,sans-Serif" font-size="11.00" fill="#000000">created_by</text>
<polygon fill="#ffffff" stroke="transparent" points="8,-619.7 8,-641.7 130,-641.7 130,-619.7 8,-619.7"/>
<polygon fill="none" stroke="#000000" points="8,-619.7 8,-641.7 130,-641.7 130,-619.7 8,-619.7"/>
<text text-anchor="start" x="28" y="-626.8" font-family="Helvetica,sans-Serif" font-size="11.00" fill="#000000">updated_by</text>
<polygon fill="none" stroke="#000000" points="8,-600.7 8,-619.7 130,-619.7 130,-600.7 8,-600.7"/>
<text text-anchor="start" x="11" y="-606.8" font-family="Helvetica,sans-Serif" font-size="11.00" fill="#000000">...</text>
<polygon fill="#ffffff" stroke="transparent" points="8,-581.7 8,-600.7 130,-600.7 130,-581.7 8,-581.7"/>
<polygon fill="none" stroke="#000000" points="8,-581.7 8,-600.7 130,-600.7 130,-581.7 8,-581.7"/>
<polygon fill="#ffffff" stroke="transparent" points="9,-582.7 9,-599.7 43,-599.7 43,-582.7 9,-582.7"/>
<text text-anchor="start" x="11" y="-587.8" font-family="Helvetica,sans-Serif" font-size="11.00" fill="#000000"> &#160;</text>
<polygon fill="#ffffff" stroke="transparent" points="43,-582.7 43,-599.7 96,-599.7 96,-582.7 43,-582.7"/>
<text text-anchor="start" x="56.0553" y="-587.8" font-family="Helvetica,sans-Serif" font-size="11.00" fill="#000000">1 row</text>
<polygon fill="#ffffff" stroke="transparent" points="96,-582.7 96,-599.7 129,-599.7 129,-582.7 96,-582.7"/>
<text text-anchor="start" x="120.8862" y="-587.8" font-family="Helvetica,sans-Serif" font-size="11.00" fill="#000000"> &#160;</text>
<polygon fill="#000000" stroke="#000000" points="43,-582.7 43,-599.7 43,-599.7 43,-582.7 43,-582.7"/>
<polygon fill="#000000" stroke="#000000" points="96,-582.7 96,-599.7 96,-599.7 96,-582.7 96,-582.7"/>
</a>
</g>
</g>
<!-- ordertickets -->
<g id="node3" class="node">
<title>ordertickets</title>
<g id="a_node3"><a xlink:href="../../tables/ordertickets.html" xlink:title="ordertickets" target="_top">
<polygon fill="#ffffff" stroke="transparent" points="434,-104.2 434,-209.2 547,-209.2 547,-104.2 434,-104.2"/>
<polygon fill="#f5f5f5" stroke="transparent" points="434.5,-185.7 434.5,-208.7 547.5,-208.7 547.5,-185.7 434.5,-185.7"/>
<polygon fill="none" stroke="#000000" points="434.5,-185.7 434.5,-208.7 547.5,-208.7 547.5,-185.7 434.5,-185.7"/>
<text text-anchor="start" x="439.5" y="-194.3" font-family="Helvetica,sans-Serif" font-weight="bold" font-size="11.00" fill="#000000">ordertickets</text>
<text text-anchor="start" x="513.0219" y="-193.8" font-family="Helvetica,sans-Serif" font-size="11.00" fill="#000000">[table]</text>
<polygon fill="none" stroke="#000000" points="434.5,-163.7 434.5,-185.7 547.5,-185.7 547.5,-163.7 434.5,-163.7"/>
<image xlink:href="../../images/primaryKeys.png" width="11px" height="12px" preserveAspectRatio="xMinYMin meet" x="439.5" y="-180.7"/>
<text text-anchor="start" x="458.5" y="-170.8" font-family="Helvetica,sans-Serif" font-size="11.00" fill="#000000">orderticket_id</text>
<polygon fill="none" stroke="#000000" points="434.5,-141.7 434.5,-163.7 547.5,-163.7 547.5,-141.7 434.5,-141.7"/>
<image xlink:href="../../images/foreignKeys.png" width="11px" height="12px" preserveAspectRatio="xMinYMin meet" x="439.5" y="-158.7"/>
<text text-anchor="start" x="458.5" y="-148.8" font-family="Helvetica,sans-Serif" font-size="11.00" fill="#000000">orderdetail_id</text>
<polygon fill="none" stroke="#000000" points="434.5,-122.7 434.5,-141.7 547.5,-141.7 547.5,-122.7 434.5,-122.7"/>
<text text-anchor="start" x="437.5" y="-128.8" font-family="Helvetica,sans-Serif" font-size="11.00" fill="#000000">...</text>
<polygon fill="#ffffff" stroke="transparent" points="434.5,-103.7 434.5,-122.7 547.5,-122.7 547.5,-103.7 434.5,-103.7"/>
<polygon fill="none" stroke="#000000" points="434.5,-103.7 434.5,-122.7 547.5,-122.7 547.5,-103.7 434.5,-103.7"/>
<polygon fill="#ffffff" stroke="transparent" points="435.5,-104.7 435.5,-121.7 462.5,-121.7 462.5,-104.7 435.5,-104.7"/>
<text text-anchor="start" x="437.5" y="-109.8" font-family="Helvetica,sans-Serif" font-size="11.00" fill="#000000"> &#160;</text>
<polygon fill="#ffffff" stroke="transparent" points="462.5,-104.7 462.5,-121.7 520.5,-121.7 520.5,-104.7 462.5,-104.7"/>
<text text-anchor="start" x="472.2478" y="-109.8" font-family="Helvetica,sans-Serif" font-size="11.00" fill="#000000">56 rows</text>
<polygon fill="#ffffff" stroke="transparent" points="520.5,-104.7 520.5,-121.7 546.5,-121.7 546.5,-104.7 520.5,-104.7"/>
<text text-anchor="start" x="538.3862" y="-109.8" font-family="Helvetica,sans-Serif" font-size="11.00" fill="#000000"> &#160;</text>
<polygon fill="#000000" stroke="#000000" points="462.5,-104.7 462.5,-121.7 462.5,-121.7 462.5,-104.7 462.5,-104.7"/>
<polygon fill="#000000" stroke="#000000" points="520.5,-104.7 520.5,-121.7 520.5,-121.7 520.5,-104.7 520.5,-104.7"/>
</a>
</g>
</g>
<!-- orderdetails -->
<g id="node6" class="node">
<title>orderdetails</title>
<g id="a_node6"><a xlink:href="../../tables/orderdetails.html" xlink:title="orderdetails" target="_top">
<polygon fill="#ffffff" stroke="transparent" points="256.5,-38.2 256.5,-187.2 369.5,-187.2 369.5,-38.2 256.5,-38.2"/>
<polygon fill="#f5f5f5" stroke="transparent" points="257,-163.7 257,-186.7 370,-186.7 370,-163.7 257,-163.7"/>
<polygon fill="none" stroke="#000000" points="257,-163.7 257,-186.7 370,-186.7 370,-163.7 257,-163.7"/>
<text text-anchor="start" x="262" y="-172.3" font-family="Helvetica,sans-Serif" font-weight="bold" font-size="11.00" fill="#000000">orderdetails</text>
<text text-anchor="start" x="335.5219" y="-171.8" font-family="Helvetica,sans-Serif" font-size="11.00" fill="#000000">[table]</text>
<polygon fill="none" stroke="#000000" points="257,-141.7 257,-163.7 370,-163.7 370,-141.7 257,-141.7"/>
<image xlink:href="../../images/primaryKeys.png" width="11px" height="12px" preserveAspectRatio="xMinYMin meet" x="262" y="-158.7"/>
<text text-anchor="start" x="279" y="-148.8" font-family="Helvetica,sans-Serif" font-size="11.00" fill="#000000">orderdetail_id</text>
<polygon fill="#ffffff" stroke="transparent" points="257,-119.7 257,-141.7 370,-141.7 370,-119.7 257,-119.7"/>
<polygon fill="none" stroke="#000000" points="257,-119.7 257,-141.7 370,-141.7 370,-119.7 257,-119.7"/>
<image xlink:href="../../images/foreignKeys.png" width="11px" height="12px" preserveAspectRatio="xMinYMin meet" x="262" y="-136.7"/>
<text text-anchor="start" x="279" y="-126.8" font-family="Helvetica,sans-Serif" font-size="11.00" fill="#000000">order_id</text>
<polygon fill="#ffffff" stroke="transparent" points="257,-97.7 257,-119.7 370,-119.7 370,-97.7 257,-97.7"/>
<polygon fill="none" stroke="#000000" points="257,-97.7 257,-119.7 370,-119.7 370,-97.7 257,-97.7"/>
<text text-anchor="start" x="279" y="-104.8" font-family="Helvetica,sans-Serif" font-size="11.00" fill="#000000">created_by</text>
<polygon fill="#ffffff" stroke="transparent" points="257,-75.7 257,-97.7 370,-97.7 370,-75.7 257,-75.7"/>
<polygon fill="none" stroke="#000000" points="257,-75.7 257,-97.7 370,-97.7 370,-75.7 257,-75.7"/>
<text text-anchor="start" x="279" y="-82.8" font-family="Helvetica,sans-Serif" font-size="11.00" fill="#000000">updated_by</text>
<polygon fill="none" stroke="#000000" points="257,-56.7 257,-75.7 370,-75.7 370,-56.7 257,-56.7"/>
<text text-anchor="start" x="260" y="-62.8" font-family="Helvetica,sans-Serif" font-size="11.00" fill="#000000">...</text>
<polygon fill="#ffffff" stroke="transparent" points="257,-37.7 257,-56.7 370,-56.7 370,-37.7 257,-37.7"/>
<polygon fill="none" stroke="#000000" points="257,-37.7 257,-56.7 370,-56.7 370,-37.7 257,-37.7"/>
<polygon fill="#ffffff" stroke="transparent" points="258,-38.7 258,-55.7 289,-55.7 289,-38.7 258,-38.7"/>
<text text-anchor="start" x="260" y="-43.8" font-family="Helvetica,sans-Serif" font-size="11.00" fill="#000000">&lt; 1</text>
<polygon fill="#ffffff" stroke="transparent" points="289,-38.7 289,-55.7 348,-55.7 348,-38.7 289,-38.7"/>
<text text-anchor="start" x="296.1904" y="-43.8" font-family="Helvetica,sans-Serif" font-size="11.00" fill="#000000">109 rows</text>
<polygon fill="#ffffff" stroke="transparent" points="348,-38.7 348,-55.7 369,-55.7 369,-38.7 348,-38.7"/>
<text text-anchor="start" x="360.8862" y="-43.8" font-family="Helvetica,sans-Serif" font-size="11.00" fill="#000000"> &#160;</text>
<polygon fill="#000000" stroke="#000000" points="289,-38.7 289,-55.7 289,-55.7 289,-38.7 289,-38.7"/>
<polygon fill="#000000" stroke="#000000" points="348,-38.7 348,-55.7 348,-55.7 348,-38.7 348,-38.7"/>
</a>
</g>
</g>
<!-- ordertickets&#45;&gt;orderdetails -->
<g id="edge2" class="edge">
<title>ordertickets:w&#45;&gt;orderdetails:e</title>
<path fill="none" stroke="#000000" stroke-dasharray="5,2" d="M419.8432,-152.7C402.2137,-152.7 393.0677,-152.7 370,-152.7"/>
<polygon fill="#000000" stroke="#000000" points="426.5,-152.7001 434.5,-156.3 430.5,-152.7 434.5,-152.7 434.5,-152.7 434.5,-152.7 430.5,-152.7 434.5,-149.1 426.5,-152.7001 426.5,-152.7001"/>
<ellipse fill="none" stroke="#000000" cx="423.3" cy="-152.7001" rx="3.2" ry="3.2"/>
</g>
<!-- payments -->
<g id="node4" class="node">
<title>payments</title>
<g id="a_node4"><a xlink:href="../../tables/payments.html" xlink:title="payments" target="_top">
<polygon fill="#ffffff" stroke="transparent" points="241,-208.2 241,-379.2 385,-379.2 385,-208.2 241,-208.2"/>
<polygon fill="#f5f5f5" stroke="transparent" points="241,-355.7 241,-378.7 385,-378.7 385,-355.7 241,-355.7"/>
<polygon fill="none" stroke="#000000" points="241,-355.7 241,-378.7 385,-378.7 385,-355.7 241,-355.7"/>
<text text-anchor="start" x="246" y="-364.3" font-family="Helvetica,sans-Serif" font-weight="bold" font-size="11.00" fill="#000000">payments</text>
<text text-anchor="start" x="350.0437" y="-363.8" font-family="Helvetica,sans-Serif" font-size="11.00" fill="#000000">[table]</text>
<polygon fill="none" stroke="#000000" points="241,-333.7 241,-355.7 385,-355.7 385,-333.7 241,-333.7"/>
<image xlink:href="../../images/primaryKeys.png" width="11px" height="12px" preserveAspectRatio="xMinYMin meet" x="246" y="-350.7"/>
<text text-anchor="start" x="261" y="-340.8" font-family="Helvetica,sans-Serif" font-size="11.00" fill="#000000">payment_id</text>
<polygon fill="#ffffff" stroke="transparent" points="241,-311.7 241,-333.7 385,-333.7 385,-311.7 241,-311.7"/>
<polygon fill="none" stroke="#000000" points="241,-311.7 241,-333.7 385,-333.7 385,-311.7 241,-311.7"/>
<image xlink:href="../../images/foreignKeys.png" width="11px" height="12px" preserveAspectRatio="xMinYMin meet" x="246" y="-328.7"/>
<text text-anchor="start" x="261" y="-318.8" font-family="Helvetica,sans-Serif" font-size="11.00" fill="#000000">paymentgateway_id</text>
<polygon fill="#ffffff" stroke="transparent" points="241,-289.7 241,-311.7 385,-311.7 385,-289.7 241,-289.7"/>
<polygon fill="none" stroke="#000000" points="241,-289.7 241,-311.7 385,-311.7 385,-289.7 241,-289.7"/>
<image xlink:href="../../images/foreignKeys.png" width="11px" height="12px" preserveAspectRatio="xMinYMin meet" x="246" y="-306.7"/>
<text text-anchor="start" x="261" y="-296.8" font-family="Helvetica,sans-Serif" font-size="11.00" fill="#000000">order_id</text>
<polygon fill="#ffffff" stroke="transparent" points="241,-267.7 241,-289.7 385,-289.7 385,-267.7 241,-267.7"/>
<polygon fill="none" stroke="#000000" points="241,-267.7 241,-289.7 385,-289.7 385,-267.7 241,-267.7"/>
<text text-anchor="start" x="261" y="-274.8" font-family="Helvetica,sans-Serif" font-size="11.00" fill="#000000">created_by</text>
<polygon fill="#ffffff" stroke="transparent" points="241,-245.7 241,-267.7 385,-267.7 385,-245.7 241,-245.7"/>
<polygon fill="none" stroke="#000000" points="241,-245.7 241,-267.7 385,-267.7 385,-245.7 241,-245.7"/>
<text text-anchor="start" x="261" y="-252.8" font-family="Helvetica,sans-Serif" font-size="11.00" fill="#000000">updated_by</text>
<polygon fill="none" stroke="#000000" points="241,-226.7 241,-245.7 385,-245.7 385,-226.7 241,-226.7"/>
<text text-anchor="start" x="244" y="-232.8" font-family="Helvetica,sans-Serif" font-size="11.00" fill="#000000">...</text>
<polygon fill="#ffffff" stroke="transparent" points="241,-207.7 241,-226.7 385,-226.7 385,-207.7 241,-207.7"/>
<polygon fill="none" stroke="#000000" points="241,-207.7 241,-226.7 385,-226.7 385,-207.7 241,-207.7"/>
<polygon fill="#ffffff" stroke="transparent" points="242,-208.7 242,-225.7 285,-225.7 285,-208.7 242,-208.7"/>
<text text-anchor="start" x="244" y="-213.8" font-family="Helvetica,sans-Serif" font-size="11.00" fill="#000000">&lt; 2</text>
<polygon fill="#ffffff" stroke="transparent" points="285,-208.7 285,-225.7 351,-225.7 351,-208.7 285,-208.7"/>
<text text-anchor="start" x="298.7478" y="-213.8" font-family="Helvetica,sans-Serif" font-size="11.00" fill="#000000">27 rows</text>
<polygon fill="#ffffff" stroke="transparent" points="351,-208.7 351,-225.7 384,-225.7 384,-208.7 351,-208.7"/>
<text text-anchor="start" x="375.8862" y="-213.8" font-family="Helvetica,sans-Serif" font-size="11.00" fill="#000000"> &#160;</text>
<polygon fill="#000000" stroke="#000000" points="285,-208.7 285,-225.7 285,-225.7 285,-208.7 285,-208.7"/>
<polygon fill="#000000" stroke="#000000" points="351,-208.7 351,-225.7 351,-225.7 351,-208.7 351,-208.7"/>
</a>
</g>
</g>
<!-- orders -->
<g id="node5" class="node">
<title>orders</title>
<g id="a_node5"><a xlink:href="../../tables/orders.html" xlink:title="orders" target="_top">
<polygon fill="#ffffff" stroke="transparent" points="70.5,-70.2 70.5,-219.2 163.5,-219.2 163.5,-70.2 70.5,-70.2"/>
<polygon fill="#f5f5f5" stroke="transparent" points="71,-195.7 71,-218.7 164,-218.7 164,-195.7 71,-195.7"/>
<polygon fill="none" stroke="#000000" points="71,-195.7 71,-218.7 164,-218.7 164,-195.7 71,-195.7"/>
<text text-anchor="start" x="76" y="-204.3" font-family="Helvetica,sans-Serif" font-weight="bold" font-size="11.00" fill="#000000">orders</text>
<text text-anchor="start" x="129.0437" y="-203.8" font-family="Helvetica,sans-Serif" font-size="11.00" fill="#000000">[table]</text>
<polygon fill="none" stroke="#000000" points="71,-173.7 71,-195.7 164,-195.7 164,-173.7 71,-173.7"/>
<image xlink:href="../../images/primaryKeys.png" width="11px" height="12px" preserveAspectRatio="xMinYMin meet" x="76" y="-190.7"/>
<text text-anchor="start" x="91" y="-180.8" font-family="Helvetica,sans-Serif" font-size="11.00" fill="#000000">order_id</text>
<polygon fill="#ffffff" stroke="transparent" points="71,-151.7 71,-173.7 164,-173.7 164,-151.7 71,-151.7"/>
<polygon fill="none" stroke="#000000" points="71,-151.7 71,-173.7 164,-173.7 164,-151.7 71,-151.7"/>
<text text-anchor="start" x="91" y="-158.8" font-family="Helvetica,sans-Serif" font-size="11.00" fill="#000000">created_by</text>
<polygon fill="#ffffff" stroke="transparent" points="71,-129.7 71,-151.7 164,-151.7 164,-129.7 71,-129.7"/>
<polygon fill="none" stroke="#000000" points="71,-129.7 71,-151.7 164,-151.7 164,-129.7 71,-129.7"/>
<text text-anchor="start" x="91" y="-136.8" font-family="Helvetica,sans-Serif" font-size="11.00" fill="#000000">updated_by</text>
<polygon fill="#ffffff" stroke="transparent" points="71,-107.7 71,-129.7 164,-129.7 164,-107.7 71,-107.7"/>
<polygon fill="none" stroke="#000000" points="71,-107.7 71,-129.7 164,-129.7 164,-107.7 71,-107.7"/>
<text text-anchor="start" x="91" y="-114.8" font-family="Helvetica,sans-Serif" font-size="11.00" fill="#000000">flow_token</text>
<polygon fill="none" stroke="#000000" points="71,-88.7 71,-107.7 164,-107.7 164,-88.7 71,-88.7"/>
<text text-anchor="start" x="74" y="-94.8" font-family="Helvetica,sans-Serif" font-size="11.00" fill="#000000">...</text>
<polygon fill="#ffffff" stroke="transparent" points="71,-69.7 71,-88.7 164,-88.7 164,-69.7 71,-69.7"/>
<polygon fill="none" stroke="#000000" points="71,-69.7 71,-88.7 164,-88.7 164,-69.7 71,-69.7"/>
<polygon fill="#ffffff" stroke="transparent" points="72,-70.7 72,-87.7 89,-87.7 89,-70.7 72,-70.7"/>
<text text-anchor="start" x="74" y="-75.8" font-family="Helvetica,sans-Serif" font-size="11.00" fill="#000000"> &#160;</text>
<polygon fill="#ffffff" stroke="transparent" points="89,-70.7 89,-87.7 138,-87.7 138,-70.7 89,-70.7"/>
<text text-anchor="start" x="94.2478" y="-75.8" font-family="Helvetica,sans-Serif" font-size="11.00" fill="#000000">47 rows</text>
<polygon fill="#ffffff" stroke="transparent" points="138,-70.7 138,-87.7 163,-87.7 163,-70.7 138,-70.7"/>
<text text-anchor="start" x="145.4053" y="-75.8" font-family="Helvetica,sans-Serif" font-size="11.00" fill="#000000">2 &gt;</text>
<polygon fill="#000000" stroke="#000000" points="89,-70.7 89,-87.7 89,-87.7 89,-70.7 89,-70.7"/>
<polygon fill="#000000" stroke="#000000" points="138,-70.7 138,-87.7 138,-87.7 138,-70.7 138,-70.7"/>
</a>
</g>
</g>
<!-- payments&#45;&gt;orders -->
<g id="edge4" class="edge">
<title>payments:w&#45;&gt;orders:e</title>
<path fill="none" stroke="#000000" d="M226.7946,-298.0592C186.6452,-280.7926 220.3205,-184.7 164,-184.7"/>
<polygon fill="#000000" stroke="#000000" points="233.1348,-299.2378 240.342,-304.2394 237.0674,-299.9689 241,-300.7 241,-300.7 241,-300.7 237.0674,-299.9689 241.658,-297.1606 233.1348,-299.2378 233.1348,-299.2378"/>
<ellipse fill="none" stroke="#000000" cx="229.9887" cy="-298.6529" rx="3.2" ry="3.2"/>
</g>
<!-- payments&#45;&gt;paymentgateways -->
<g id="edge5" class="edge">
<title>payments:w&#45;&gt;paymentgateways:e</title>
<path fill="none" stroke="#000000" d="M227.2151,-327.6435C211.3751,-342.4952 221.3754,-385.7 192,-385.7"/>
<polygon fill="#000000" stroke="#000000" points="233.4696,-325.4006 242.2153,-326.0887 237.2348,-324.0503 241,-322.7 241,-322.7 241,-322.7 237.2348,-324.0503 239.7847,-319.3113 233.4696,-325.4006 233.4696,-325.4006"/>
<ellipse fill="none" stroke="#000000" cx="230.4574" cy="-326.4808" rx="3.2" ry="3.2"/>
</g>
<!-- orderdetails&#45;&gt;orders -->
<g id="edge1" class="edge">
<title>orderdetails:w&#45;&gt;orders:e</title>
<path fill="none" stroke="#000000" d="M242.5502,-132.6219C209.1447,-142.2414 206.3815,-184.7 164,-184.7"/>
<polygon fill="#000000" stroke="#000000" points="249.0698,-131.7548 257.4747,-134.2686 253.0349,-131.2274 257,-130.7 257,-130.7 257,-130.7 253.0349,-131.2274 256.5253,-127.1314 249.0698,-131.7548 249.0698,-131.7548"/>
<ellipse fill="none" stroke="#000000" cx="245.8978" cy="-132.1767" rx="3.2" ry="3.2"/>
</g>
<!-- sites -->
<g id="node7" class="node">
<title>sites</title>
<g id="a_node7"><a xlink:href="../../tables/sites.html" xlink:title="sites" target="_top">
<polygon fill="#ffffff" stroke="transparent" points="212,-582.2 212,-687.2 305,-687.2 305,-582.2 212,-582.2"/>
<polygon fill="#f5f5f5" stroke="transparent" points="212.5,-663.7 212.5,-686.7 305.5,-686.7 305.5,-663.7 212.5,-663.7"/>
<polygon fill="none" stroke="#000000" points="212.5,-663.7 212.5,-686.7 305.5,-686.7 305.5,-663.7 212.5,-663.7"/>
<text text-anchor="start" x="217.5" y="-672.3" font-family="Helvetica,sans-Serif" font-weight="bold" font-size="11.00" fill="#000000">sites</text>
<text text-anchor="start" x="270.5437" y="-671.8" font-family="Helvetica,sans-Serif" font-size="11.00" fill="#000000">[table]</text>
<polygon fill="none" stroke="#000000" points="212.5,-641.7 212.5,-663.7 305.5,-663.7 305.5,-641.7 212.5,-641.7"/>
<image xlink:href="../../images/primaryKeys.png" width="11px" height="12px" preserveAspectRatio="xMinYMin meet" x="217.5" y="-658.7"/>
<text text-anchor="start" x="232.5" y="-648.8" font-family="Helvetica,sans-Serif" font-size="11.00" fill="#000000">site_id</text>
<polygon fill="#ffffff" stroke="transparent" points="212.5,-619.7 212.5,-641.7 305.5,-641.7 305.5,-619.7 212.5,-619.7"/>
<polygon fill="none" stroke="#000000" points="212.5,-619.7 212.5,-641.7 305.5,-641.7 305.5,-619.7 212.5,-619.7"/>
<text text-anchor="start" x="232.5" y="-626.8" font-family="Helvetica,sans-Serif" font-size="11.00" fill="#000000">created_by</text>
<polygon fill="none" stroke="#000000" points="212.5,-600.7 212.5,-619.7 305.5,-619.7 305.5,-600.7 212.5,-600.7"/>
<text text-anchor="start" x="215.5" y="-606.8" font-family="Helvetica,sans-Serif" font-size="11.00" fill="#000000">...</text>
<polygon fill="#ffffff" stroke="transparent" points="212.5,-581.7 212.5,-600.7 305.5,-600.7 305.5,-581.7 212.5,-581.7"/>
<polygon fill="none" stroke="#000000" points="212.5,-581.7 212.5,-600.7 305.5,-600.7 305.5,-581.7 212.5,-581.7"/>
<polygon fill="#ffffff" stroke="transparent" points="213.5,-582.7 213.5,-599.7 235.5,-599.7 235.5,-582.7 213.5,-582.7"/>
<text text-anchor="start" x="215.5" y="-587.8" font-family="Helvetica,sans-Serif" font-size="11.00" fill="#000000"> &#160;</text>
<polygon fill="#ffffff" stroke="transparent" points="235.5,-582.7 235.5,-599.7 283.5,-599.7 283.5,-582.7 235.5,-582.7"/>
<text text-anchor="start" x="243.3053" y="-587.8" font-family="Helvetica,sans-Serif" font-size="11.00" fill="#000000">6 rows</text>
<polygon fill="#ffffff" stroke="transparent" points="283.5,-582.7 283.5,-599.7 304.5,-599.7 304.5,-582.7 283.5,-582.7"/>
<text text-anchor="start" x="296.3862" y="-587.8" font-family="Helvetica,sans-Serif" font-size="11.00" fill="#000000"> &#160;</text>
<polygon fill="#000000" stroke="#000000" points="235.5,-582.7 235.5,-599.7 235.5,-599.7 235.5,-582.7 235.5,-582.7"/>
<polygon fill="#000000" stroke="#000000" points="283.5,-582.7 283.5,-599.7 283.5,-599.7 283.5,-582.7 283.5,-582.7"/>
</a>
</g>
</g>
</g>
</svg>
