<?xml version="1.0" encoding="UTF-8" standalone="no"?>
<!DOCTYPE svg PUBLIC "-//W3C//DTD SVG 1.1//EN"
 "http://www.w3.org/Graphics/SVG/1.1/DTD/svg11.dtd">
<!-- Generated by graphviz version 2.40.1 (20161225.0304)
 -->
<!-- Title: oneDegreeRelationshipsDiagram Pages: 1 -->
<svg width="689pt" height="518pt"
 viewBox="0.00 0.00 689.00 518.20" xmlns="http://www.w3.org/2000/svg" xmlns:xlink="http://www.w3.org/1999/xlink">
<g id="graph0" class="graph" transform="scale(1 1) rotate(0) translate(4 514.2)">
<title>oneDegreeRelationshipsDiagram</title>
<polygon fill="#ffffff" stroke="transparent" points="-4,4 -4,-514.2 685,-514.2 685,4 -4,4"/>
<text text-anchor="middle" x="72.4936" y="-7.3" font-family="Helvetica,sans-Serif" font-size="11.00" fill="#000000">Generated by SchemaSpy</text>
<!-- orderdetails -->
<g id="node1" class="node">
<title>orderdetails</title>
<g id="a_node1"><a xlink:href="../../tables/orderdetails.html" xlink:title="orderdetails" target="_top">
<polygon fill="#ffffff" stroke="transparent" points="309,-132.7 309,-398.7 511,-398.7 511,-132.7 309,-132.7"/>
<polygon fill="#f5f5f5" stroke="transparent" points="311,-373.7 311,-396.7 509,-396.7 509,-373.7 311,-373.7"/>
<polygon fill="none" stroke="#000000" points="311,-373.7 311,-396.7 509,-396.7 509,-373.7 311,-373.7"/>
<text text-anchor="start" x="316" y="-382.3" font-family="Helvetica,sans-Serif" font-weight="bold" font-size="11.00" fill="#000000">orderdetails</text>
<text text-anchor="start" x="474.0437" y="-381.8" font-family="Helvetica,sans-Serif" font-size="11.00" fill="#000000">[table]</text>
<polygon fill="none" stroke="#000000" points="311,-351.7 311,-373.7 417,-373.7 417,-351.7 311,-351.7"/>
<image xlink:href="../../images/primaryKeys.png" width="11px" height="12px" preserveAspectRatio="xMinYMin meet" x="316" y="-368.7"/>
<text text-anchor="start" x="331" y="-358.8" font-family="Helvetica,sans-Serif" font-size="11.00" fill="#000000">orderdetail_id</text>
<polygon fill="none" stroke="#000000" points="417,-351.7 417,-373.7 509,-373.7 509,-351.7 417,-351.7"/>
<text text-anchor="start" x="420" y="-359.4" font-family="Helvetica,sans-Serif" font-size="11.00" fill="#000000">int8[19]</text>
<polygon fill="#ffffff" stroke="transparent" points="311,-329.7 311,-351.7 417,-351.7 417,-329.7 311,-329.7"/>
<polygon fill="none" stroke="#000000" points="311,-329.7 311,-351.7 417,-351.7 417,-329.7 311,-329.7"/>
<image xlink:href="../../images/foreignKeys.png" width="11px" height="12px" preserveAspectRatio="xMinYMin meet" x="316" y="-346.7"/>
<text text-anchor="start" x="331" y="-336.8" font-family="Helvetica,sans-Serif" font-size="11.00" fill="#000000">order_id</text>
<polygon fill="none" stroke="#000000" points="417,-329.7 417,-351.7 509,-351.7 509,-329.7 417,-329.7"/>
<text text-anchor="start" x="420" y="-337.4" font-family="Helvetica,sans-Serif" font-size="11.00" fill="#000000">int8[19]</text>
<polygon fill="none" stroke="#000000" points="311,-307.7 311,-329.7 417,-329.7 417,-307.7 311,-307.7"/>
<text text-anchor="start" x="331" y="-314.8" font-family="Helvetica,sans-Serif" font-size="11.00" fill="#000000">qty</text>
<polygon fill="none" stroke="#000000" points="417,-307.7 417,-329.7 509,-329.7 509,-307.7 417,-307.7"/>
<text text-anchor="start" x="420" y="-315.4" font-family="Helvetica,sans-Serif" font-size="11.00" fill="#000000">numeric[0]</text>
<polygon fill="none" stroke="#000000" points="311,-285.7 311,-307.7 417,-307.7 417,-285.7 311,-285.7"/>
<text text-anchor="start" x="331" y="-292.8" font-family="Helvetica,sans-Serif" font-size="11.00" fill="#000000">price</text>
<polygon fill="none" stroke="#000000" points="417,-285.7 417,-307.7 509,-307.7 509,-285.7 417,-285.7"/>
<text text-anchor="start" x="420" y="-293.4" font-family="Helvetica,sans-Serif" font-size="11.00" fill="#000000">numeric[18,2]</text>
<polygon fill="none" stroke="#000000" points="311,-263.7 311,-285.7 417,-285.7 417,-263.7 311,-263.7"/>
<text text-anchor="start" x="331" y="-270.8" font-family="Helvetica,sans-Serif" font-size="11.00" fill="#000000">total_amt</text>
<polygon fill="none" stroke="#000000" points="417,-263.7 417,-285.7 509,-285.7 509,-263.7 417,-263.7"/>
<text text-anchor="start" x="420" y="-271.4" font-family="Helvetica,sans-Serif" font-size="11.00" fill="#000000">numeric[18,2]</text>
<polygon fill="#ffffff" stroke="transparent" points="311,-241.7 311,-263.7 417,-263.7 417,-241.7 311,-241.7"/>
<polygon fill="none" stroke="#000000" points="311,-241.7 311,-263.7 417,-263.7 417,-241.7 311,-241.7"/>
<image xlink:href="../../images/foreignKeys.png" width="11px" height="12px" preserveAspectRatio="xMinYMin meet" x="316" y="-258.7"/>
<text text-anchor="start" x="331" y="-248.8" font-family="Helvetica,sans-Serif" font-size="11.00" fill="#000000">product_id</text>
<polygon fill="none" stroke="#000000" points="417,-241.7 417,-263.7 509,-263.7 509,-241.7 417,-241.7"/>
<text text-anchor="start" x="420" y="-249.4" font-family="Helvetica,sans-Serif" font-size="11.00" fill="#000000">int8[19]</text>
<polygon fill="none" stroke="#000000" points="311,-219.7 311,-241.7 417,-241.7 417,-219.7 311,-219.7"/>
<text text-anchor="start" x="331" y="-226.8" font-family="Helvetica,sans-Serif" font-size="11.00" fill="#000000">created</text>
<polygon fill="none" stroke="#000000" points="417,-219.7 417,-241.7 509,-241.7 509,-219.7 417,-219.7"/>
<text text-anchor="start" x="419.6023" y="-227.4" font-family="Helvetica,sans-Serif" font-size="11.00" fill="#000000">timestamptz[35,6]</text>
<polygon fill="none" stroke="#000000" points="311,-197.7 311,-219.7 417,-219.7 417,-197.7 311,-197.7"/>
<text text-anchor="start" x="331" y="-204.8" font-family="Helvetica,sans-Serif" font-size="11.00" fill="#000000">updated</text>
<polygon fill="none" stroke="#000000" points="417,-197.7 417,-219.7 509,-219.7 509,-197.7 417,-197.7"/>
<text text-anchor="start" x="419.6023" y="-205.4" font-family="Helvetica,sans-Serif" font-size="11.00" fill="#000000">timestamptz[35,6]</text>
<polygon fill="#ffffff" stroke="transparent" points="311,-175.7 311,-197.7 417,-197.7 417,-175.7 311,-175.7"/>
<polygon fill="none" stroke="#000000" points="311,-175.7 311,-197.7 417,-197.7 417,-175.7 311,-175.7"/>
<image xlink:href="../../images/foreignKeys.png" width="11px" height="12px" preserveAspectRatio="xMinYMin meet" x="316" y="-192.7"/>
<text text-anchor="start" x="331" y="-182.8" font-family="Helvetica,sans-Serif" font-size="11.00" fill="#000000">created_by</text>
<polygon fill="none" stroke="#000000" points="417,-175.7 417,-197.7 509,-197.7 509,-175.7 417,-175.7"/>
<text text-anchor="start" x="420" y="-183.4" font-family="Helvetica,sans-Serif" font-size="11.00" fill="#000000">int8[19]</text>
<polygon fill="#ffffff" stroke="transparent" points="311,-153.7 311,-175.7 417,-175.7 417,-153.7 311,-153.7"/>
<polygon fill="none" stroke="#000000" points="311,-153.7 311,-175.7 417,-175.7 417,-153.7 311,-153.7"/>
<image xlink:href="../../images/foreignKeys.png" width="11px" height="12px" preserveAspectRatio="xMinYMin meet" x="316" y="-170.7"/>
<text text-anchor="start" x="331" y="-160.8" font-family="Helvetica,sans-Serif" font-size="11.00" fill="#000000">updated_by</text>
<polygon fill="none" stroke="#000000" points="417,-153.7 417,-175.7 509,-175.7 509,-153.7 417,-153.7"/>
<text text-anchor="start" x="420" y="-161.4" font-family="Helvetica,sans-Serif" font-size="11.00" fill="#000000">int8[19]</text>
<polygon fill="#ffffff" stroke="transparent" points="311,-134.7 311,-153.7 509,-153.7 509,-134.7 311,-134.7"/>
<polygon fill="none" stroke="#000000" points="311,-134.7 311,-153.7 509,-153.7 509,-134.7 311,-134.7"/>
<polygon fill="#ffffff" stroke="transparent" points="312,-135.7 312,-152.7 381,-152.7 381,-135.7 312,-135.7"/>
<text text-anchor="start" x="314" y="-140.8" font-family="Helvetica,sans-Serif" font-size="11.00" fill="#000000">&lt; 4</text>
<polygon fill="#ffffff" stroke="transparent" points="381,-135.7 381,-152.7 440,-152.7 440,-135.7 381,-135.7"/>
<text text-anchor="start" x="407.4431" y="-140.8" font-family="Helvetica,sans-Serif" font-size="11.00" fill="#000000"> &#160;</text>
<polygon fill="#ffffff" stroke="transparent" points="440,-135.7 440,-152.7 508,-152.7 508,-135.7 440,-135.7"/>
<text text-anchor="start" x="490.4053" y="-140.8" font-family="Helvetica,sans-Serif" font-size="11.00" fill="#000000">1 &gt;</text>
<polygon fill="#000000" stroke="#000000" points="381,-135.7 381,-152.7 381,-152.7 381,-135.7 381,-135.7"/>
<polygon fill="#000000" stroke="#000000" points="440,-135.7 440,-152.7 440,-152.7 440,-135.7 440,-135.7"/>
<polygon fill="none" stroke="#000000" stroke-width="2" points="310,-133.7 310,-397.7 510,-397.7 510,-133.7 310,-133.7"/>
</a>
</g>
</g>
<!-- users -->
<g id="node2" class="node">
<title>users</title>
<g id="a_node2"><a xlink:href="../../tables/users.html" xlink:title="users" target="_top">
<polygon fill="#ffffff" stroke="transparent" points="8,-106.2 8,-233.2 101,-233.2 101,-106.2 8,-106.2"/>
<polygon fill="#f5f5f5" stroke="transparent" points="8.5,-209.7 8.5,-232.7 101.5,-232.7 101.5,-209.7 8.5,-209.7"/>
<polygon fill="none" stroke="#000000" points="8.5,-209.7 8.5,-232.7 101.5,-232.7 101.5,-209.7 8.5,-209.7"/>
<text text-anchor="start" x="13.5" y="-218.3" font-family="Helvetica,sans-Serif" font-weight="bold" font-size="11.00" fill="#000000">users</text>
<text text-anchor="start" x="66.5437" y="-217.8" font-family="Helvetica,sans-Serif" font-size="11.00" fill="#000000">[table]</text>
<polygon fill="none" stroke="#000000" points="8.5,-187.7 8.5,-209.7 101.5,-209.7 101.5,-187.7 8.5,-187.7"/>
<image xlink:href="../../images/primaryKeys.png" width="11px" height="12px" preserveAspectRatio="xMinYMin meet" x="13.5" y="-204.7"/>
<text text-anchor="start" x="28.5" y="-194.8" font-family="Helvetica,sans-Serif" font-size="11.00" fill="#000000">user_id</text>
<polygon fill="#ffffff" stroke="transparent" points="8.5,-165.7 8.5,-187.7 101.5,-187.7 101.5,-165.7 8.5,-165.7"/>
<polygon fill="none" stroke="#000000" points="8.5,-165.7 8.5,-187.7 101.5,-187.7 101.5,-165.7 8.5,-165.7"/>
<image xlink:href="../../images/foreignKeys.png" width="11px" height="12px" preserveAspectRatio="xMinYMin meet" x="13.5" y="-182.7"/>
<text text-anchor="start" x="28.5" y="-172.8" font-family="Helvetica,sans-Serif" font-size="11.00" fill="#000000">created_by</text>
<polygon fill="#ffffff" stroke="transparent" points="8.5,-143.7 8.5,-165.7 101.5,-165.7 101.5,-143.7 8.5,-143.7"/>
<polygon fill="none" stroke="#000000" points="8.5,-143.7 8.5,-165.7 101.5,-165.7 101.5,-143.7 8.5,-143.7"/>
<image xlink:href="../../images/foreignKeys.png" width="11px" height="12px" preserveAspectRatio="xMinYMin meet" x="13.5" y="-160.7"/>
<text text-anchor="start" x="28.5" y="-150.8" font-family="Helvetica,sans-Serif" font-size="11.00" fill="#000000">updated_by</text>
<polygon fill="none" stroke="#000000" points="8.5,-124.7 8.5,-143.7 101.5,-143.7 101.5,-124.7 8.5,-124.7"/>
<text text-anchor="start" x="11.5" y="-130.8" font-family="Helvetica,sans-Serif" font-size="11.00" fill="#000000">...</text>
<polygon fill="#ffffff" stroke="transparent" points="8.5,-105.7 8.5,-124.7 101.5,-124.7 101.5,-105.7 8.5,-105.7"/>
<polygon fill="none" stroke="#000000" points="8.5,-105.7 8.5,-124.7 101.5,-124.7 101.5,-105.7 8.5,-105.7"/>
<polygon fill="#ffffff" stroke="transparent" points="9.5,-106.7 9.5,-123.7 41.5,-123.7 41.5,-106.7 9.5,-106.7"/>
<text text-anchor="start" x="11.5" y="-111.8" font-family="Helvetica,sans-Serif" font-size="11.00" fill="#000000">&lt; 2</text>
<polygon fill="#ffffff" stroke="transparent" points="41.5,-106.7 41.5,-123.7 63.5,-123.7 63.5,-106.7 41.5,-106.7"/>
<text text-anchor="start" x="49.4431" y="-111.8" font-family="Helvetica,sans-Serif" font-size="11.00" fill="#000000"> &#160;</text>
<polygon fill="#ffffff" stroke="transparent" points="63.5,-106.7 63.5,-123.7 100.5,-123.7 100.5,-106.7 63.5,-106.7"/>
<text text-anchor="start" x="76.7904" y="-111.8" font-family="Helvetica,sans-Serif" font-size="11.00" fill="#000000">24 &gt;</text>
<polygon fill="#000000" stroke="#000000" points="41.5,-106.7 41.5,-123.7 41.5,-123.7 41.5,-106.7 41.5,-106.7"/>
<polygon fill="#000000" stroke="#000000" points="63.5,-106.7 63.5,-123.7 63.5,-123.7 63.5,-106.7 63.5,-106.7"/>
</a>
</g>
</g>
<!-- orderdetails&#45;&gt;users -->
<g id="edge1" class="edge">
<title>orderdetails:w&#45;&gt;users:e</title>
<path fill="none" stroke="#000000" d="M296.5609,-184.9138C287.5621,-182.4823 281.5539,-178.2553 268,-176.7 212.3651,-170.316 196.2756,-162.9101 142,-176.7 122.1465,-181.7442 121.9843,-198.7 101.5,-198.7"/>
<polygon fill="#000000" stroke="#000000" points="303.0605,-185.7178 310.558,-190.2728 307.0303,-186.2089 311,-186.7 311,-186.7 311,-186.7 307.0303,-186.2089 311.442,-183.1272 303.0605,-185.7178 303.0605,-185.7178"/>
<ellipse fill="none" stroke="#000000" cx="299.8847" cy="-185.3249" rx="3.2" ry="3.2"/>
</g>
<!-- orderdetails&#45;&gt;users -->
<g id="edge4" class="edge">
<title>orderdetails:w&#45;&gt;users:e</title>
<path fill="none" stroke="#000000" d="M296.2921,-164.3818C232.4943,-161.5981 207.8588,-142.046 142,-165.7 120.1479,-173.5484 124.7188,-198.7 101.5,-198.7"/>
<polygon fill="#000000" stroke="#000000" points="303.0019,-164.5269 310.9221,-168.2992 307.0009,-164.6134 311,-164.7 311,-164.7 311,-164.7 307.0009,-164.6134 311.0779,-161.1008 303.0019,-164.5269 303.0019,-164.5269"/>
<ellipse fill="none" stroke="#000000" cx="299.8026" cy="-164.4577" rx="3.2" ry="3.2"/>
</g>
<!-- orders -->
<g id="node3" class="node">
<title>orders</title>
<g id="a_node3"><a xlink:href="../../tables/orders.html" xlink:title="orders" target="_top">
<polygon fill="#ffffff" stroke="transparent" points="156,-357.2 156,-506.2 254,-506.2 254,-357.2 156,-357.2"/>
<polygon fill="#f5f5f5" stroke="transparent" points="156,-482.7 156,-505.7 254,-505.7 254,-482.7 156,-482.7"/>
<polygon fill="none" stroke="#000000" points="156,-482.7 156,-505.7 254,-505.7 254,-482.7 156,-482.7"/>
<text text-anchor="start" x="161" y="-491.3" font-family="Helvetica,sans-Serif" font-weight="bold" font-size="11.00" fill="#000000">orders</text>
<text text-anchor="start" x="219.0437" y="-490.8" font-family="Helvetica,sans-Serif" font-size="11.00" fill="#000000">[table]</text>
<polygon fill="none" stroke="#000000" points="156,-460.7 156,-482.7 254,-482.7 254,-460.7 156,-460.7"/>
<image xlink:href="../../images/primaryKeys.png" width="11px" height="12px" preserveAspectRatio="xMinYMin meet" x="161" y="-477.7"/>
<text text-anchor="start" x="176" y="-467.8" font-family="Helvetica,sans-Serif" font-size="11.00" fill="#000000">order_id</text>
<polygon fill="none" stroke="#000000" points="156,-438.7 156,-460.7 254,-460.7 254,-438.7 156,-438.7"/>
<image xlink:href="../../images/foreignKeys.png" width="11px" height="12px" preserveAspectRatio="xMinYMin meet" x="161" y="-455.7"/>
<text text-anchor="start" x="176" y="-445.8" font-family="Helvetica,sans-Serif" font-size="11.00" fill="#000000">created_by</text>
<polygon fill="none" stroke="#000000" points="156,-416.7 156,-438.7 254,-438.7 254,-416.7 156,-416.7"/>
<image xlink:href="../../images/foreignKeys.png" width="11px" height="12px" preserveAspectRatio="xMinYMin meet" x="161" y="-433.7"/>
<text text-anchor="start" x="176" y="-423.8" font-family="Helvetica,sans-Serif" font-size="11.00" fill="#000000">updated_by</text>
<polygon fill="none" stroke="#000000" points="156,-394.7 156,-416.7 254,-416.7 254,-394.7 156,-394.7"/>
<image xlink:href="../../images/foreignKeys.png" width="11px" height="12px" preserveAspectRatio="xMinYMin meet" x="161" y="-411.7"/>
<text text-anchor="start" x="176" y="-401.8" font-family="Helvetica,sans-Serif" font-size="11.00" fill="#000000">customer_id</text>
<polygon fill="none" stroke="#000000" points="156,-375.7 156,-394.7 254,-394.7 254,-375.7 156,-375.7"/>
<text text-anchor="start" x="159" y="-381.8" font-family="Helvetica,sans-Serif" font-size="11.00" fill="#000000">...</text>
<polygon fill="#ffffff" stroke="transparent" points="156,-356.7 156,-375.7 254,-375.7 254,-356.7 156,-356.7"/>
<polygon fill="none" stroke="#000000" points="156,-356.7 156,-375.7 254,-375.7 254,-356.7 156,-356.7"/>
<polygon fill="#ffffff" stroke="transparent" points="157,-357.7 157,-374.7 192,-374.7 192,-357.7 157,-357.7"/>
<text text-anchor="start" x="159" y="-362.8" font-family="Helvetica,sans-Serif" font-size="11.00" fill="#000000">&lt; 3</text>
<polygon fill="#ffffff" stroke="transparent" points="192,-357.7 192,-374.7 218,-374.7 218,-357.7 192,-357.7"/>
<text text-anchor="start" x="201.9431" y="-362.8" font-family="Helvetica,sans-Serif" font-size="11.00" fill="#000000"> &#160;</text>
<polygon fill="#ffffff" stroke="transparent" points="218,-357.7 218,-374.7 253,-374.7 253,-357.7 218,-357.7"/>
<text text-anchor="start" x="235.4053" y="-362.8" font-family="Helvetica,sans-Serif" font-size="11.00" fill="#000000">1 &gt;</text>
<polygon fill="#000000" stroke="#000000" points="192,-357.7 192,-374.7 192,-374.7 192,-357.7 192,-357.7"/>
<polygon fill="#000000" stroke="#000000" points="218,-357.7 218,-374.7 218,-374.7 218,-357.7 218,-357.7"/>
</a>
</g>
</g>
<!-- orderdetails&#45;&gt;orders -->
<g id="edge2" class="edge">
<title>orderdetails:w&#45;&gt;orders:e</title>
<path fill="none" stroke="#000000" d="M296.4417,-343.9382C259.455,-364.1111 311.5423,-471.7 254,-471.7"/>
<polygon fill="#000000" stroke="#000000" points="303.1908,-342.437 311.7817,-344.2141 307.0954,-341.5685 311,-340.7 311,-340.7 311,-340.7 307.0954,-341.5685 310.2183,-337.1859 303.1908,-342.437 303.1908,-342.437"/>
<ellipse fill="none" stroke="#000000" cx="300.0672" cy="-343.1319" rx="3.2" ry="3.2"/>
</g>
<!-- products -->
<g id="node4" class="node">
<title>products</title>
<g id="a_node4"><a xlink:href="../../tables/products.html" xlink:title="products" target="_top">
<polygon fill="#ffffff" stroke="transparent" points="150,-187.2 150,-336.2 260,-336.2 260,-187.2 150,-187.2"/>
<polygon fill="#f5f5f5" stroke="transparent" points="150,-312.7 150,-335.7 260,-335.7 260,-312.7 150,-312.7"/>
<polygon fill="none" stroke="#000000" points="150,-312.7 150,-335.7 260,-335.7 260,-312.7 150,-312.7"/>
<text text-anchor="start" x="155" y="-321.3" font-family="Helvetica,sans-Serif" font-weight="bold" font-size="11.00" fill="#000000">products</text>
<text text-anchor="start" x="225.0437" y="-320.8" font-family="Helvetica,sans-Serif" font-size="11.00" fill="#000000">[table]</text>
<polygon fill="none" stroke="#000000" points="150,-290.7 150,-312.7 260,-312.7 260,-290.7 150,-290.7"/>
<image xlink:href="../../images/primaryKeys.png" width="11px" height="12px" preserveAspectRatio="xMinYMin meet" x="155" y="-307.7"/>
<text text-anchor="start" x="170" y="-297.8" font-family="Helvetica,sans-Serif" font-size="11.00" fill="#000000">product_id</text>
<polygon fill="#ffffff" stroke="transparent" points="150,-268.7 150,-290.7 260,-290.7 260,-268.7 150,-268.7"/>
<polygon fill="none" stroke="#000000" points="150,-268.7 150,-290.7 260,-290.7 260,-268.7 150,-268.7"/>
<image xlink:href="../../images/foreignKeys.png" width="11px" height="12px" preserveAspectRatio="xMinYMin meet" x="155" y="-285.7"/>
<text text-anchor="start" x="170" y="-275.8" font-family="Helvetica,sans-Serif" font-size="11.00" fill="#000000">site_id</text>
<polygon fill="#ffffff" stroke="transparent" points="150,-246.7 150,-268.7 260,-268.7 260,-246.7 150,-246.7"/>
<polygon fill="none" stroke="#000000" points="150,-246.7 150,-268.7 260,-268.7 260,-246.7 150,-246.7"/>
<image xlink:href="../../images/foreignKeys.png" width="11px" height="12px" preserveAspectRatio="xMinYMin meet" x="155" y="-263.7"/>
<text text-anchor="start" x="170" y="-253.8" font-family="Helvetica,sans-Serif" font-size="11.00" fill="#000000">created_by</text>
<polygon fill="#ffffff" stroke="transparent" points="150,-224.7 150,-246.7 260,-246.7 260,-224.7 150,-224.7"/>
<polygon fill="none" stroke="#000000" points="150,-224.7 150,-246.7 260,-246.7 260,-224.7 150,-224.7"/>
<image xlink:href="../../images/foreignKeys.png" width="11px" height="12px" preserveAspectRatio="xMinYMin meet" x="155" y="-241.7"/>
<text text-anchor="start" x="170" y="-231.8" font-family="Helvetica,sans-Serif" font-size="11.00" fill="#000000">updated_by</text>
<polygon fill="none" stroke="#000000" points="150,-205.7 150,-224.7 260,-224.7 260,-205.7 150,-205.7"/>
<text text-anchor="start" x="153" y="-211.8" font-family="Helvetica,sans-Serif" font-size="11.00" fill="#000000">...</text>
<polygon fill="#ffffff" stroke="transparent" points="150,-186.7 150,-205.7 260,-205.7 260,-186.7 150,-186.7"/>
<polygon fill="none" stroke="#000000" points="150,-186.7 150,-205.7 260,-205.7 260,-186.7 150,-186.7"/>
<polygon fill="#ffffff" stroke="transparent" points="151,-187.7 151,-204.7 190,-204.7 190,-187.7 151,-187.7"/>
<text text-anchor="start" x="153" y="-192.8" font-family="Helvetica,sans-Serif" font-size="11.00" fill="#000000">&lt; 3</text>
<polygon fill="#ffffff" stroke="transparent" points="190,-187.7 190,-204.7 220,-204.7 220,-187.7 190,-187.7"/>
<text text-anchor="start" x="201.9431" y="-192.8" font-family="Helvetica,sans-Serif" font-size="11.00" fill="#000000"> &#160;</text>
<polygon fill="#ffffff" stroke="transparent" points="220,-187.7 220,-204.7 259,-204.7 259,-187.7 220,-187.7"/>
<text text-anchor="start" x="241.4053" y="-192.8" font-family="Helvetica,sans-Serif" font-size="11.00" fill="#000000">1 &gt;</text>
<polygon fill="#000000" stroke="#000000" points="190,-187.7 190,-204.7 190,-204.7 190,-187.7 190,-187.7"/>
<polygon fill="#000000" stroke="#000000" points="220,-187.7 220,-204.7 220,-204.7 220,-187.7 220,-187.7"/>
</a>
</g>
</g>
<!-- orderdetails&#45;&gt;products -->
<g id="edge3" class="edge">
<title>orderdetails:w&#45;&gt;products:e</title>
<path fill="none" stroke="#000000" d="M297.3147,-257.222C282.4944,-269.3523 285.5395,-301.7 260,-301.7"/>
<polygon fill="#000000" stroke="#000000" points="303.4039,-255.21 312.1295,-256.1182 307.202,-253.955 311,-252.7 311,-252.7 311,-252.7 307.202,-253.955 309.8705,-249.2818 303.4039,-255.21 303.4039,-255.21"/>
<ellipse fill="none" stroke="#000000" cx="300.3655" cy="-256.214" rx="3.2" ry="3.2"/>
</g>
<!-- orders&#45;&gt;users -->
<g id="edge5" class="edge">
<title>orders:w&#45;&gt;users:e</title>
<path fill="none" stroke="#000000" d="M142.8325,-443.4955C109.0819,-404.8436 153.2265,-198.7 101.5,-198.7"/>
<polygon fill="#000000" stroke="#000000" points="148.7632,-446.29 154.4655,-452.9566 152.3816,-447.995 156,-449.7 156,-449.7 156,-449.7 152.3816,-447.995 157.5345,-446.4434 148.7632,-446.29 148.7632,-446.29"/>
<ellipse fill="none" stroke="#000000" cx="145.8684" cy="-444.926" rx="3.2" ry="3.2"/>
</g>
<!-- orders&#45;&gt;users -->
<g id="edge6" class="edge">
<title>orders:w&#45;&gt;users:e</title>
<path fill="none" stroke="#000000" d="M141.5364,-425.8567C66.9786,-404.1845 200.6033,-198.7 101.5,-198.7"/>
<polygon fill="#000000" stroke="#000000" points="148.0642,-426.6886 155.5449,-431.2711 152.0321,-427.1943 156,-427.7 156,-427.7 156,-427.7 152.0321,-427.1943 156.4551,-424.1289 148.0642,-426.6886 148.0642,-426.6886"/>
<ellipse fill="none" stroke="#000000" cx="144.8899" cy="-426.284" rx="3.2" ry="3.2"/>
</g>
<!-- products&#45;&gt;users -->
<g id="edge10" class="edge">
<title>products:w&#45;&gt;users:e</title>
<path fill="none" stroke="#000000" d="M136.2489,-252.6697C121.3013,-238.4018 129.3453,-198.7 101.5,-198.7"/>
<polygon fill="#000000" stroke="#000000" points="142.4869,-254.9516 148.7632,-261.0809 146.2435,-256.3258 150,-257.7 150,-257.7 150,-257.7 146.2435,-256.3258 151.2368,-254.3191 142.4869,-254.9516 142.4869,-254.9516"/>
<ellipse fill="none" stroke="#000000" cx="139.4817" cy="-253.8522" rx="3.2" ry="3.2"/>
</g>
<!-- products&#45;&gt;users -->
<g id="edge11" class="edge">
<title>products:w&#45;&gt;users:e</title>
<path fill="none" stroke="#000000" d="M136.2341,-231.1631C123.821,-221.283 122.6813,-198.7 101.5,-198.7"/>
<polygon fill="#000000" stroke="#000000" points="142.402,-233.1958 148.8731,-239.1191 146.201,-234.4479 150,-235.7 150,-235.7 150,-235.7 146.201,-234.4479 151.1269,-232.2809 142.402,-233.1958 142.402,-233.1958"/>
<ellipse fill="none" stroke="#000000" cx="139.3628" cy="-232.1942" rx="3.2" ry="3.2"/>
</g>
<!-- ordertickets -->
<g id="node5" class="node">
<title>ordertickets</title>
<g id="a_node5"><a xlink:href="../../tables/ordertickets.html" xlink:title="ordertickets" target="_top">
<polygon fill="#ffffff" stroke="transparent" points="560,-38.2 560,-187.2 673,-187.2 673,-38.2 560,-38.2"/>
<polygon fill="#f5f5f5" stroke="transparent" points="560.5,-163.7 560.5,-186.7 673.5,-186.7 673.5,-163.7 560.5,-163.7"/>
<polygon fill="none" stroke="#000000" points="560.5,-163.7 560.5,-186.7 673.5,-186.7 673.5,-163.7 560.5,-163.7"/>
<text text-anchor="start" x="565.5" y="-172.3" font-family="Helvetica,sans-Serif" font-weight="bold" font-size="11.00" fill="#000000">ordertickets</text>
<text text-anchor="start" x="639.0219" y="-171.8" font-family="Helvetica,sans-Serif" font-size="11.00" fill="#000000">[table]</text>
<polygon fill="none" stroke="#000000" points="560.5,-141.7 560.5,-163.7 673.5,-163.7 673.5,-141.7 560.5,-141.7"/>
<image xlink:href="../../images/primaryKeys.png" width="11px" height="12px" preserveAspectRatio="xMinYMin meet" x="565.5" y="-158.7"/>
<text text-anchor="start" x="584.5" y="-148.8" font-family="Helvetica,sans-Serif" font-size="11.00" fill="#000000">orderticket_id</text>
<polygon fill="none" stroke="#000000" points="560.5,-119.7 560.5,-141.7 673.5,-141.7 673.5,-119.7 560.5,-119.7"/>
<image xlink:href="../../images/foreignKeys.png" width="11px" height="12px" preserveAspectRatio="xMinYMin meet" x="565.5" y="-136.7"/>
<text text-anchor="start" x="584.5" y="-126.8" font-family="Helvetica,sans-Serif" font-size="11.00" fill="#000000">orderdetail_id</text>
<polygon fill="none" stroke="#000000" points="560.5,-97.7 560.5,-119.7 673.5,-119.7 673.5,-97.7 560.5,-97.7"/>
<image xlink:href="../../images/foreignKeys.png" width="11px" height="12px" preserveAspectRatio="xMinYMin meet" x="565.5" y="-114.7"/>
<text text-anchor="start" x="584.5" y="-104.8" font-family="Helvetica,sans-Serif" font-size="11.00" fill="#000000">created_by</text>
<polygon fill="none" stroke="#000000" points="560.5,-75.7 560.5,-97.7 673.5,-97.7 673.5,-75.7 560.5,-75.7"/>
<image xlink:href="../../images/foreignKeys.png" width="11px" height="12px" preserveAspectRatio="xMinYMin meet" x="565.5" y="-92.7"/>
<text text-anchor="start" x="584.5" y="-82.8" font-family="Helvetica,sans-Serif" font-size="11.00" fill="#000000">updated_by</text>
<polygon fill="none" stroke="#000000" points="560.5,-56.7 560.5,-75.7 673.5,-75.7 673.5,-56.7 560.5,-56.7"/>
<text text-anchor="start" x="563.5" y="-62.8" font-family="Helvetica,sans-Serif" font-size="11.00" fill="#000000">...</text>
<polygon fill="#ffffff" stroke="transparent" points="560.5,-37.7 560.5,-56.7 673.5,-56.7 673.5,-37.7 560.5,-37.7"/>
<polygon fill="none" stroke="#000000" points="560.5,-37.7 560.5,-56.7 673.5,-56.7 673.5,-37.7 560.5,-37.7"/>
<polygon fill="#ffffff" stroke="transparent" points="561.5,-38.7 561.5,-55.7 604.5,-55.7 604.5,-38.7 561.5,-38.7"/>
<text text-anchor="start" x="563.5" y="-43.8" font-family="Helvetica,sans-Serif" font-size="11.00" fill="#000000">&lt; 3</text>
<polygon fill="#ffffff" stroke="transparent" points="604.5,-38.7 604.5,-55.7 638.5,-55.7 638.5,-38.7 604.5,-38.7"/>
<text text-anchor="start" x="618.4431" y="-43.8" font-family="Helvetica,sans-Serif" font-size="11.00" fill="#000000"> &#160;</text>
<polygon fill="#ffffff" stroke="transparent" points="638.5,-38.7 638.5,-55.7 672.5,-55.7 672.5,-38.7 638.5,-38.7"/>
<text text-anchor="start" x="664.3862" y="-43.8" font-family="Helvetica,sans-Serif" font-size="11.00" fill="#000000"> &#160;</text>
<polygon fill="#000000" stroke="#000000" points="604.5,-38.7 604.5,-55.7 604.5,-55.7 604.5,-38.7 604.5,-38.7"/>
<polygon fill="#000000" stroke="#000000" points="638.5,-38.7 638.5,-55.7 638.5,-55.7 638.5,-38.7 638.5,-38.7"/>
</a>
</g>
</g>
<!-- ordertickets&#45;&gt;orderdetails -->
<g id="edge8" class="edge">
<title>ordertickets:w&#45;&gt;orderdetails:e</title>
<path fill="none" stroke="#000000" d="M545.9264,-132.5675C470.9888,-154.5236 609.0512,-362.7 509,-362.7"/>
<polygon fill="#000000" stroke="#000000" points="552.5649,-131.7169 560.9576,-134.2708 556.5324,-131.2084 560.5,-130.7 560.5,-130.7 560.5,-130.7 556.5324,-131.2084 560.0424,-127.1292 552.5649,-131.7169 552.5649,-131.7169"/>
<ellipse fill="none" stroke="#000000" cx="549.3908" cy="-132.1236" rx="3.2" ry="3.2"/>
</g>
<!-- ordertickets&#45;&gt;users -->
<g id="edge7" class="edge">
<title>ordertickets:w&#45;&gt;users:e</title>
<path fill="none" stroke="#000000" d="M545.9542,-108.5967C369.8343,-106.0989 299.755,-59.9293 142,-150.7 117.8065,-164.6207 129.4126,-198.7 101.5,-198.7"/>
<polygon fill="#000000" stroke="#000000" points="552.5002,-108.6432 560.4744,-112.2999 556.5001,-108.6716 560.5,-108.7 560.5,-108.7 560.5,-108.7 556.5001,-108.6716 560.5256,-105.1001 552.5002,-108.6432 552.5002,-108.6432"/>
<ellipse fill="none" stroke="#000000" cx="549.3003" cy="-108.6204" rx="3.2" ry="3.2"/>
</g>
<!-- ordertickets&#45;&gt;users -->
<g id="edge9" class="edge">
<title>ordertickets:w&#45;&gt;users:e</title>
<path fill="none" stroke="#000000" d="M545.9988,-86.5075C370.1491,-81.8369 290.3032,5.3614 142,-98.7 102.7479,-126.2424 149.4511,-198.7 101.5,-198.7"/>
<polygon fill="#000000" stroke="#000000" points="552.5007,-86.5938 560.4522,-90.2997 556.5004,-86.6469 560.5,-86.7 560.5,-86.7 560.5,-86.7 556.5004,-86.6469 560.5478,-83.1003 552.5007,-86.5938 552.5007,-86.5938"/>
<ellipse fill="none" stroke="#000000" cx="549.301" cy="-86.5513" rx="3.2" ry="3.2"/>
</g>
</g>
</svg>
