<?xml version="1.0" encoding="UTF-8" standalone="no"?>
<!DOCTYPE svg PUBLIC "-//W3C//DTD SVG 1.1//EN"
 "http://www.w3.org/Graphics/SVG/1.1/DTD/svg11.dtd">
<!-- Generated by graphviz version 2.40.1 (20161225.0304)
 -->
<!-- Title: oneDegreeRelationshipsDiagram Pages: 1 -->
<svg width="514pt" height="367pt"
 viewBox="0.00 0.00 514.00 366.70" xmlns="http://www.w3.org/2000/svg" xmlns:xlink="http://www.w3.org/1999/xlink">
<g id="graph0" class="graph" transform="scale(1 1) rotate(0) translate(4 362.7)">
<title>oneDegreeRelationshipsDiagram</title>
<polygon fill="#ffffff" stroke="transparent" points="-4,4 -4,-362.7 510,-362.7 510,4 -4,4"/>
<text text-anchor="middle" x="72.4936" y="-7.3" font-family="Helvetica,sans-Serif" font-size="11.00" fill="#000000">Generated by SchemaSpy</text>
<!-- products -->
<g id="node1" class="node">
<title>products</title>
<g id="a_node1"><a xlink:href="../../tables/products.html" xlink:title="products" target="_top">
<polygon fill="#ffffff" stroke="transparent" points="388,-38.2 388,-187.2 498,-187.2 498,-38.2 388,-38.2"/>
<polygon fill="#f5f5f5" stroke="transparent" points="388,-163.7 388,-186.7 498,-186.7 498,-163.7 388,-163.7"/>
<polygon fill="none" stroke="#000000" points="388,-163.7 388,-186.7 498,-186.7 498,-163.7 388,-163.7"/>
<text text-anchor="start" x="393" y="-172.3" font-family="Helvetica,sans-Serif" font-weight="bold" font-size="11.00" fill="#000000">products</text>
<text text-anchor="start" x="463.0437" y="-171.8" font-family="Helvetica,sans-Serif" font-size="11.00" fill="#000000">[table]</text>
<polygon fill="none" stroke="#000000" points="388,-141.7 388,-163.7 498,-163.7 498,-141.7 388,-141.7"/>
<image xlink:href="../../images/primaryKeys.png" width="11px" height="12px" preserveAspectRatio="xMinYMin meet" x="393" y="-158.7"/>
<text text-anchor="start" x="408" y="-148.8" font-family="Helvetica,sans-Serif" font-size="11.00" fill="#000000">product_id</text>
<polygon fill="#ffffff" stroke="transparent" points="388,-119.7 388,-141.7 498,-141.7 498,-119.7 388,-119.7"/>
<polygon fill="none" stroke="#000000" points="388,-119.7 388,-141.7 498,-141.7 498,-119.7 388,-119.7"/>
<image xlink:href="../../images/foreignKeys.png" width="11px" height="12px" preserveAspectRatio="xMinYMin meet" x="393" y="-136.7"/>
<text text-anchor="start" x="408" y="-126.8" font-family="Helvetica,sans-Serif" font-size="11.00" fill="#000000">site_id</text>
<polygon fill="#ffffff" stroke="transparent" points="388,-97.7 388,-119.7 498,-119.7 498,-97.7 388,-97.7"/>
<polygon fill="none" stroke="#000000" points="388,-97.7 388,-119.7 498,-119.7 498,-97.7 388,-97.7"/>
<image xlink:href="../../images/foreignKeys.png" width="11px" height="12px" preserveAspectRatio="xMinYMin meet" x="393" y="-114.7"/>
<text text-anchor="start" x="408" y="-104.8" font-family="Helvetica,sans-Serif" font-size="11.00" fill="#000000">created_by</text>
<polygon fill="#ffffff" stroke="transparent" points="388,-75.7 388,-97.7 498,-97.7 498,-75.7 388,-75.7"/>
<polygon fill="none" stroke="#000000" points="388,-75.7 388,-97.7 498,-97.7 498,-75.7 388,-75.7"/>
<image xlink:href="../../images/foreignKeys.png" width="11px" height="12px" preserveAspectRatio="xMinYMin meet" x="393" y="-92.7"/>
<text text-anchor="start" x="408" y="-82.8" font-family="Helvetica,sans-Serif" font-size="11.00" fill="#000000">updated_by</text>
<polygon fill="none" stroke="#000000" points="388,-56.7 388,-75.7 498,-75.7 498,-56.7 388,-56.7"/>
<text text-anchor="start" x="391" y="-62.8" font-family="Helvetica,sans-Serif" font-size="11.00" fill="#000000">...</text>
<polygon fill="#ffffff" stroke="transparent" points="388,-37.7 388,-56.7 498,-56.7 498,-37.7 388,-37.7"/>
<polygon fill="none" stroke="#000000" points="388,-37.7 388,-56.7 498,-56.7 498,-37.7 388,-37.7"/>
<polygon fill="#ffffff" stroke="transparent" points="389,-38.7 389,-55.7 428,-55.7 428,-38.7 389,-38.7"/>
<text text-anchor="start" x="391" y="-43.8" font-family="Helvetica,sans-Serif" font-size="11.00" fill="#000000">&lt; 3</text>
<polygon fill="#ffffff" stroke="transparent" points="428,-38.7 428,-55.7 458,-55.7 458,-38.7 428,-38.7"/>
<text text-anchor="start" x="439.9431" y="-43.8" font-family="Helvetica,sans-Serif" font-size="11.00" fill="#000000"> &#160;</text>
<polygon fill="#ffffff" stroke="transparent" points="458,-38.7 458,-55.7 497,-55.7 497,-38.7 458,-38.7"/>
<text text-anchor="start" x="479.4053" y="-43.8" font-family="Helvetica,sans-Serif" font-size="11.00" fill="#000000">1 &gt;</text>
<polygon fill="#000000" stroke="#000000" points="428,-38.7 428,-55.7 428,-55.7 428,-38.7 428,-38.7"/>
<polygon fill="#000000" stroke="#000000" points="458,-38.7 458,-55.7 458,-55.7 458,-38.7 458,-38.7"/>
</a>
</g>
</g>
<!-- users -->
<g id="node2" class="node">
<title>users</title>
<g id="a_node2"><a xlink:href="../../tables/users.html" xlink:title="users" target="_top">
<polygon fill="#ffffff" stroke="transparent" points="8,-55.2 8,-182.2 101,-182.2 101,-55.2 8,-55.2"/>
<polygon fill="#f5f5f5" stroke="transparent" points="8.5,-158.7 8.5,-181.7 101.5,-181.7 101.5,-158.7 8.5,-158.7"/>
<polygon fill="none" stroke="#000000" points="8.5,-158.7 8.5,-181.7 101.5,-181.7 101.5,-158.7 8.5,-158.7"/>
<text text-anchor="start" x="13.5" y="-167.3" font-family="Helvetica,sans-Serif" font-weight="bold" font-size="11.00" fill="#000000">users</text>
<text text-anchor="start" x="66.5437" y="-166.8" font-family="Helvetica,sans-Serif" font-size="11.00" fill="#000000">[table]</text>
<polygon fill="none" stroke="#000000" points="8.5,-136.7 8.5,-158.7 101.5,-158.7 101.5,-136.7 8.5,-136.7"/>
<image xlink:href="../../images/primaryKeys.png" width="11px" height="12px" preserveAspectRatio="xMinYMin meet" x="13.5" y="-153.7"/>
<text text-anchor="start" x="28.5" y="-143.8" font-family="Helvetica,sans-Serif" font-size="11.00" fill="#000000">user_id</text>
<polygon fill="#ffffff" stroke="transparent" points="8.5,-114.7 8.5,-136.7 101.5,-136.7 101.5,-114.7 8.5,-114.7"/>
<polygon fill="none" stroke="#000000" points="8.5,-114.7 8.5,-136.7 101.5,-136.7 101.5,-114.7 8.5,-114.7"/>
<image xlink:href="../../images/foreignKeys.png" width="11px" height="12px" preserveAspectRatio="xMinYMin meet" x="13.5" y="-131.7"/>
<text text-anchor="start" x="28.5" y="-121.8" font-family="Helvetica,sans-Serif" font-size="11.00" fill="#000000">created_by</text>
<polygon fill="#ffffff" stroke="transparent" points="8.5,-92.7 8.5,-114.7 101.5,-114.7 101.5,-92.7 8.5,-92.7"/>
<polygon fill="none" stroke="#000000" points="8.5,-92.7 8.5,-114.7 101.5,-114.7 101.5,-92.7 8.5,-92.7"/>
<image xlink:href="../../images/foreignKeys.png" width="11px" height="12px" preserveAspectRatio="xMinYMin meet" x="13.5" y="-109.7"/>
<text text-anchor="start" x="28.5" y="-99.8" font-family="Helvetica,sans-Serif" font-size="11.00" fill="#000000">updated_by</text>
<polygon fill="none" stroke="#000000" points="8.5,-73.7 8.5,-92.7 101.5,-92.7 101.5,-73.7 8.5,-73.7"/>
<text text-anchor="start" x="11.5" y="-79.8" font-family="Helvetica,sans-Serif" font-size="11.00" fill="#000000">...</text>
<polygon fill="#ffffff" stroke="transparent" points="8.5,-54.7 8.5,-73.7 101.5,-73.7 101.5,-54.7 8.5,-54.7"/>
<polygon fill="none" stroke="#000000" points="8.5,-54.7 8.5,-73.7 101.5,-73.7 101.5,-54.7 8.5,-54.7"/>
<polygon fill="#ffffff" stroke="transparent" points="9.5,-55.7 9.5,-72.7 41.5,-72.7 41.5,-55.7 9.5,-55.7"/>
<text text-anchor="start" x="11.5" y="-60.8" font-family="Helvetica,sans-Serif" font-size="11.00" fill="#000000">&lt; 2</text>
<polygon fill="#ffffff" stroke="transparent" points="41.5,-55.7 41.5,-72.7 63.5,-72.7 63.5,-55.7 41.5,-55.7"/>
<text text-anchor="start" x="49.4431" y="-60.8" font-family="Helvetica,sans-Serif" font-size="11.00" fill="#000000"> &#160;</text>
<polygon fill="#ffffff" stroke="transparent" points="63.5,-55.7 63.5,-72.7 100.5,-72.7 100.5,-55.7 63.5,-55.7"/>
<text text-anchor="start" x="76.7904" y="-60.8" font-family="Helvetica,sans-Serif" font-size="11.00" fill="#000000">28 &gt;</text>
<polygon fill="#000000" stroke="#000000" points="41.5,-55.7 41.5,-72.7 41.5,-72.7 41.5,-55.7 41.5,-55.7"/>
<polygon fill="#000000" stroke="#000000" points="63.5,-55.7 63.5,-72.7 63.5,-72.7 63.5,-55.7 63.5,-55.7"/>
</a>
</g>
</g>
<!-- products&#45;&gt;users -->
<g id="edge1" class="edge">
<title>products:w&#45;&gt;users:e</title>
<path fill="none" stroke="#000000" d="M373.3961,-108.5875C275.3968,-107.076 241.6635,-91.3301 142,-122.7 121.8227,-129.051 122.6532,-147.7 101.5,-147.7"/>
<polygon fill="#000000" stroke="#000000" points="380.0002,-108.6383 387.9722,-112.2999 384.0001,-108.6692 388,-108.7 388,-108.7 388,-108.7 384.0001,-108.6692 388.0278,-105.1001 380.0002,-108.6383 380.0002,-108.6383"/>
<ellipse fill="none" stroke="#000000" cx="376.8003" cy="-108.6137" rx="3.2" ry="3.2"/>
</g>
<!-- products&#45;&gt;users -->
<g id="edge3" class="edge">
<title>products:w&#45;&gt;users:e</title>
<path fill="none" stroke="#000000" d="M373.3585,-86.4937C274.8499,-83.7131 235.7065,-54.4833 142,-100.7 117.2699,-112.8971 129.0744,-147.7 101.5,-147.7"/>
<polygon fill="#000000" stroke="#000000" points="380.0008,-86.5872 387.9493,-90.2996 384.0004,-86.6436 388,-86.7 388,-86.7 388,-86.7 384.0004,-86.6436 388.0507,-83.1004 380.0008,-86.5872 380.0008,-86.5872"/>
<ellipse fill="none" stroke="#000000" cx="376.8011" cy="-86.5421" rx="3.2" ry="3.2"/>
</g>
<!-- sites -->
<g id="node3" class="node">
<title>sites</title>
<g id="a_node3"><a xlink:href="../../tables/sites.html" xlink:title="sites" target="_top">
<polygon fill="#ffffff" stroke="transparent" points="150,-132.7 150,-354.7 339,-354.7 339,-132.7 150,-132.7"/>
<polygon fill="#f5f5f5" stroke="transparent" points="152.5,-329.7 152.5,-352.7 337.5,-352.7 337.5,-329.7 152.5,-329.7"/>
<polygon fill="none" stroke="#000000" points="152.5,-329.7 152.5,-352.7 337.5,-352.7 337.5,-329.7 152.5,-329.7"/>
<text text-anchor="start" x="157.5" y="-338.3" font-family="Helvetica,sans-Serif" font-weight="bold" font-size="11.00" fill="#000000">sites</text>
<text text-anchor="start" x="302.5437" y="-337.8" font-family="Helvetica,sans-Serif" font-size="11.00" fill="#000000">[table]</text>
<polygon fill="none" stroke="#000000" points="152.5,-307.7 152.5,-329.7 245.5,-329.7 245.5,-307.7 152.5,-307.7"/>
<image xlink:href="../../images/primaryKeys.png" width="11px" height="12px" preserveAspectRatio="xMinYMin meet" x="157.5" y="-324.7"/>
<text text-anchor="start" x="172.5" y="-314.8" font-family="Helvetica,sans-Serif" font-size="11.00" fill="#000000">site_id</text>
<polygon fill="none" stroke="#000000" points="245.5,-307.7 245.5,-329.7 337.5,-329.7 337.5,-307.7 245.5,-307.7"/>
<text text-anchor="start" x="248.5" y="-315.4" font-family="Helvetica,sans-Serif" font-size="11.00" fill="#000000">int8[19]</text>
<polygon fill="none" stroke="#000000" points="152.5,-285.7 152.5,-307.7 245.5,-307.7 245.5,-285.7 152.5,-285.7"/>
<text text-anchor="start" x="172.5" y="-292.8" font-family="Helvetica,sans-Serif" font-size="11.00" fill="#000000">site_code</text>
<polygon fill="none" stroke="#000000" points="245.5,-285.7 245.5,-307.7 337.5,-307.7 337.5,-285.7 245.5,-285.7"/>
<text text-anchor="start" x="248.5" y="-293.4" font-family="Helvetica,sans-Serif" font-size="11.00" fill="#000000">varchar[40]</text>
<polygon fill="none" stroke="#000000" points="152.5,-263.7 152.5,-285.7 245.5,-285.7 245.5,-263.7 152.5,-263.7"/>
<text text-anchor="start" x="172.5" y="-270.8" font-family="Helvetica,sans-Serif" font-size="11.00" fill="#000000">name</text>
<polygon fill="none" stroke="#000000" points="245.5,-263.7 245.5,-285.7 337.5,-285.7 337.5,-263.7 245.5,-263.7"/>
<text text-anchor="start" x="248.5" y="-271.4" font-family="Helvetica,sans-Serif" font-size="11.00" fill="#000000">text[2147483647]</text>
<polygon fill="none" stroke="#000000" points="152.5,-241.7 152.5,-263.7 245.5,-263.7 245.5,-241.7 152.5,-241.7"/>
<text text-anchor="start" x="172.5" y="-248.8" font-family="Helvetica,sans-Serif" font-size="11.00" fill="#000000">created</text>
<polygon fill="none" stroke="#000000" points="245.5,-241.7 245.5,-263.7 337.5,-263.7 337.5,-241.7 245.5,-241.7"/>
<text text-anchor="start" x="248.1023" y="-249.4" font-family="Helvetica,sans-Serif" font-size="11.00" fill="#000000">timestamptz[35,6]</text>
<polygon fill="none" stroke="#000000" points="152.5,-219.7 152.5,-241.7 245.5,-241.7 245.5,-219.7 152.5,-219.7"/>
<text text-anchor="start" x="172.5" y="-226.8" font-family="Helvetica,sans-Serif" font-size="11.00" fill="#000000">updated</text>
<polygon fill="none" stroke="#000000" points="245.5,-219.7 245.5,-241.7 337.5,-241.7 337.5,-219.7 245.5,-219.7"/>
<text text-anchor="start" x="248.1023" y="-227.4" font-family="Helvetica,sans-Serif" font-size="11.00" fill="#000000">timestamptz[35,6]</text>
<polygon fill="#ffffff" stroke="transparent" points="152.5,-197.7 152.5,-219.7 245.5,-219.7 245.5,-197.7 152.5,-197.7"/>
<polygon fill="none" stroke="#000000" points="152.5,-197.7 152.5,-219.7 245.5,-219.7 245.5,-197.7 152.5,-197.7"/>
<image xlink:href="../../images/foreignKeys.png" width="11px" height="12px" preserveAspectRatio="xMinYMin meet" x="157.5" y="-214.7"/>
<text text-anchor="start" x="172.5" y="-204.8" font-family="Helvetica,sans-Serif" font-size="11.00" fill="#000000">created_by</text>
<polygon fill="none" stroke="#000000" points="245.5,-197.7 245.5,-219.7 337.5,-219.7 337.5,-197.7 245.5,-197.7"/>
<text text-anchor="start" x="248.5" y="-205.4" font-family="Helvetica,sans-Serif" font-size="11.00" fill="#000000">int8[19]</text>
<polygon fill="#ffffff" stroke="transparent" points="152.5,-175.7 152.5,-197.7 245.5,-197.7 245.5,-175.7 152.5,-175.7"/>
<polygon fill="none" stroke="#000000" points="152.5,-175.7 152.5,-197.7 245.5,-197.7 245.5,-175.7 152.5,-175.7"/>
<image xlink:href="../../images/foreignKeys.png" width="11px" height="12px" preserveAspectRatio="xMinYMin meet" x="157.5" y="-192.7"/>
<text text-anchor="start" x="172.5" y="-182.8" font-family="Helvetica,sans-Serif" font-size="11.00" fill="#000000">updated_by</text>
<polygon fill="none" stroke="#000000" points="245.5,-175.7 245.5,-197.7 337.5,-197.7 337.5,-175.7 245.5,-175.7"/>
<text text-anchor="start" x="248.5" y="-183.4" font-family="Helvetica,sans-Serif" font-size="11.00" fill="#000000">int8[19]</text>
<polygon fill="none" stroke="#000000" points="152.5,-153.7 152.5,-175.7 245.5,-175.7 245.5,-153.7 152.5,-153.7"/>
<text text-anchor="start" x="172.5" y="-160.8" font-family="Helvetica,sans-Serif" font-size="11.00" fill="#000000">seqno</text>
<polygon fill="none" stroke="#000000" points="245.5,-153.7 245.5,-175.7 337.5,-175.7 337.5,-153.7 245.5,-153.7"/>
<text text-anchor="start" x="248.5" y="-161.4" font-family="Helvetica,sans-Serif" font-size="11.00" fill="#000000">int8[19]</text>
<polygon fill="#ffffff" stroke="transparent" points="152.5,-134.7 152.5,-153.7 337.5,-153.7 337.5,-134.7 152.5,-134.7"/>
<polygon fill="none" stroke="#000000" points="152.5,-134.7 152.5,-153.7 337.5,-153.7 337.5,-134.7 152.5,-134.7"/>
<polygon fill="#ffffff" stroke="transparent" points="153.5,-135.7 153.5,-152.7 217.5,-152.7 217.5,-135.7 153.5,-135.7"/>
<text text-anchor="start" x="155.5" y="-140.8" font-family="Helvetica,sans-Serif" font-size="11.00" fill="#000000">&lt; 2</text>
<polygon fill="#ffffff" stroke="transparent" points="217.5,-135.7 217.5,-152.7 272.5,-152.7 272.5,-135.7 217.5,-135.7"/>
<text text-anchor="start" x="241.9431" y="-140.8" font-family="Helvetica,sans-Serif" font-size="11.00" fill="#000000"> &#160;</text>
<polygon fill="#ffffff" stroke="transparent" points="272.5,-135.7 272.5,-152.7 336.5,-152.7 336.5,-135.7 272.5,-135.7"/>
<text text-anchor="start" x="318.9053" y="-140.8" font-family="Helvetica,sans-Serif" font-size="11.00" fill="#000000">1 &gt;</text>
<polygon fill="#000000" stroke="#000000" points="217.5,-135.7 217.5,-152.7 217.5,-152.7 217.5,-135.7 217.5,-135.7"/>
<polygon fill="#000000" stroke="#000000" points="272.5,-135.7 272.5,-152.7 272.5,-152.7 272.5,-135.7 272.5,-135.7"/>
<polygon fill="none" stroke="#000000" stroke-width="2" points="151,-133.7 151,-353.7 338,-353.7 338,-133.7 151,-133.7"/>
</a>
</g>
</g>
<!-- products&#45;&gt;sites -->
<g id="edge2" class="edge">
<title>products:w&#45;&gt;sites:e</title>
<path fill="none" stroke="#000000" d="M373.7644,-132.9423C316.4096,-154.1534 418.4412,-318.7 337.5,-318.7"/>
<polygon fill="#000000" stroke="#000000" points="380.0974,-131.9448 388.5602,-134.2562 384.0487,-131.3224 388,-130.7 388,-130.7 388,-130.7 384.0487,-131.3224 387.4398,-127.1438 380.0974,-131.9448 380.0974,-131.9448"/>
<ellipse fill="none" stroke="#000000" cx="376.9364" cy="-132.4427" rx="3.2" ry="3.2"/>
</g>
<!-- sites&#45;&gt;users -->
<g id="edge4" class="edge">
<title>sites:w&#45;&gt;users:e</title>
<path fill="none" stroke="#000000" d="M138.5956,-203.9134C122.3004,-189.5333 130.7645,-147.7 101.5,-147.7"/>
<polygon fill="#000000" stroke="#000000" points="144.9357,-206.0959 151.3282,-212.104 148.7178,-207.398 152.5,-208.7 152.5,-208.7 152.5,-208.7 148.7178,-207.398 153.6718,-205.296 144.9357,-206.0959 144.9357,-206.0959"/>
<ellipse fill="none" stroke="#000000" cx="141.9099" cy="-205.0543" rx="3.2" ry="3.2"/>
</g>
<!-- sites&#45;&gt;users -->
<g id="edge5" class="edge">
<title>sites:w&#45;&gt;users:e</title>
<path fill="none" stroke="#000000" d="M138.4125,-182.2262C124.9862,-171.9822 124.0156,-147.7 101.5,-147.7"/>
<polygon fill="#000000" stroke="#000000" points="144.8752,-184.2786 151.4104,-190.1311 148.6876,-185.4893 152.5,-186.7 152.5,-186.7 152.5,-186.7 148.6876,-185.4893 153.5896,-183.2689 144.8752,-184.2786 144.8752,-184.2786"/>
<ellipse fill="none" stroke="#000000" cx="141.8253" cy="-183.31" rx="3.2" ry="3.2"/>
</g>
</g>
</svg>
