<?xml version="1.0" encoding="UTF-8" standalone="no"?>
<!DOCTYPE svg PUBLIC "-//W3C//DTD SVG 1.1//EN"
 "http://www.w3.org/Graphics/SVG/1.1/DTD/svg11.dtd">
<!-- Generated by graphviz version 2.40.1 (20161225.0304)
 -->
<!-- Title: oneDegreeRelationshipsDiagram Pages: 1 -->
<svg width="247pt" height="250pt"
 viewBox="0.00 0.00 247.00 250.20" xmlns="http://www.w3.org/2000/svg" xmlns:xlink="http://www.w3.org/1999/xlink">
<g id="graph0" class="graph" transform="scale(1 1) rotate(0) translate(4 246.2)">
<title>oneDegreeRelationshipsDiagram</title>
<polygon fill="#ffffff" stroke="transparent" points="-4,4 -4,-246.2 243,-246.2 243,4 -4,4"/>
<text text-anchor="middle" x="72.4936" y="-7.3" font-family="Helvetica,sans-Serif" font-size="11.00" fill="#000000">Generated by SchemaSpy</text>
<!-- systemsetting -->
<g id="node1" class="node">
<title>systemsetting</title>
<g id="a_node1"><a xlink:href="../../tables/systemsetting.html" xlink:title="systemsetting" target="_top">
<polygon fill="#ffffff" stroke="transparent" points="8,-38.2 8,-238.2 231,-238.2 231,-38.2 8,-38.2"/>
<polygon fill="#f5f5f5" stroke="transparent" points="10.5,-213.2 10.5,-236.2 229.5,-236.2 229.5,-213.2 10.5,-213.2"/>
<polygon fill="none" stroke="#000000" points="10.5,-213.2 10.5,-236.2 229.5,-236.2 229.5,-213.2 10.5,-213.2"/>
<text text-anchor="start" x="15.5" y="-221.8" font-family="Helvetica,sans-Serif" font-weight="bold" font-size="11.00" fill="#000000">systemsetting</text>
<text text-anchor="start" x="194.5437" y="-221.3" font-family="Helvetica,sans-Serif" font-size="11.00" fill="#000000">[table]</text>
<polygon fill="none" stroke="#000000" points="10.5,-191.2 10.5,-213.2 137.5,-213.2 137.5,-191.2 10.5,-191.2"/>
<image xlink:href="../../images/primaryKeys.png" width="11px" height="12px" preserveAspectRatio="xMinYMin meet" x="15.5" y="-208.2"/>
<text text-anchor="start" x="30.5" y="-198.3" font-family="Helvetica,sans-Serif" font-size="11.00" fill="#000000">systemsetting_id</text>
<polygon fill="none" stroke="#000000" points="137.5,-191.2 137.5,-213.2 229.5,-213.2 229.5,-191.2 137.5,-191.2"/>
<text text-anchor="start" x="140.5" y="-198.9" font-family="Helvetica,sans-Serif" font-size="11.00" fill="#000000">int8[19]</text>
<polygon fill="none" stroke="#000000" points="10.5,-169.2 10.5,-191.2 137.5,-191.2 137.5,-169.2 10.5,-169.2"/>
<text text-anchor="start" x="30.5" y="-176.3" font-family="Helvetica,sans-Serif" font-size="11.00" fill="#000000">description</text>
<polygon fill="none" stroke="#000000" points="137.5,-169.2 137.5,-191.2 229.5,-191.2 229.5,-169.2 137.5,-169.2"/>
<text text-anchor="start" x="140.5" y="-176.9" font-family="Helvetica,sans-Serif" font-size="11.00" fill="#000000">text[2147483647]</text>
<polygon fill="none" stroke="#000000" points="10.5,-147.2 10.5,-169.2 137.5,-169.2 137.5,-147.2 10.5,-147.2"/>
<text text-anchor="start" x="30.5" y="-154.3" font-family="Helvetica,sans-Serif" font-size="11.00" fill="#000000">created</text>
<polygon fill="none" stroke="#000000" points="137.5,-147.2 137.5,-169.2 229.5,-169.2 229.5,-147.2 137.5,-147.2"/>
<text text-anchor="start" x="140.1023" y="-154.9" font-family="Helvetica,sans-Serif" font-size="11.00" fill="#000000">timestamptz[35,6]</text>
<polygon fill="none" stroke="#000000" points="10.5,-125.2 10.5,-147.2 137.5,-147.2 137.5,-125.2 10.5,-125.2"/>
<text text-anchor="start" x="30.5" y="-132.3" font-family="Helvetica,sans-Serif" font-size="11.00" fill="#000000">updated</text>
<polygon fill="none" stroke="#000000" points="137.5,-125.2 137.5,-147.2 229.5,-147.2 229.5,-125.2 137.5,-125.2"/>
<text text-anchor="start" x="140.1023" y="-132.9" font-family="Helvetica,sans-Serif" font-size="11.00" fill="#000000">timestamptz[35,6]</text>
<polygon fill="none" stroke="#000000" points="10.5,-103.2 10.5,-125.2 137.5,-125.2 137.5,-103.2 10.5,-103.2"/>
<text text-anchor="start" x="30.5" y="-110.3" font-family="Helvetica,sans-Serif" font-size="11.00" fill="#000000">created_by</text>
<polygon fill="none" stroke="#000000" points="137.5,-103.2 137.5,-125.2 229.5,-125.2 229.5,-103.2 137.5,-103.2"/>
<text text-anchor="start" x="140.5" y="-110.9" font-family="Helvetica,sans-Serif" font-size="11.00" fill="#000000">int8[19]</text>
<polygon fill="none" stroke="#000000" points="10.5,-81.2 10.5,-103.2 137.5,-103.2 137.5,-81.2 10.5,-81.2"/>
<text text-anchor="start" x="30.5" y="-88.3" font-family="Helvetica,sans-Serif" font-size="11.00" fill="#000000">updated_by</text>
<polygon fill="none" stroke="#000000" points="137.5,-81.2 137.5,-103.2 229.5,-103.2 229.5,-81.2 137.5,-81.2"/>
<text text-anchor="start" x="140.5" y="-88.9" font-family="Helvetica,sans-Serif" font-size="11.00" fill="#000000">int8[19]</text>
<polygon fill="none" stroke="#000000" points="10.5,-59.2 10.5,-81.2 137.5,-81.2 137.5,-59.2 10.5,-59.2"/>
<text text-anchor="start" x="30.5" y="-66.3" font-family="Helvetica,sans-Serif" font-size="11.00" fill="#000000">revsharing_pct</text>
<polygon fill="none" stroke="#000000" points="137.5,-59.2 137.5,-81.2 229.5,-81.2 229.5,-59.2 137.5,-59.2"/>
<text text-anchor="start" x="140.5" y="-66.9" font-family="Helvetica,sans-Serif" font-size="11.00" fill="#000000">numeric[5,2]</text>
<polygon fill="#ffffff" stroke="transparent" points="10.5,-40.2 10.5,-59.2 229.5,-59.2 229.5,-40.2 10.5,-40.2"/>
<polygon fill="none" stroke="#000000" points="10.5,-40.2 10.5,-59.2 229.5,-59.2 229.5,-40.2 10.5,-40.2"/>
<polygon fill="#ffffff" stroke="transparent" points="11.5,-41.2 11.5,-58.2 80.5,-58.2 80.5,-41.2 11.5,-41.2"/>
<text text-anchor="start" x="13.5" y="-46.3" font-family="Helvetica,sans-Serif" font-size="11.00" fill="#000000">&lt; 0</text>
<polygon fill="#ffffff" stroke="transparent" points="80.5,-41.2 80.5,-58.2 160.5,-58.2 160.5,-41.2 80.5,-41.2"/>
<text text-anchor="start" x="107.0553" y="-46.3" font-family="Helvetica,sans-Serif" font-size="11.00" fill="#000000">1 row</text>
<polygon fill="#ffffff" stroke="transparent" points="160.5,-41.2 160.5,-58.2 228.5,-58.2 228.5,-41.2 160.5,-41.2"/>
<text text-anchor="start" x="210.9053" y="-46.3" font-family="Helvetica,sans-Serif" font-size="11.00" fill="#000000">0 &gt;</text>
<polygon fill="#000000" stroke="#000000" points="80.5,-41.2 80.5,-58.2 80.5,-58.2 80.5,-41.2 80.5,-41.2"/>
<polygon fill="#000000" stroke="#000000" points="160.5,-41.2 160.5,-58.2 160.5,-58.2 160.5,-41.2 160.5,-41.2"/>
<polygon fill="none" stroke="#000000" stroke-width="2" points="9,-39.2 9,-237.2 230,-237.2 230,-39.2 9,-39.2"/>
</a>
</g>
</g>
</g>
</svg>
