<?xml version="1.0" encoding="UTF-8" standalone="no"?>
<!DOCTYPE svg PUBLIC "-//W3C//DTD SVG 1.1//EN"
 "http://www.w3.org/Graphics/SVG/1.1/DTD/svg11.dtd">
<!-- Generated by graphviz version 2.40.1 (20161225.0304)
 -->
<!-- Title: twoDegreesRelationshipsDiagram Pages: 1 -->
<svg width="416pt" height="518pt"
 viewBox="0.00 0.00 415.58 518.20" xmlns="http://www.w3.org/2000/svg" xmlns:xlink="http://www.w3.org/1999/xlink">
<g id="graph0" class="graph" transform="scale(1 1) rotate(0) translate(4 514.2)">
<title>twoDegreesRelationshipsDiagram</title>
<polygon fill="#ffffff" stroke="transparent" points="-4,4 -4,-514.2 411.5848,-514.2 411.5848,4 -4,4"/>
<text text-anchor="middle" x="72.4936" y="-7.3" font-family="Helvetica,sans-Serif" font-size="11.00" fill="#000000">Generated by SchemaSpy</text>
<!-- refresh_tokens -->
<g id="node1" class="node">
<title>refresh_tokens</title>
<g id="a_node1"><a xlink:href="../../tables/refresh_tokens.html" xlink:title="refresh_tokens" target="_top">
<polygon fill="#ffffff" stroke="transparent" points="267.5848,-209.2 267.5848,-336.2 399.5848,-336.2 399.5848,-209.2 267.5848,-209.2"/>
<polygon fill="#f5f5f5" stroke="transparent" points="267.5848,-312.7 267.5848,-335.7 399.5848,-335.7 399.5848,-312.7 267.5848,-312.7"/>
<polygon fill="none" stroke="#000000" points="267.5848,-312.7 267.5848,-335.7 399.5848,-335.7 399.5848,-312.7 267.5848,-312.7"/>
<text text-anchor="start" x="272.5848" y="-321.3" font-family="Helvetica,sans-Serif" font-weight="bold" font-size="11.00" fill="#000000">refresh_tokens</text>
<text text-anchor="start" x="365.1067" y="-320.8" font-family="Helvetica,sans-Serif" font-size="11.00" fill="#000000">[table]</text>
<polygon fill="none" stroke="#000000" points="267.5848,-290.7 267.5848,-312.7 399.5848,-312.7 399.5848,-290.7 267.5848,-290.7"/>
<image xlink:href="../../images/primaryKeys.png" width="11px" height="12px" preserveAspectRatio="xMinYMin meet" x="272.585" y="-307.7"/>
<text text-anchor="start" x="296.5848" y="-297.8" font-family="Helvetica,sans-Serif" font-size="11.00" fill="#000000">id</text>
<polygon fill="#ffffff" stroke="transparent" points="267.5848,-268.7 267.5848,-290.7 399.5848,-290.7 399.5848,-268.7 267.5848,-268.7"/>
<polygon fill="none" stroke="#000000" points="267.5848,-268.7 267.5848,-290.7 399.5848,-290.7 399.5848,-268.7 267.5848,-268.7"/>
<text text-anchor="start" x="296.5848" y="-275.8" font-family="Helvetica,sans-Serif" font-size="11.00" fill="#000000">token</text>
<polygon fill="#ffffff" stroke="transparent" points="267.5848,-246.7 267.5848,-268.7 399.5848,-268.7 399.5848,-246.7 267.5848,-246.7"/>
<polygon fill="none" stroke="#000000" points="267.5848,-246.7 267.5848,-268.7 399.5848,-268.7 399.5848,-246.7 267.5848,-246.7"/>
<image xlink:href="../../images/foreignKeys.png" width="11px" height="12px" preserveAspectRatio="xMinYMin meet" x="272.585" y="-263.7"/>
<text text-anchor="start" x="296.5848" y="-253.8" font-family="Helvetica,sans-Serif" font-size="11.00" fill="#000000">user_id</text>
<polygon fill="none" stroke="#000000" points="267.5848,-227.7 267.5848,-246.7 399.5848,-246.7 399.5848,-227.7 267.5848,-227.7"/>
<text text-anchor="start" x="270.5848" y="-233.8" font-family="Helvetica,sans-Serif" font-size="11.00" fill="#000000">...</text>
<polygon fill="#ffffff" stroke="transparent" points="267.5848,-208.7 267.5848,-227.7 399.5848,-227.7 399.5848,-208.7 267.5848,-208.7"/>
<polygon fill="none" stroke="#000000" points="267.5848,-208.7 267.5848,-227.7 399.5848,-227.7 399.5848,-208.7 267.5848,-208.7"/>
<polygon fill="#ffffff" stroke="transparent" points="268.5848,-209.7 268.5848,-226.7 318.5848,-226.7 318.5848,-209.7 268.5848,-209.7"/>
<text text-anchor="start" x="270.5848" y="-214.8" font-family="Helvetica,sans-Serif" font-size="11.00" fill="#000000">&lt; 1</text>
<polygon fill="#ffffff" stroke="transparent" points="318.5848,-209.7 318.5848,-226.7 358.5848,-226.7 358.5848,-209.7 318.5848,-209.7"/>
<text text-anchor="start" x="335.5279" y="-214.8" font-family="Helvetica,sans-Serif" font-size="11.00" fill="#000000"> &#160;</text>
<polygon fill="#ffffff" stroke="transparent" points="358.5848,-209.7 358.5848,-226.7 398.5848,-226.7 398.5848,-209.7 358.5848,-209.7"/>
<text text-anchor="start" x="390.471" y="-214.8" font-family="Helvetica,sans-Serif" font-size="11.00" fill="#000000"> &#160;</text>
<polygon fill="#000000" stroke="#000000" points="318.5848,-209.7 318.5848,-226.7 318.5848,-226.7 318.5848,-209.7 318.5848,-209.7"/>
<polygon fill="#000000" stroke="#000000" points="358.5848,-209.7 358.5848,-226.7 358.5848,-226.7 358.5848,-209.7 358.5848,-209.7"/>
</a>
</g>
</g>
<!-- users -->
<g id="node2" class="node">
<title>users</title>
<g id="a_node2"><a xlink:href="../../tables/users.html" xlink:title="users" target="_top">
<polygon fill="#ffffff" stroke="transparent" points="29.5848,-120.7 29.5848,-364.7 218.5848,-364.7 218.5848,-120.7 29.5848,-120.7"/>
<polygon fill="#f5f5f5" stroke="transparent" points="32.0848,-339.7 32.0848,-362.7 217.0848,-362.7 217.0848,-339.7 32.0848,-339.7"/>
<polygon fill="none" stroke="#000000" points="32.0848,-339.7 32.0848,-362.7 217.0848,-362.7 217.0848,-339.7 32.0848,-339.7"/>
<text text-anchor="start" x="37.0848" y="-348.3" font-family="Helvetica,sans-Serif" font-weight="bold" font-size="11.00" fill="#000000">users</text>
<text text-anchor="start" x="182.1285" y="-347.8" font-family="Helvetica,sans-Serif" font-size="11.00" fill="#000000">[table]</text>
<polygon fill="none" stroke="#000000" points="32.0848,-317.7 32.0848,-339.7 125.0848,-339.7 125.0848,-317.7 32.0848,-317.7"/>
<image xlink:href="../../images/primaryKeys.png" width="11px" height="12px" preserveAspectRatio="xMinYMin meet" x="37.0848" y="-334.7"/>
<text text-anchor="start" x="52.0848" y="-324.8" font-family="Helvetica,sans-Serif" font-size="11.00" fill="#000000">user_id</text>
<polygon fill="none" stroke="#000000" points="125.0848,-317.7 125.0848,-339.7 217.0848,-339.7 217.0848,-317.7 125.0848,-317.7"/>
<text text-anchor="start" x="128.0848" y="-325.4" font-family="Helvetica,sans-Serif" font-size="11.00" fill="#000000">int8[19]</text>
<polygon fill="none" stroke="#000000" points="32.0848,-295.7 32.0848,-317.7 125.0848,-317.7 125.0848,-295.7 32.0848,-295.7"/>
<text text-anchor="start" x="52.0848" y="-302.8" font-family="Helvetica,sans-Serif" font-size="11.00" fill="#000000">email</text>
<polygon fill="none" stroke="#000000" points="125.0848,-295.7 125.0848,-317.7 217.0848,-317.7 217.0848,-295.7 125.0848,-295.7"/>
<text text-anchor="start" x="128.0848" y="-303.4" font-family="Helvetica,sans-Serif" font-size="11.00" fill="#000000">varchar[100]</text>
<polygon fill="none" stroke="#000000" points="32.0848,-273.7 32.0848,-295.7 125.0848,-295.7 125.0848,-273.7 32.0848,-273.7"/>
<text text-anchor="start" x="52.0848" y="-280.8" font-family="Helvetica,sans-Serif" font-size="11.00" fill="#000000">nickname</text>
<polygon fill="none" stroke="#000000" points="125.0848,-273.7 125.0848,-295.7 217.0848,-295.7 217.0848,-273.7 125.0848,-273.7"/>
<text text-anchor="start" x="128.0848" y="-281.4" font-family="Helvetica,sans-Serif" font-size="11.00" fill="#000000">varchar[100]</text>
<polygon fill="none" stroke="#000000" points="32.0848,-251.7 32.0848,-273.7 125.0848,-273.7 125.0848,-251.7 32.0848,-251.7"/>
<text text-anchor="start" x="52.0848" y="-258.8" font-family="Helvetica,sans-Serif" font-size="11.00" fill="#000000">password</text>
<polygon fill="none" stroke="#000000" points="125.0848,-251.7 125.0848,-273.7 217.0848,-273.7 217.0848,-251.7 125.0848,-251.7"/>
<text text-anchor="start" x="128.0848" y="-259.4" font-family="Helvetica,sans-Serif" font-size="11.00" fill="#000000">text[2147483647]</text>
<polygon fill="none" stroke="#000000" points="32.0848,-229.7 32.0848,-251.7 125.0848,-251.7 125.0848,-229.7 32.0848,-229.7"/>
<text text-anchor="start" x="52.0848" y="-236.8" font-family="Helvetica,sans-Serif" font-size="11.00" fill="#000000">created</text>
<polygon fill="none" stroke="#000000" points="125.0848,-229.7 125.0848,-251.7 217.0848,-251.7 217.0848,-229.7 125.0848,-229.7"/>
<text text-anchor="start" x="127.6871" y="-237.4" font-family="Helvetica,sans-Serif" font-size="11.00" fill="#000000">timestamptz[35,6]</text>
<polygon fill="none" stroke="#000000" points="32.0848,-207.7 32.0848,-229.7 125.0848,-229.7 125.0848,-207.7 32.0848,-207.7"/>
<text text-anchor="start" x="52.0848" y="-214.8" font-family="Helvetica,sans-Serif" font-size="11.00" fill="#000000">updated</text>
<polygon fill="none" stroke="#000000" points="125.0848,-207.7 125.0848,-229.7 217.0848,-229.7 217.0848,-207.7 125.0848,-207.7"/>
<text text-anchor="start" x="127.6871" y="-215.4" font-family="Helvetica,sans-Serif" font-size="11.00" fill="#000000">timestamptz[35,6]</text>
<polygon fill="#ffffff" stroke="transparent" points="32.0848,-185.7 32.0848,-207.7 125.0848,-207.7 125.0848,-185.7 32.0848,-185.7"/>
<polygon fill="none" stroke="#000000" points="32.0848,-185.7 32.0848,-207.7 125.0848,-207.7 125.0848,-185.7 32.0848,-185.7"/>
<image xlink:href="../../images/foreignKeys.png" width="11px" height="12px" preserveAspectRatio="xMinYMin meet" x="37.0848" y="-202.7"/>
<text text-anchor="start" x="52.0848" y="-192.8" font-family="Helvetica,sans-Serif" font-size="11.00" fill="#000000">created_by</text>
<polygon fill="none" stroke="#000000" points="125.0848,-185.7 125.0848,-207.7 217.0848,-207.7 217.0848,-185.7 125.0848,-185.7"/>
<text text-anchor="start" x="128.0848" y="-193.4" font-family="Helvetica,sans-Serif" font-size="11.00" fill="#000000">int8[19]</text>
<polygon fill="#ffffff" stroke="transparent" points="32.0848,-163.7 32.0848,-185.7 125.0848,-185.7 125.0848,-163.7 32.0848,-163.7"/>
<polygon fill="none" stroke="#000000" points="32.0848,-163.7 32.0848,-185.7 125.0848,-185.7 125.0848,-163.7 32.0848,-163.7"/>
<image xlink:href="../../images/foreignKeys.png" width="11px" height="12px" preserveAspectRatio="xMinYMin meet" x="37.0848" y="-180.7"/>
<text text-anchor="start" x="52.0848" y="-170.8" font-family="Helvetica,sans-Serif" font-size="11.00" fill="#000000">updated_by</text>
<polygon fill="none" stroke="#000000" points="125.0848,-163.7 125.0848,-185.7 217.0848,-185.7 217.0848,-163.7 125.0848,-163.7"/>
<text text-anchor="start" x="128.0848" y="-171.4" font-family="Helvetica,sans-Serif" font-size="11.00" fill="#000000">int8[19]</text>
<polygon fill="none" stroke="#000000" points="32.0848,-141.7 32.0848,-163.7 125.0848,-163.7 125.0848,-141.7 32.0848,-141.7"/>
<text text-anchor="start" x="52.0848" y="-148.8" font-family="Helvetica,sans-Serif" font-size="11.00" fill="#000000">enabled</text>
<polygon fill="none" stroke="#000000" points="125.0848,-141.7 125.0848,-163.7 217.0848,-163.7 217.0848,-141.7 125.0848,-141.7"/>
<text text-anchor="start" x="128.0848" y="-149.4" font-family="Helvetica,sans-Serif" font-size="11.00" fill="#000000">bool[1]</text>
<polygon fill="#ffffff" stroke="transparent" points="32.0848,-122.7 32.0848,-141.7 217.0848,-141.7 217.0848,-122.7 32.0848,-122.7"/>
<polygon fill="none" stroke="#000000" points="32.0848,-122.7 32.0848,-141.7 217.0848,-141.7 217.0848,-122.7 32.0848,-122.7"/>
<polygon fill="#ffffff" stroke="transparent" points="33.0848,-123.7 33.0848,-140.7 97.0848,-140.7 97.0848,-123.7 33.0848,-123.7"/>
<text text-anchor="start" x="35.0848" y="-128.8" font-family="Helvetica,sans-Serif" font-size="11.00" fill="#000000">&lt; 2</text>
<polygon fill="#ffffff" stroke="transparent" points="97.0848,-123.7 97.0848,-140.7 152.0848,-140.7 152.0848,-123.7 97.0848,-123.7"/>
<text text-anchor="start" x="121.5279" y="-128.8" font-family="Helvetica,sans-Serif" font-size="11.00" fill="#000000"> &#160;</text>
<polygon fill="#ffffff" stroke="transparent" points="152.0848,-123.7 152.0848,-140.7 216.0848,-140.7 216.0848,-123.7 152.0848,-123.7"/>
<text text-anchor="start" x="198.4901" y="-128.8" font-family="Helvetica,sans-Serif" font-size="11.00" fill="#000000">8 &gt;</text>
<polygon fill="#000000" stroke="#000000" points="97.0848,-123.7 97.0848,-140.7 97.0848,-140.7 97.0848,-123.7 97.0848,-123.7"/>
<polygon fill="#000000" stroke="#000000" points="152.0848,-123.7 152.0848,-140.7 152.0848,-140.7 152.0848,-123.7 152.0848,-123.7"/>
<polygon fill="none" stroke="#000000" stroke-width="2" points="30.5848,-121.7 30.5848,-363.7 217.5848,-363.7 217.5848,-121.7 30.5848,-121.7"/>
</a>
</g>
</g>
<!-- refresh_tokens&#45;&gt;users -->
<g id="edge1" class="edge">
<title>refresh_tokens:w&#45;&gt;users:e</title>
<path fill="none" stroke="#000000" d="M253.742,-262.3585C235.679,-278.1541 249.7578,-328.7 217.0848,-328.7"/>
<polygon fill="#000000" stroke="#000000" points="260.0027,-260.2517 268.7331,-261.112 263.7938,-258.9758 267.5848,-257.7 267.5848,-257.7 267.5848,-257.7 263.7938,-258.9758 266.4366,-254.288 260.0027,-260.2517 260.0027,-260.2517"/>
<ellipse fill="none" stroke="#000000" cx="256.9698" cy="-261.2723" rx="3.2" ry="3.2"/>
</g>
<!-- users&#45;&gt;users -->
<g id="edge10" class="edge">
<title>users:w&#45;&gt;users:e</title>
<path fill="none" stroke="#000000" d="M22.1793,-207.4226C-19.2399,-261.3437 -10.0372,-381.7 124.5848,-381.7 269.0848,-381.7 269.0848,-373.0333 217.0848,-328.7"/>
<polygon fill="#000000" stroke="#000000" points="26.6563,-202.5763 34.7292,-199.1428 29.3706,-199.6382 32.0848,-196.7 32.0848,-196.7 32.0848,-196.7 29.3706,-199.6382 29.4405,-194.2572 26.6563,-202.5763 26.6563,-202.5763"/>
<ellipse fill="none" stroke="#000000" cx="24.4849" cy="-204.9269" rx="3.2" ry="3.2"/>
</g>
<!-- users&#45;&gt;users -->
<g id="edge11" class="edge">
<title>users:w&#45;&gt;users:e</title>
<path fill="none" stroke="#000000" d="M22.1793,-185.7169C-19.2399,-242.2487 -10.0372,-381.7 124.5848,-381.7 269.0848,-381.7 269.0848,-373.0333 217.0848,-328.7"/>
<polygon fill="#000000" stroke="#000000" points="26.736,-180.649 34.7619,-177.107 29.4104,-177.6745 32.0848,-174.7 32.0848,-174.7 32.0848,-174.7 29.4104,-177.6745 29.4078,-172.293 26.736,-180.649 26.736,-180.649"/>
<ellipse fill="none" stroke="#000000" cx="24.5965" cy="-183.0286" rx="3.2" ry="3.2"/>
</g>
<!-- role_modules -->
<g id="node3" class="node">
<title>role_modules</title>
<g id="a_node3"><a xlink:href="../../tables/role_modules.html" xlink:title="role_modules" target="_top">
<polygon fill="#ffffff" stroke="transparent" points="272.0848,-39.2 272.0848,-188.2 395.0848,-188.2 395.0848,-39.2 272.0848,-39.2"/>
<polygon fill="#f5f5f5" stroke="transparent" points="272.5848,-164.7 272.5848,-187.7 395.5848,-187.7 395.5848,-164.7 272.5848,-164.7"/>
<polygon fill="none" stroke="#000000" points="272.5848,-164.7 272.5848,-187.7 395.5848,-187.7 395.5848,-164.7 272.5848,-164.7"/>
<text text-anchor="start" x="277.5848" y="-173.3" font-family="Helvetica,sans-Serif" font-weight="bold" font-size="11.00" fill="#000000">role_modules</text>
<text text-anchor="start" x="361.1067" y="-172.8" font-family="Helvetica,sans-Serif" font-size="11.00" fill="#000000">[table]</text>
<polygon fill="none" stroke="#000000" points="272.5848,-142.7 272.5848,-164.7 395.5848,-164.7 395.5848,-142.7 272.5848,-142.7"/>
<image xlink:href="../../images/primaryKeys.png" width="11px" height="12px" preserveAspectRatio="xMinYMin meet" x="277.585" y="-159.7"/>
<text text-anchor="start" x="301.5848" y="-149.8" font-family="Helvetica,sans-Serif" font-size="11.00" fill="#000000">module_id</text>
<polygon fill="none" stroke="#000000" points="272.5848,-120.7 272.5848,-142.7 395.5848,-142.7 395.5848,-120.7 272.5848,-120.7"/>
<image xlink:href="../../images/primaryKeys.png" width="11px" height="12px" preserveAspectRatio="xMinYMin meet" x="277.585" y="-137.7"/>
<text text-anchor="start" x="301.5848" y="-127.8" font-family="Helvetica,sans-Serif" font-size="11.00" fill="#000000">role_id</text>
<polygon fill="#ffffff" stroke="transparent" points="272.5848,-98.7 272.5848,-120.7 395.5848,-120.7 395.5848,-98.7 272.5848,-98.7"/>
<polygon fill="none" stroke="#000000" points="272.5848,-98.7 272.5848,-120.7 395.5848,-120.7 395.5848,-98.7 272.5848,-98.7"/>
<image xlink:href="../../images/foreignKeys.png" width="11px" height="12px" preserveAspectRatio="xMinYMin meet" x="277.585" y="-115.7"/>
<text text-anchor="start" x="301.5848" y="-105.8" font-family="Helvetica,sans-Serif" font-size="11.00" fill="#000000">updated_by</text>
<polygon fill="#ffffff" stroke="transparent" points="272.5848,-76.7 272.5848,-98.7 395.5848,-98.7 395.5848,-76.7 272.5848,-76.7"/>
<polygon fill="none" stroke="#000000" points="272.5848,-76.7 272.5848,-98.7 395.5848,-98.7 395.5848,-76.7 272.5848,-76.7"/>
<image xlink:href="../../images/foreignKeys.png" width="11px" height="12px" preserveAspectRatio="xMinYMin meet" x="277.585" y="-93.7"/>
<text text-anchor="start" x="301.5848" y="-83.8" font-family="Helvetica,sans-Serif" font-size="11.00" fill="#000000">created_by</text>
<polygon fill="none" stroke="#000000" points="272.5848,-57.7 272.5848,-76.7 395.5848,-76.7 395.5848,-57.7 272.5848,-57.7"/>
<text text-anchor="start" x="275.5848" y="-63.8" font-family="Helvetica,sans-Serif" font-size="11.00" fill="#000000">...</text>
<polygon fill="#ffffff" stroke="transparent" points="272.5848,-38.7 272.5848,-57.7 395.5848,-57.7 395.5848,-38.7 272.5848,-38.7"/>
<polygon fill="none" stroke="#000000" points="272.5848,-38.7 272.5848,-57.7 395.5848,-57.7 395.5848,-38.7 272.5848,-38.7"/>
<polygon fill="#ffffff" stroke="transparent" points="273.5848,-39.7 273.5848,-56.7 320.5848,-56.7 320.5848,-39.7 273.5848,-39.7"/>
<text text-anchor="start" x="275.5848" y="-44.8" font-family="Helvetica,sans-Serif" font-size="11.00" fill="#000000">&lt; 4</text>
<polygon fill="#ffffff" stroke="transparent" points="320.5848,-39.7 320.5848,-56.7 357.5848,-56.7 357.5848,-39.7 320.5848,-39.7"/>
<text text-anchor="start" x="336.0279" y="-44.8" font-family="Helvetica,sans-Serif" font-size="11.00" fill="#000000"> &#160;</text>
<polygon fill="#ffffff" stroke="transparent" points="357.5848,-39.7 357.5848,-56.7 394.5848,-56.7 394.5848,-39.7 357.5848,-39.7"/>
<text text-anchor="start" x="386.471" y="-44.8" font-family="Helvetica,sans-Serif" font-size="11.00" fill="#000000"> &#160;</text>
<polygon fill="#000000" stroke="#000000" points="320.5848,-39.7 320.5848,-56.7 320.5848,-56.7 320.5848,-39.7 320.5848,-39.7"/>
<polygon fill="#000000" stroke="#000000" points="357.5848,-39.7 357.5848,-56.7 357.5848,-56.7 357.5848,-39.7 357.5848,-39.7"/>
</a>
</g>
</g>
<!-- role_modules&#45;&gt;users -->
<g id="edge2" class="edge">
<title>role_modules:w&#45;&gt;users:e</title>
<path fill="none" stroke="#000000" d="M257.8898,-89.5013C178.6527,-111.5551 321.4179,-328.7 217.0848,-328.7"/>
<polygon fill="#000000" stroke="#000000" points="264.6443,-88.6734 273.0229,-91.2733 268.6146,-88.1867 272.5848,-87.7 272.5848,-87.7 272.5848,-87.7 268.6146,-88.1867 272.1468,-84.1267 264.6443,-88.6734 264.6443,-88.6734"/>
<ellipse fill="none" stroke="#000000" cx="261.468" cy="-89.0628" rx="3.2" ry="3.2"/>
</g>
<!-- role_modules&#45;&gt;users -->
<g id="edge5" class="edge">
<title>role_modules:w&#45;&gt;users:e</title>
<path fill="none" stroke="#000000" d="M258.2356,-111.5933C187.3341,-132.9982 312.0039,-328.7 217.0848,-328.7"/>
<polygon fill="#000000" stroke="#000000" points="264.6536,-110.7465 273.0558,-113.2691 268.6192,-110.2233 272.5848,-109.7 272.5848,-109.7 272.5848,-109.7 268.6192,-110.2233 272.1139,-106.1309 264.6536,-110.7465 264.6536,-110.7465"/>
<ellipse fill="none" stroke="#000000" cx="261.4811" cy="-111.1651" rx="3.2" ry="3.2"/>
</g>
<!-- modules -->
<g id="node4" class="node">
<title>modules</title>
<g id="a_node4"><a xlink:href="../../tables/modules.html" xlink:title="modules" target="_top">
<polygon fill="#ffffff" stroke="transparent" points="78.0848,-38.2 78.0848,-99.2 170.0848,-99.2 170.0848,-38.2 78.0848,-38.2"/>
<polygon fill="#f5f5f5" stroke="transparent" points="78.0848,-75.7 78.0848,-98.7 170.0848,-98.7 170.0848,-75.7 78.0848,-75.7"/>
<polygon fill="none" stroke="#000000" points="78.0848,-75.7 78.0848,-98.7 170.0848,-98.7 170.0848,-75.7 78.0848,-75.7"/>
<text text-anchor="start" x="83.0848" y="-84.3" font-family="Helvetica,sans-Serif" font-weight="bold" font-size="11.00" fill="#000000">modules</text>
<text text-anchor="start" x="135.6067" y="-83.8" font-family="Helvetica,sans-Serif" font-size="11.00" fill="#000000">[table]</text>
<polygon fill="none" stroke="#000000" points="78.0848,-56.7 78.0848,-75.7 170.0848,-75.7 170.0848,-56.7 78.0848,-56.7"/>
<text text-anchor="start" x="81.0848" y="-62.8" font-family="Helvetica,sans-Serif" font-size="11.00" fill="#000000">...</text>
<polygon fill="#ffffff" stroke="transparent" points="78.0848,-37.7 78.0848,-56.7 170.0848,-56.7 170.0848,-37.7 78.0848,-37.7"/>
<polygon fill="none" stroke="#000000" points="78.0848,-37.7 78.0848,-56.7 170.0848,-56.7 170.0848,-37.7 78.0848,-37.7"/>
<polygon fill="#ffffff" stroke="transparent" points="79.0848,-38.7 79.0848,-55.7 106.0848,-55.7 106.0848,-38.7 79.0848,-38.7"/>
<text text-anchor="start" x="81.0848" y="-43.8" font-family="Helvetica,sans-Serif" font-size="11.00" fill="#000000"> &#160;</text>
<polygon fill="#ffffff" stroke="transparent" points="106.0848,-38.7 106.0848,-55.7 133.0848,-55.7 133.0848,-38.7 106.0848,-38.7"/>
<text text-anchor="start" x="116.5279" y="-43.8" font-family="Helvetica,sans-Serif" font-size="11.00" fill="#000000"> &#160;</text>
<polygon fill="#ffffff" stroke="transparent" points="133.0848,-38.7 133.0848,-55.7 169.0848,-55.7 169.0848,-38.7 133.0848,-38.7"/>
<text text-anchor="start" x="151.4901" y="-43.8" font-family="Helvetica,sans-Serif" font-size="11.00" fill="#000000">1 &gt;</text>
<polygon fill="#000000" stroke="#000000" points="106.0848,-38.7 106.0848,-55.7 106.0848,-55.7 106.0848,-38.7 106.0848,-38.7"/>
<polygon fill="#000000" stroke="#000000" points="133.0848,-38.7 133.0848,-55.7 133.0848,-55.7 133.0848,-38.7 133.0848,-38.7"/>
</a>
</g>
</g>
<!-- role_modules&#45;&gt;modules -->
<g id="edge3" class="edge">
<title>role_modules:w&#45;&gt;modules:e</title>
<path fill="none" stroke="#000000" d="M258.4163,-150.6005C244.7379,-143.2513 243.479,-124.2921 226.5848,-109.7 202.4983,-88.8955 201.9123,-65.7 170.0848,-65.7"/>
<polygon fill="#000000" stroke="#000000" points="264.7697,-151.9903 271.8155,-157.2168 268.6772,-152.8451 272.5848,-153.7 272.5848,-153.7 272.5848,-153.7 268.6772,-152.8451 273.3542,-150.1832 264.7697,-151.9903 264.7697,-151.9903"/>
<ellipse fill="none" stroke="#000000" cx="261.6436" cy="-151.3064" rx="3.2" ry="3.2"/>
</g>
<!-- roles -->
<g id="node5" class="node">
<title>roles</title>
<g id="a_node5"><a xlink:href="../../tables/roles.html" xlink:title="roles" target="_top">
<polygon fill="#ffffff" stroke="transparent" points="89.0848,-422.2 89.0848,-483.2 159.0848,-483.2 159.0848,-422.2 89.0848,-422.2"/>
<polygon fill="#f5f5f5" stroke="transparent" points="89.0848,-459.7 89.0848,-482.7 159.0848,-482.7 159.0848,-459.7 89.0848,-459.7"/>
<polygon fill="none" stroke="#000000" points="89.0848,-459.7 89.0848,-482.7 159.0848,-482.7 159.0848,-459.7 89.0848,-459.7"/>
<text text-anchor="start" x="94.0848" y="-468.3" font-family="Helvetica,sans-Serif" font-weight="bold" font-size="11.00" fill="#000000">roles</text>
<text text-anchor="start" x="124.6067" y="-467.8" font-family="Helvetica,sans-Serif" font-size="11.00" fill="#000000">[table]</text>
<polygon fill="none" stroke="#000000" points="89.0848,-440.7 89.0848,-459.7 159.0848,-459.7 159.0848,-440.7 89.0848,-440.7"/>
<text text-anchor="start" x="92.0848" y="-446.8" font-family="Helvetica,sans-Serif" font-size="11.00" fill="#000000">...</text>
<polygon fill="#ffffff" stroke="transparent" points="89.0848,-421.7 89.0848,-440.7 159.0848,-440.7 159.0848,-421.7 89.0848,-421.7"/>
<polygon fill="none" stroke="#000000" points="89.0848,-421.7 89.0848,-440.7 159.0848,-440.7 159.0848,-421.7 89.0848,-421.7"/>
<polygon fill="#ffffff" stroke="transparent" points="90.0848,-422.7 90.0848,-439.7 110.0848,-439.7 110.0848,-422.7 90.0848,-422.7"/>
<text text-anchor="start" x="92.0848" y="-427.8" font-family="Helvetica,sans-Serif" font-size="11.00" fill="#000000"> &#160;</text>
<polygon fill="#ffffff" stroke="transparent" points="110.0848,-422.7 110.0848,-439.7 130.0848,-439.7 130.0848,-422.7 110.0848,-422.7"/>
<text text-anchor="start" x="117.0279" y="-427.8" font-family="Helvetica,sans-Serif" font-size="11.00" fill="#000000"> &#160;</text>
<polygon fill="#ffffff" stroke="transparent" points="130.0848,-422.7 130.0848,-439.7 158.0848,-439.7 158.0848,-422.7 130.0848,-422.7"/>
<text text-anchor="start" x="140.4901" y="-427.8" font-family="Helvetica,sans-Serif" font-size="11.00" fill="#000000">2 &gt;</text>
<polygon fill="#000000" stroke="#000000" points="110.0848,-422.7 110.0848,-439.7 110.0848,-439.7 110.0848,-422.7 110.0848,-422.7"/>
<polygon fill="#000000" stroke="#000000" points="130.0848,-422.7 130.0848,-439.7 130.0848,-439.7 130.0848,-422.7 130.0848,-422.7"/>
</a>
</g>
</g>
<!-- role_modules&#45;&gt;roles -->
<g id="edge4" class="edge">
<title>role_modules:w&#45;&gt;roles:e</title>
<path fill="none" stroke="#000000" d="M258.7687,-136.4985C217.9757,-169.614 259.4086,-364.322 226.5848,-411.7 206.979,-439.9992 193.5121,-449.7 159.0848,-449.7"/>
<polygon fill="#000000" stroke="#000000" points="265.0277,-134.3247 273.766,-135.1007 268.8062,-133.0124 272.5848,-131.7 272.5848,-131.7 272.5848,-131.7 268.8062,-133.0124 271.4037,-128.2993 265.0277,-134.3247 265.0277,-134.3247"/>
<ellipse fill="none" stroke="#000000" cx="262.0048" cy="-135.3746" rx="3.2" ry="3.2"/>
</g>
<!-- user_roles -->
<g id="node6" class="node">
<title>user_roles</title>
<g id="a_node6"><a xlink:href="../../tables/user_roles.html" xlink:title="user_roles" target="_top">
<polygon fill="#ffffff" stroke="transparent" points="281.5848,-357.2 281.5848,-506.2 385.5848,-506.2 385.5848,-357.2 281.5848,-357.2"/>
<polygon fill="#f5f5f5" stroke="transparent" points="281.5848,-482.7 281.5848,-505.7 385.5848,-505.7 385.5848,-482.7 281.5848,-482.7"/>
<polygon fill="none" stroke="#000000" points="281.5848,-482.7 281.5848,-505.7 385.5848,-505.7 385.5848,-482.7 281.5848,-482.7"/>
<text text-anchor="start" x="286.5848" y="-491.3" font-family="Helvetica,sans-Serif" font-weight="bold" font-size="11.00" fill="#000000">user_roles</text>
<text text-anchor="start" x="351.1067" y="-490.8" font-family="Helvetica,sans-Serif" font-size="11.00" fill="#000000">[table]</text>
<polygon fill="none" stroke="#000000" points="281.5848,-460.7 281.5848,-482.7 385.5848,-482.7 385.5848,-460.7 281.5848,-460.7"/>
<image xlink:href="../../images/primaryKeys.png" width="11px" height="12px" preserveAspectRatio="xMinYMin meet" x="286.585" y="-477.7"/>
<text text-anchor="start" x="307.5848" y="-467.8" font-family="Helvetica,sans-Serif" font-size="11.00" fill="#000000">user_id</text>
<polygon fill="none" stroke="#000000" points="281.5848,-438.7 281.5848,-460.7 385.5848,-460.7 385.5848,-438.7 281.5848,-438.7"/>
<image xlink:href="../../images/primaryKeys.png" width="11px" height="12px" preserveAspectRatio="xMinYMin meet" x="286.585" y="-455.7"/>
<text text-anchor="start" x="307.5848" y="-445.8" font-family="Helvetica,sans-Serif" font-size="11.00" fill="#000000">role_id</text>
<polygon fill="#ffffff" stroke="transparent" points="281.5848,-416.7 281.5848,-438.7 385.5848,-438.7 385.5848,-416.7 281.5848,-416.7"/>
<polygon fill="none" stroke="#000000" points="281.5848,-416.7 281.5848,-438.7 385.5848,-438.7 385.5848,-416.7 281.5848,-416.7"/>
<image xlink:href="../../images/foreignKeys.png" width="11px" height="12px" preserveAspectRatio="xMinYMin meet" x="286.585" y="-433.7"/>
<text text-anchor="start" x="307.5848" y="-423.8" font-family="Helvetica,sans-Serif" font-size="11.00" fill="#000000">created_by</text>
<polygon fill="#ffffff" stroke="transparent" points="281.5848,-394.7 281.5848,-416.7 385.5848,-416.7 385.5848,-394.7 281.5848,-394.7"/>
<polygon fill="none" stroke="#000000" points="281.5848,-394.7 281.5848,-416.7 385.5848,-416.7 385.5848,-394.7 281.5848,-394.7"/>
<image xlink:href="../../images/foreignKeys.png" width="11px" height="12px" preserveAspectRatio="xMinYMin meet" x="286.585" y="-411.7"/>
<text text-anchor="start" x="307.5848" y="-401.8" font-family="Helvetica,sans-Serif" font-size="11.00" fill="#000000">updated_by</text>
<polygon fill="none" stroke="#000000" points="281.5848,-375.7 281.5848,-394.7 385.5848,-394.7 385.5848,-375.7 281.5848,-375.7"/>
<text text-anchor="start" x="284.5848" y="-381.8" font-family="Helvetica,sans-Serif" font-size="11.00" fill="#000000">...</text>
<polygon fill="#ffffff" stroke="transparent" points="281.5848,-356.7 281.5848,-375.7 385.5848,-375.7 385.5848,-356.7 281.5848,-356.7"/>
<polygon fill="none" stroke="#000000" points="281.5848,-356.7 281.5848,-375.7 385.5848,-375.7 385.5848,-356.7 281.5848,-356.7"/>
<polygon fill="#ffffff" stroke="transparent" points="282.5848,-357.7 282.5848,-374.7 322.5848,-374.7 322.5848,-357.7 282.5848,-357.7"/>
<text text-anchor="start" x="284.5848" y="-362.8" font-family="Helvetica,sans-Serif" font-size="11.00" fill="#000000">&lt; 4</text>
<polygon fill="#ffffff" stroke="transparent" points="322.5848,-357.7 322.5848,-374.7 353.5848,-374.7 353.5848,-357.7 322.5848,-357.7"/>
<text text-anchor="start" x="335.0279" y="-362.8" font-family="Helvetica,sans-Serif" font-size="11.00" fill="#000000"> &#160;</text>
<polygon fill="#ffffff" stroke="transparent" points="353.5848,-357.7 353.5848,-374.7 384.5848,-374.7 384.5848,-357.7 353.5848,-357.7"/>
<text text-anchor="start" x="376.471" y="-362.8" font-family="Helvetica,sans-Serif" font-size="11.00" fill="#000000"> &#160;</text>
<polygon fill="#000000" stroke="#000000" points="322.5848,-357.7 322.5848,-374.7 322.5848,-374.7 322.5848,-357.7 322.5848,-357.7"/>
<polygon fill="#000000" stroke="#000000" points="353.5848,-357.7 353.5848,-374.7 353.5848,-374.7 353.5848,-357.7 353.5848,-357.7"/>
</a>
</g>
</g>
<!-- user_roles&#45;&gt;users -->
<g id="edge6" class="edge">
<title>user_roles:w&#45;&gt;users:e</title>
<path fill="none" stroke="#000000" d="M267.4492,-424.4061C236.823,-407.2281 263.8556,-328.7 217.0848,-328.7"/>
<polygon fill="#000000" stroke="#000000" points="273.7936,-425.8844 280.7678,-431.2061 277.6892,-426.7922 281.5848,-427.7 281.5848,-427.7 281.5848,-427.7 277.6892,-426.7922 282.4018,-424.1939 273.7936,-425.8844 273.7936,-425.8844"/>
<ellipse fill="none" stroke="#000000" cx="270.6771" cy="-425.1582" rx="3.2" ry="3.2"/>
</g>
<!-- user_roles&#45;&gt;users -->
<g id="edge8" class="edge">
<title>user_roles:w&#45;&gt;users:e</title>
<path fill="none" stroke="#000000" d="M267.4844,-402.1914C242.1786,-387.1279 255.9725,-328.7 217.0848,-328.7"/>
<polygon fill="#000000" stroke="#000000" points="273.8216,-403.7682 280.7155,-409.1935 277.7032,-404.7341 281.5848,-405.7 281.5848,-405.7 281.5848,-405.7 277.7032,-404.7341 282.4541,-402.2065 273.8216,-403.7682 273.8216,-403.7682"/>
<ellipse fill="none" stroke="#000000" cx="270.7163" cy="-402.9955" rx="3.2" ry="3.2"/>
</g>
<!-- user_roles&#45;&gt;users -->
<g id="edge9" class="edge">
<title>user_roles:w&#45;&gt;users:e</title>
<path fill="none" stroke="#000000" d="M267.1875,-468.9711C223.1852,-449.2013 281.087,-328.7 217.0848,-328.7"/>
<polygon fill="#000000" stroke="#000000" points="273.7248,-470.2101 280.9144,-475.237 277.6548,-470.9551 281.5848,-471.7 281.5848,-471.7 281.5848,-471.7 277.6548,-470.9551 282.2553,-468.163 273.7248,-470.2101 273.7248,-470.2101"/>
<ellipse fill="none" stroke="#000000" cx="270.5808" cy="-469.6142" rx="3.2" ry="3.2"/>
</g>
<!-- user_roles&#45;&gt;roles -->
<g id="edge7" class="edge">
<title>user_roles:w&#45;&gt;roles:e</title>
<path fill="none" stroke="#000000" d="M267.0037,-449.7C224.1611,-449.7 208.3188,-449.7 159.0848,-449.7"/>
<polygon fill="#000000" stroke="#000000" points="273.5848,-449.7001 281.5849,-453.3 277.5848,-449.7 281.5848,-449.7 281.5848,-449.7 281.5848,-449.7 277.5848,-449.7 281.5848,-446.1 273.5848,-449.7001 273.5848,-449.7001"/>
<ellipse fill="none" stroke="#000000" cx="270.3848" cy="-449.7001" rx="3.2" ry="3.2"/>
</g>
</g>
</svg>
