<?xml version="1.0" encoding="UTF-8" standalone="no"?>
<!DOCTYPE svg PUBLIC "-//W3C//DTD SVG 1.1//EN"
 "http://www.w3.org/Graphics/SVG/1.1/DTD/svg11.dtd">
<!-- Generated by graphviz version 2.40.1 (20161225.0304)
 -->
<!-- Title: oneDegreeRelationshipsDiagram Pages: 1 -->
<svg width="355pt" height="281pt"
 viewBox="0.00 0.00 355.00 281.20" xmlns="http://www.w3.org/2000/svg" xmlns:xlink="http://www.w3.org/1999/xlink">
<g id="graph0" class="graph" transform="scale(1 1) rotate(0) translate(4 277.2)">
<title>oneDegreeRelationshipsDiagram</title>
<polygon fill="#ffffff" stroke="transparent" points="-4,4 -4,-277.2 351,-277.2 351,4 -4,4"/>
<text text-anchor="middle" x="72.4936" y="-7.3" font-family="Helvetica,sans-Serif" font-size="11.00" fill="#000000">Generated by SchemaSpy</text>
<!-- user_roles -->
<g id="node1" class="node">
<title>user_roles</title>
<g id="a_node1"><a xlink:href="../../tables/user_roles.html" xlink:title="user_roles" target="_top">
<polygon fill="#ffffff" stroke="transparent" points="150,-43.7 150,-221.7 339,-221.7 339,-43.7 150,-43.7"/>
<polygon fill="#f5f5f5" stroke="transparent" points="152.5,-196.7 152.5,-219.7 337.5,-219.7 337.5,-196.7 152.5,-196.7"/>
<polygon fill="none" stroke="#000000" points="152.5,-196.7 152.5,-219.7 337.5,-219.7 337.5,-196.7 152.5,-196.7"/>
<text text-anchor="start" x="157.5" y="-205.3" font-family="Helvetica,sans-Serif" font-weight="bold" font-size="11.00" fill="#000000">user_roles</text>
<text text-anchor="start" x="302.5437" y="-204.8" font-family="Helvetica,sans-Serif" font-size="11.00" fill="#000000">[table]</text>
<polygon fill="none" stroke="#000000" points="152.5,-174.7 152.5,-196.7 245.5,-196.7 245.5,-174.7 152.5,-174.7"/>
<image xlink:href="../../images/primaryKeys.png" width="11px" height="12px" preserveAspectRatio="xMinYMin meet" x="157.5" y="-191.7"/>
<text text-anchor="start" x="172.5" y="-181.8" font-family="Helvetica,sans-Serif" font-size="11.00" fill="#000000">user_id</text>
<polygon fill="none" stroke="#000000" points="245.5,-174.7 245.5,-196.7 337.5,-196.7 337.5,-174.7 245.5,-174.7"/>
<text text-anchor="start" x="248.5" y="-182.4" font-family="Helvetica,sans-Serif" font-size="11.00" fill="#000000">int8[19]</text>
<polygon fill="none" stroke="#000000" points="152.5,-152.7 152.5,-174.7 245.5,-174.7 245.5,-152.7 152.5,-152.7"/>
<image xlink:href="../../images/primaryKeys.png" width="11px" height="12px" preserveAspectRatio="xMinYMin meet" x="157.5" y="-169.7"/>
<text text-anchor="start" x="172.5" y="-159.8" font-family="Helvetica,sans-Serif" font-size="11.00" fill="#000000">role_id</text>
<polygon fill="none" stroke="#000000" points="245.5,-152.7 245.5,-174.7 337.5,-174.7 337.5,-152.7 245.5,-152.7"/>
<text text-anchor="start" x="248.5" y="-160.4" font-family="Helvetica,sans-Serif" font-size="11.00" fill="#000000">int8[19]</text>
<polygon fill="#ffffff" stroke="transparent" points="152.5,-130.7 152.5,-152.7 245.5,-152.7 245.5,-130.7 152.5,-130.7"/>
<polygon fill="none" stroke="#000000" points="152.5,-130.7 152.5,-152.7 245.5,-152.7 245.5,-130.7 152.5,-130.7"/>
<image xlink:href="../../images/foreignKeys.png" width="11px" height="12px" preserveAspectRatio="xMinYMin meet" x="157.5" y="-147.7"/>
<text text-anchor="start" x="172.5" y="-137.8" font-family="Helvetica,sans-Serif" font-size="11.00" fill="#000000">created_by</text>
<polygon fill="none" stroke="#000000" points="245.5,-130.7 245.5,-152.7 337.5,-152.7 337.5,-130.7 245.5,-130.7"/>
<text text-anchor="start" x="248.5" y="-138.4" font-family="Helvetica,sans-Serif" font-size="11.00" fill="#000000">int8[19]</text>
<polygon fill="#ffffff" stroke="transparent" points="152.5,-108.7 152.5,-130.7 245.5,-130.7 245.5,-108.7 152.5,-108.7"/>
<polygon fill="none" stroke="#000000" points="152.5,-108.7 152.5,-130.7 245.5,-130.7 245.5,-108.7 152.5,-108.7"/>
<image xlink:href="../../images/foreignKeys.png" width="11px" height="12px" preserveAspectRatio="xMinYMin meet" x="157.5" y="-125.7"/>
<text text-anchor="start" x="172.5" y="-115.8" font-family="Helvetica,sans-Serif" font-size="11.00" fill="#000000">updated_by</text>
<polygon fill="none" stroke="#000000" points="245.5,-108.7 245.5,-130.7 337.5,-130.7 337.5,-108.7 245.5,-108.7"/>
<text text-anchor="start" x="248.5" y="-116.4" font-family="Helvetica,sans-Serif" font-size="11.00" fill="#000000">int8[19]</text>
<polygon fill="none" stroke="#000000" points="152.5,-86.7 152.5,-108.7 245.5,-108.7 245.5,-86.7 152.5,-86.7"/>
<text text-anchor="start" x="172.5" y="-93.8" font-family="Helvetica,sans-Serif" font-size="11.00" fill="#000000">created</text>
<polygon fill="none" stroke="#000000" points="245.5,-86.7 245.5,-108.7 337.5,-108.7 337.5,-86.7 245.5,-86.7"/>
<text text-anchor="start" x="248.1023" y="-94.4" font-family="Helvetica,sans-Serif" font-size="11.00" fill="#000000">timestamptz[35,6]</text>
<polygon fill="none" stroke="#000000" points="152.5,-64.7 152.5,-86.7 245.5,-86.7 245.5,-64.7 152.5,-64.7"/>
<text text-anchor="start" x="172.5" y="-71.8" font-family="Helvetica,sans-Serif" font-size="11.00" fill="#000000">updated</text>
<polygon fill="none" stroke="#000000" points="245.5,-64.7 245.5,-86.7 337.5,-86.7 337.5,-64.7 245.5,-64.7"/>
<text text-anchor="start" x="248.1023" y="-72.4" font-family="Helvetica,sans-Serif" font-size="11.00" fill="#000000">timestamptz[35,6]</text>
<polygon fill="#ffffff" stroke="transparent" points="152.5,-45.7 152.5,-64.7 337.5,-64.7 337.5,-45.7 152.5,-45.7"/>
<polygon fill="none" stroke="#000000" points="152.5,-45.7 152.5,-64.7 337.5,-64.7 337.5,-45.7 152.5,-45.7"/>
<polygon fill="#ffffff" stroke="transparent" points="153.5,-46.7 153.5,-63.7 217.5,-63.7 217.5,-46.7 153.5,-46.7"/>
<text text-anchor="start" x="155.5" y="-51.8" font-family="Helvetica,sans-Serif" font-size="11.00" fill="#000000">&lt; 4</text>
<polygon fill="#ffffff" stroke="transparent" points="217.5,-46.7 217.5,-63.7 272.5,-63.7 272.5,-46.7 217.5,-46.7"/>
<text text-anchor="start" x="241.9431" y="-51.8" font-family="Helvetica,sans-Serif" font-size="11.00" fill="#000000"> &#160;</text>
<polygon fill="#ffffff" stroke="transparent" points="272.5,-46.7 272.5,-63.7 336.5,-63.7 336.5,-46.7 272.5,-46.7"/>
<text text-anchor="start" x="318.9053" y="-51.8" font-family="Helvetica,sans-Serif" font-size="11.00" fill="#000000">0 &gt;</text>
<polygon fill="#000000" stroke="#000000" points="217.5,-46.7 217.5,-63.7 217.5,-63.7 217.5,-46.7 217.5,-46.7"/>
<polygon fill="#000000" stroke="#000000" points="272.5,-46.7 272.5,-63.7 272.5,-63.7 272.5,-46.7 272.5,-46.7"/>
<polygon fill="none" stroke="#000000" stroke-width="2" points="151,-44.7 151,-220.7 338,-220.7 338,-44.7 151,-44.7"/>
</a>
</g>
</g>
<!-- users -->
<g id="node2" class="node">
<title>users</title>
<g id="a_node2"><a xlink:href="../../tables/users.html" xlink:title="users" target="_top">
<polygon fill="#ffffff" stroke="transparent" points="8,-38.2 8,-165.2 101,-165.2 101,-38.2 8,-38.2"/>
<polygon fill="#f5f5f5" stroke="transparent" points="8.5,-141.7 8.5,-164.7 101.5,-164.7 101.5,-141.7 8.5,-141.7"/>
<polygon fill="none" stroke="#000000" points="8.5,-141.7 8.5,-164.7 101.5,-164.7 101.5,-141.7 8.5,-141.7"/>
<text text-anchor="start" x="13.5" y="-150.3" font-family="Helvetica,sans-Serif" font-weight="bold" font-size="11.00" fill="#000000">users</text>
<text text-anchor="start" x="66.5437" y="-149.8" font-family="Helvetica,sans-Serif" font-size="11.00" fill="#000000">[table]</text>
<polygon fill="none" stroke="#000000" points="8.5,-119.7 8.5,-141.7 101.5,-141.7 101.5,-119.7 8.5,-119.7"/>
<image xlink:href="../../images/primaryKeys.png" width="11px" height="12px" preserveAspectRatio="xMinYMin meet" x="13.5" y="-136.7"/>
<text text-anchor="start" x="28.5" y="-126.8" font-family="Helvetica,sans-Serif" font-size="11.00" fill="#000000">user_id</text>
<polygon fill="#ffffff" stroke="transparent" points="8.5,-97.7 8.5,-119.7 101.5,-119.7 101.5,-97.7 8.5,-97.7"/>
<polygon fill="none" stroke="#000000" points="8.5,-97.7 8.5,-119.7 101.5,-119.7 101.5,-97.7 8.5,-97.7"/>
<image xlink:href="../../images/foreignKeys.png" width="11px" height="12px" preserveAspectRatio="xMinYMin meet" x="13.5" y="-114.7"/>
<text text-anchor="start" x="28.5" y="-104.8" font-family="Helvetica,sans-Serif" font-size="11.00" fill="#000000">created_by</text>
<polygon fill="#ffffff" stroke="transparent" points="8.5,-75.7 8.5,-97.7 101.5,-97.7 101.5,-75.7 8.5,-75.7"/>
<polygon fill="none" stroke="#000000" points="8.5,-75.7 8.5,-97.7 101.5,-97.7 101.5,-75.7 8.5,-75.7"/>
<image xlink:href="../../images/foreignKeys.png" width="11px" height="12px" preserveAspectRatio="xMinYMin meet" x="13.5" y="-92.7"/>
<text text-anchor="start" x="28.5" y="-82.8" font-family="Helvetica,sans-Serif" font-size="11.00" fill="#000000">updated_by</text>
<polygon fill="none" stroke="#000000" points="8.5,-56.7 8.5,-75.7 101.5,-75.7 101.5,-56.7 8.5,-56.7"/>
<text text-anchor="start" x="11.5" y="-62.8" font-family="Helvetica,sans-Serif" font-size="11.00" fill="#000000">...</text>
<polygon fill="#ffffff" stroke="transparent" points="8.5,-37.7 8.5,-56.7 101.5,-56.7 101.5,-37.7 8.5,-37.7"/>
<polygon fill="none" stroke="#000000" points="8.5,-37.7 8.5,-56.7 101.5,-56.7 101.5,-37.7 8.5,-37.7"/>
<polygon fill="#ffffff" stroke="transparent" points="9.5,-38.7 9.5,-55.7 41.5,-55.7 41.5,-38.7 9.5,-38.7"/>
<text text-anchor="start" x="11.5" y="-43.8" font-family="Helvetica,sans-Serif" font-size="11.00" fill="#000000">&lt; 2</text>
<polygon fill="#ffffff" stroke="transparent" points="41.5,-38.7 41.5,-55.7 63.5,-55.7 63.5,-38.7 41.5,-38.7"/>
<text text-anchor="start" x="49.4431" y="-43.8" font-family="Helvetica,sans-Serif" font-size="11.00" fill="#000000"> &#160;</text>
<polygon fill="#ffffff" stroke="transparent" points="63.5,-38.7 63.5,-55.7 100.5,-55.7 100.5,-38.7 63.5,-38.7"/>
<text text-anchor="start" x="76.7904" y="-43.8" font-family="Helvetica,sans-Serif" font-size="11.00" fill="#000000">26 &gt;</text>
<polygon fill="#000000" stroke="#000000" points="41.5,-38.7 41.5,-55.7 41.5,-55.7 41.5,-38.7 41.5,-38.7"/>
<polygon fill="#000000" stroke="#000000" points="63.5,-38.7 63.5,-55.7 63.5,-55.7 63.5,-38.7 63.5,-38.7"/>
</a>
</g>
</g>
<!-- user_roles&#45;&gt;users -->
<g id="edge1" class="edge">
<title>user_roles:w&#45;&gt;users:e</title>
<path fill="none" stroke="#000000" d="M138.0097,-139.9813C125.8398,-136.8875 118.8909,-130.7 101.5,-130.7"/>
<polygon fill="#000000" stroke="#000000" points="144.5557,-140.7576 152.0759,-145.2749 148.5278,-141.2288 152.5,-141.7 152.5,-141.7 152.5,-141.7 148.5278,-141.2288 152.9241,-138.1251 144.5557,-140.7576 144.5557,-140.7576"/>
<ellipse fill="none" stroke="#000000" cx="141.378" cy="-140.3807" rx="3.2" ry="3.2"/>
</g>
<!-- user_roles&#45;&gt;users -->
<g id="edge3" class="edge">
<title>user_roles:w&#45;&gt;users:e</title>
<path fill="none" stroke="#000000" d="M138.0097,-121.4188C125.8398,-124.5125 118.8909,-130.7 101.5,-130.7"/>
<polygon fill="#000000" stroke="#000000" points="144.5557,-120.6424 152.9241,-123.2749 148.5278,-120.1712 152.5,-119.7 152.5,-119.7 152.5,-119.7 148.5278,-120.1712 152.0759,-116.1251 144.5557,-120.6424 144.5557,-120.6424"/>
<ellipse fill="none" stroke="#000000" cx="141.378" cy="-121.0193" rx="3.2" ry="3.2"/>
</g>
<!-- user_roles&#45;&gt;users -->
<g id="edge4" class="edge">
<title>user_roles:w&#45;&gt;users:e</title>
<path fill="none" stroke="#000000" d="M138.7081,-181.0107C123.2137,-167.7102 128.8462,-130.7 101.5,-130.7"/>
<polygon fill="#000000" stroke="#000000" points="144.9258,-183.1247 151.3411,-189.1084 148.7129,-184.4124 152.5,-185.7 152.5,-185.7 152.5,-185.7 148.7129,-184.4124 153.6589,-182.2916 144.9258,-183.1247 144.9258,-183.1247"/>
<ellipse fill="none" stroke="#000000" cx="141.8961" cy="-182.0946" rx="3.2" ry="3.2"/>
</g>
<!-- roles -->
<g id="node3" class="node">
<title>roles</title>
<g id="a_node3"><a xlink:href="../../tables/roles.html" xlink:title="roles" target="_top">
<polygon fill="#ffffff" stroke="transparent" points="8,-186.2 8,-269.2 101,-269.2 101,-186.2 8,-186.2"/>
<polygon fill="#f5f5f5" stroke="transparent" points="8.5,-245.7 8.5,-268.7 101.5,-268.7 101.5,-245.7 8.5,-245.7"/>
<polygon fill="none" stroke="#000000" points="8.5,-245.7 8.5,-268.7 101.5,-268.7 101.5,-245.7 8.5,-245.7"/>
<text text-anchor="start" x="13.5" y="-254.3" font-family="Helvetica,sans-Serif" font-weight="bold" font-size="11.00" fill="#000000">roles</text>
<text text-anchor="start" x="66.5437" y="-253.8" font-family="Helvetica,sans-Serif" font-size="11.00" fill="#000000">[table]</text>
<polygon fill="none" stroke="#000000" points="8.5,-223.7 8.5,-245.7 101.5,-245.7 101.5,-223.7 8.5,-223.7"/>
<image xlink:href="../../images/primaryKeys.png" width="11px" height="12px" preserveAspectRatio="xMinYMin meet" x="13.5" y="-240.7"/>
<text text-anchor="start" x="28.5" y="-230.8" font-family="Helvetica,sans-Serif" font-size="11.00" fill="#000000">role_id</text>
<polygon fill="none" stroke="#000000" points="8.5,-204.7 8.5,-223.7 101.5,-223.7 101.5,-204.7 8.5,-204.7"/>
<text text-anchor="start" x="11.5" y="-210.8" font-family="Helvetica,sans-Serif" font-size="11.00" fill="#000000">...</text>
<polygon fill="#ffffff" stroke="transparent" points="8.5,-185.7 8.5,-204.7 101.5,-204.7 101.5,-185.7 8.5,-185.7"/>
<polygon fill="none" stroke="#000000" points="8.5,-185.7 8.5,-204.7 101.5,-204.7 101.5,-185.7 8.5,-185.7"/>
<polygon fill="#ffffff" stroke="transparent" points="9.5,-186.7 9.5,-203.7 37.5,-203.7 37.5,-186.7 9.5,-186.7"/>
<text text-anchor="start" x="11.5" y="-191.8" font-family="Helvetica,sans-Serif" font-size="11.00" fill="#000000"> &#160;</text>
<polygon fill="#ffffff" stroke="transparent" points="37.5,-186.7 37.5,-203.7 64.5,-203.7 64.5,-186.7 37.5,-186.7"/>
<text text-anchor="start" x="47.9431" y="-191.8" font-family="Helvetica,sans-Serif" font-size="11.00" fill="#000000"> &#160;</text>
<polygon fill="#ffffff" stroke="transparent" points="64.5,-186.7 64.5,-203.7 100.5,-203.7 100.5,-186.7 64.5,-186.7"/>
<text text-anchor="start" x="82.9053" y="-191.8" font-family="Helvetica,sans-Serif" font-size="11.00" fill="#000000">2 &gt;</text>
<polygon fill="#000000" stroke="#000000" points="37.5,-186.7 37.5,-203.7 37.5,-203.7 37.5,-186.7 37.5,-186.7"/>
<polygon fill="#000000" stroke="#000000" points="64.5,-186.7 64.5,-203.7 64.5,-203.7 64.5,-186.7 64.5,-186.7"/>
</a>
</g>
</g>
<!-- user_roles&#45;&gt;roles -->
<g id="edge2" class="edge">
<title>user_roles:w&#45;&gt;roles:e</title>
<path fill="none" stroke="#000000" d="M138.5893,-168.3585C120.3922,-184.1541 134.282,-234.7 101.5,-234.7"/>
<polygon fill="#000000" stroke="#000000" points="144.9141,-166.2405 153.6432,-167.1137 148.707,-164.9702 152.5,-163.7 152.5,-163.7 152.5,-163.7 148.707,-164.9702 151.3568,-160.2863 144.9141,-166.2405 144.9141,-166.2405"/>
<ellipse fill="none" stroke="#000000" cx="141.8797" cy="-167.2566" rx="3.2" ry="3.2"/>
</g>
</g>
</svg>
