<?xml version="1.0" encoding="UTF-8" standalone="no"?>
<!DOCTYPE svg PUBLIC "-//W3C//DTD SVG 1.1//EN"
 "http://www.w3.org/Graphics/SVG/1.1/DTD/svg11.dtd">
<!-- Generated by graphviz version 2.40.1 (20161225.0304)
 -->
<!-- Title: compactRelationshipsDiagram Pages: 1 -->
<svg width="792pt" height="1101pt"
 viewBox="0.00 0.00 791.63 1101.17" xmlns="http://www.w3.org/2000/svg" xmlns:xlink="http://www.w3.org/1999/xlink">
<g id="graph0" class="graph" transform="scale(1 1) rotate(0) translate(4 1097.1652)">
<title>compactRelationshipsDiagram</title>
<polygon fill="#ffffff" stroke="transparent" points="-4,4 -4,-1097.1652 787.6322,-1097.1652 787.6322,4 -4,4"/>
<text text-anchor="middle" x="72.4936" y="-7.3" font-family="Helvetica,sans-Serif" font-size="11.00" fill="#000000">Generated by SchemaSpy</text>
<!-- payments -->
<g id="node1" class="node">
<title>payments</title>
<g id="a_node1"><a xlink:href="../../tables/payments.html" xlink:title="payments" target="_top">
<polygon fill="#ffffff" stroke="transparent" points="391.6322,-527.1652 391.6322,-698.1652 535.6322,-698.1652 535.6322,-527.1652 391.6322,-527.1652"/>
<polygon fill="#f5f5f5" stroke="transparent" points="391.6322,-674.6652 391.6322,-697.6652 535.6322,-697.6652 535.6322,-674.6652 391.6322,-674.6652"/>
<polygon fill="none" stroke="#000000" points="391.6322,-674.6652 391.6322,-697.6652 535.6322,-697.6652 535.6322,-674.6652 391.6322,-674.6652"/>
<text text-anchor="start" x="396.6322" y="-683.2652" font-family="Helvetica,sans-Serif" font-weight="bold" font-size="11.00" fill="#000000">payments</text>
<text text-anchor="start" x="500.6759" y="-682.7652" font-family="Helvetica,sans-Serif" font-size="11.00" fill="#000000">[table]</text>
<polygon fill="none" stroke="#000000" points="391.6322,-652.6652 391.6322,-674.6652 535.6322,-674.6652 535.6322,-652.6652 391.6322,-652.6652"/>
<image xlink:href="../../images/primaryKeys.png" width="11px" height="12px" preserveAspectRatio="xMinYMin meet" x="396.632" y="-669.665"/>
<text text-anchor="start" x="411.6322" y="-659.7652" font-family="Helvetica,sans-Serif" font-size="11.00" fill="#000000">payment_id</text>
<polygon fill="#ffffff" stroke="transparent" points="391.6322,-630.6652 391.6322,-652.6652 535.6322,-652.6652 535.6322,-630.6652 391.6322,-630.6652"/>
<polygon fill="none" stroke="#000000" points="391.6322,-630.6652 391.6322,-652.6652 535.6322,-652.6652 535.6322,-630.6652 391.6322,-630.6652"/>
<image xlink:href="../../images/foreignKeys.png" width="11px" height="12px" preserveAspectRatio="xMinYMin meet" x="396.632" y="-647.665"/>
<text text-anchor="start" x="411.6322" y="-637.7652" font-family="Helvetica,sans-Serif" font-size="11.00" fill="#000000">paymentgateway_id</text>
<polygon fill="none" stroke="#000000" points="391.6322,-608.6652 391.6322,-630.6652 535.6322,-630.6652 535.6322,-608.6652 391.6322,-608.6652"/>
<image xlink:href="../../images/foreignKeys.png" width="11px" height="12px" preserveAspectRatio="xMinYMin meet" x="396.632" y="-625.665"/>
<text text-anchor="start" x="411.6322" y="-615.7652" font-family="Helvetica,sans-Serif" font-size="11.00" fill="#000000">order_id</text>
<polygon fill="#ffffff" stroke="transparent" points="391.6322,-586.6652 391.6322,-608.6652 535.6322,-608.6652 535.6322,-586.6652 391.6322,-586.6652"/>
<polygon fill="none" stroke="#000000" points="391.6322,-586.6652 391.6322,-608.6652 535.6322,-608.6652 535.6322,-586.6652 391.6322,-586.6652"/>
<image xlink:href="../../images/foreignKeys.png" width="11px" height="12px" preserveAspectRatio="xMinYMin meet" x="396.632" y="-603.665"/>
<text text-anchor="start" x="411.6322" y="-593.7652" font-family="Helvetica,sans-Serif" font-size="11.00" fill="#000000">created_by</text>
<polygon fill="#ffffff" stroke="transparent" points="391.6322,-564.6652 391.6322,-586.6652 535.6322,-586.6652 535.6322,-564.6652 391.6322,-564.6652"/>
<polygon fill="none" stroke="#000000" points="391.6322,-564.6652 391.6322,-586.6652 535.6322,-586.6652 535.6322,-564.6652 391.6322,-564.6652"/>
<image xlink:href="../../images/foreignKeys.png" width="11px" height="12px" preserveAspectRatio="xMinYMin meet" x="396.632" y="-581.665"/>
<text text-anchor="start" x="411.6322" y="-571.7652" font-family="Helvetica,sans-Serif" font-size="11.00" fill="#000000">updated_by</text>
<polygon fill="none" stroke="#000000" points="391.6322,-545.6652 391.6322,-564.6652 535.6322,-564.6652 535.6322,-545.6652 391.6322,-545.6652"/>
<text text-anchor="start" x="394.6322" y="-551.7652" font-family="Helvetica,sans-Serif" font-size="11.00" fill="#000000">...</text>
<polygon fill="#ffffff" stroke="transparent" points="391.6322,-526.6652 391.6322,-545.6652 535.6322,-545.6652 535.6322,-526.6652 391.6322,-526.6652"/>
<polygon fill="none" stroke="#000000" points="391.6322,-526.6652 391.6322,-545.6652 535.6322,-545.6652 535.6322,-526.6652 391.6322,-526.6652"/>
<polygon fill="#ffffff" stroke="transparent" points="392.6322,-527.6652 392.6322,-544.6652 446.6322,-544.6652 446.6322,-527.6652 392.6322,-527.6652"/>
<text text-anchor="start" x="394.6322" y="-532.7652" font-family="Helvetica,sans-Serif" font-size="11.00" fill="#000000">&lt; 3</text>
<polygon fill="#ffffff" stroke="transparent" points="446.6322,-527.6652 446.6322,-544.6652 490.6322,-544.6652 490.6322,-527.6652 446.6322,-527.6652"/>
<text text-anchor="start" x="465.5753" y="-532.7652" font-family="Helvetica,sans-Serif" font-size="11.00" fill="#000000"> &#160;</text>
<polygon fill="#ffffff" stroke="transparent" points="490.6322,-527.6652 490.6322,-544.6652 534.6322,-544.6652 534.6322,-527.6652 490.6322,-527.6652"/>
<text text-anchor="start" x="526.5184" y="-532.7652" font-family="Helvetica,sans-Serif" font-size="11.00" fill="#000000"> &#160;</text>
<polygon fill="#000000" stroke="#000000" points="446.6322,-527.6652 446.6322,-544.6652 446.6322,-544.6652 446.6322,-527.6652 446.6322,-527.6652"/>
<polygon fill="#000000" stroke="#000000" points="490.6322,-527.6652 490.6322,-544.6652 490.6322,-544.6652 490.6322,-527.6652 490.6322,-527.6652"/>
</a>
</g>
</g>
<!-- users -->
<g id="node11" class="node">
<title>users</title>
<g id="a_node11"><a xlink:href="../../tables/users.html" xlink:title="users" target="_top">
<polygon fill="#ffffff" stroke="transparent" points="43.1322,-464.1652 43.1322,-591.1652 136.1322,-591.1652 136.1322,-464.1652 43.1322,-464.1652"/>
<polygon fill="#f5f5f5" stroke="transparent" points="43.6322,-567.6652 43.6322,-590.6652 136.6322,-590.6652 136.6322,-567.6652 43.6322,-567.6652"/>
<polygon fill="none" stroke="#000000" points="43.6322,-567.6652 43.6322,-590.6652 136.6322,-590.6652 136.6322,-567.6652 43.6322,-567.6652"/>
<text text-anchor="start" x="48.6322" y="-576.2652" font-family="Helvetica,sans-Serif" font-weight="bold" font-size="11.00" fill="#000000">users</text>
<text text-anchor="start" x="101.6759" y="-575.7652" font-family="Helvetica,sans-Serif" font-size="11.00" fill="#000000">[table]</text>
<polygon fill="none" stroke="#000000" points="43.6322,-545.6652 43.6322,-567.6652 136.6322,-567.6652 136.6322,-545.6652 43.6322,-545.6652"/>
<image xlink:href="../../images/primaryKeys.png" width="11px" height="12px" preserveAspectRatio="xMinYMin meet" x="48.6322" y="-562.665"/>
<text text-anchor="start" x="63.6322" y="-552.7652" font-family="Helvetica,sans-Serif" font-size="11.00" fill="#000000">user_id</text>
<polygon fill="#ffffff" stroke="transparent" points="43.6322,-523.6652 43.6322,-545.6652 136.6322,-545.6652 136.6322,-523.6652 43.6322,-523.6652"/>
<polygon fill="none" stroke="#000000" points="43.6322,-523.6652 43.6322,-545.6652 136.6322,-545.6652 136.6322,-523.6652 43.6322,-523.6652"/>
<image xlink:href="../../images/foreignKeys.png" width="11px" height="12px" preserveAspectRatio="xMinYMin meet" x="48.6322" y="-540.665"/>
<text text-anchor="start" x="63.6322" y="-530.7652" font-family="Helvetica,sans-Serif" font-size="11.00" fill="#000000">created_by</text>
<polygon fill="#ffffff" stroke="transparent" points="43.6322,-501.6652 43.6322,-523.6652 136.6322,-523.6652 136.6322,-501.6652 43.6322,-501.6652"/>
<polygon fill="none" stroke="#000000" points="43.6322,-501.6652 43.6322,-523.6652 136.6322,-523.6652 136.6322,-501.6652 43.6322,-501.6652"/>
<image xlink:href="../../images/foreignKeys.png" width="11px" height="12px" preserveAspectRatio="xMinYMin meet" x="48.6322" y="-518.665"/>
<text text-anchor="start" x="63.6322" y="-508.7652" font-family="Helvetica,sans-Serif" font-size="11.00" fill="#000000">updated_by</text>
<polygon fill="none" stroke="#000000" points="43.6322,-482.6652 43.6322,-501.6652 136.6322,-501.6652 136.6322,-482.6652 43.6322,-482.6652"/>
<text text-anchor="start" x="46.6322" y="-488.7652" font-family="Helvetica,sans-Serif" font-size="11.00" fill="#000000">...</text>
<polygon fill="#ffffff" stroke="transparent" points="43.6322,-463.6652 43.6322,-482.6652 136.6322,-482.6652 136.6322,-463.6652 43.6322,-463.6652"/>
<polygon fill="none" stroke="#000000" points="43.6322,-463.6652 43.6322,-482.6652 136.6322,-482.6652 136.6322,-463.6652 43.6322,-463.6652"/>
<polygon fill="#ffffff" stroke="transparent" points="44.6322,-464.6652 44.6322,-481.6652 76.6322,-481.6652 76.6322,-464.6652 44.6322,-464.6652"/>
<text text-anchor="start" x="46.6322" y="-469.7652" font-family="Helvetica,sans-Serif" font-size="11.00" fill="#000000">&lt; 2</text>
<polygon fill="#ffffff" stroke="transparent" points="76.6322,-464.6652 76.6322,-481.6652 98.6322,-481.6652 98.6322,-464.6652 76.6322,-464.6652"/>
<text text-anchor="start" x="84.5753" y="-469.7652" font-family="Helvetica,sans-Serif" font-size="11.00" fill="#000000"> &#160;</text>
<polygon fill="#ffffff" stroke="transparent" points="98.6322,-464.6652 98.6322,-481.6652 135.6322,-481.6652 135.6322,-464.6652 98.6322,-464.6652"/>
<text text-anchor="start" x="111.9226" y="-469.7652" font-family="Helvetica,sans-Serif" font-size="11.00" fill="#000000">18 &gt;</text>
<polygon fill="#000000" stroke="#000000" points="76.6322,-464.6652 76.6322,-481.6652 76.6322,-481.6652 76.6322,-464.6652 76.6322,-464.6652"/>
<polygon fill="#000000" stroke="#000000" points="98.6322,-464.6652 98.6322,-481.6652 98.6322,-481.6652 98.6322,-464.6652 98.6322,-464.6652"/>
</a>
</g>
</g>
<!-- payments&#45;&gt;users -->
<g id="edge5" class="edge">
<title>payments:w&#45;&gt;users:e</title>
<path fill="none" stroke="#000000" d="M377.0732,-597.7678C296.3461,-598.9017 268.1608,-608.5876 184.6322,-583.6652 161.1772,-576.667 161.1089,-556.6652 136.6322,-556.6652"/>
<polygon fill="#000000" stroke="#000000" points="383.6324,-597.7216 391.6575,-601.2651 387.6323,-597.6934 391.6322,-597.6652 391.6322,-597.6652 391.6322,-597.6652 387.6323,-597.6934 391.6068,-594.0653 383.6324,-597.7216 383.6324,-597.7216"/>
<ellipse fill="none" stroke="#000000" cx="380.4324" cy="-597.7442" rx="3.2" ry="3.2"/>
</g>
<!-- payments&#45;&gt;users -->
<g id="edge7" class="edge">
<title>payments:w&#45;&gt;users:e</title>
<path fill="none" stroke="#000000" d="M377.3662,-573.3348C339.3734,-557.9964 397.86,-471.0456 350.6322,-435.6652 321.1089,-413.5481 215.1491,-414.9407 184.6322,-435.6652 136.7709,-468.1685 194.4868,-556.6652 136.6322,-556.6652"/>
<polygon fill="#000000" stroke="#000000" points="383.7368,-574.3754 391.0518,-579.2181 387.6845,-575.0203 391.6322,-575.6652 391.6322,-575.6652 391.6322,-575.6652 387.6845,-575.0203 392.2126,-572.1123 383.7368,-574.3754 383.7368,-574.3754"/>
<ellipse fill="none" stroke="#000000" cx="380.5787" cy="-573.8595" rx="3.2" ry="3.2"/>
</g>
<!-- paymentgateways -->
<g id="node13" class="node">
<title>paymentgateways</title>
<g id="a_node13"><a xlink:href="../../tables/paymentgateways.html" xlink:title="paymentgateways" target="_top">
<polygon fill="#ffffff" stroke="transparent" points="192.6322,-622.1652 192.6322,-749.1652 342.6322,-749.1652 342.6322,-622.1652 192.6322,-622.1652"/>
<polygon fill="#f5f5f5" stroke="transparent" points="192.6322,-725.6652 192.6322,-748.6652 342.6322,-748.6652 342.6322,-725.6652 192.6322,-725.6652"/>
<polygon fill="none" stroke="#000000" points="192.6322,-725.6652 192.6322,-748.6652 342.6322,-748.6652 342.6322,-725.6652 192.6322,-725.6652"/>
<text text-anchor="start" x="197.6322" y="-734.2652" font-family="Helvetica,sans-Serif" font-weight="bold" font-size="11.00" fill="#000000">paymentgateways</text>
<text text-anchor="start" x="308.154" y="-733.7652" font-family="Helvetica,sans-Serif" font-size="11.00" fill="#000000">[table]</text>
<polygon fill="none" stroke="#000000" points="192.6322,-703.6652 192.6322,-725.6652 342.6322,-725.6652 342.6322,-703.6652 192.6322,-703.6652"/>
<image xlink:href="../../images/primaryKeys.png" width="11px" height="12px" preserveAspectRatio="xMinYMin meet" x="197.632" y="-720.665"/>
<text text-anchor="start" x="215.6322" y="-710.7652" font-family="Helvetica,sans-Serif" font-size="11.00" fill="#000000">paymentgateway_id</text>
<polygon fill="none" stroke="#000000" points="192.6322,-681.6652 192.6322,-703.6652 342.6322,-703.6652 342.6322,-681.6652 192.6322,-681.6652"/>
<image xlink:href="../../images/foreignKeys.png" width="11px" height="12px" preserveAspectRatio="xMinYMin meet" x="197.632" y="-698.665"/>
<text text-anchor="start" x="215.6322" y="-688.7652" font-family="Helvetica,sans-Serif" font-size="11.00" fill="#000000">created_by</text>
<polygon fill="none" stroke="#000000" points="192.6322,-659.6652 192.6322,-681.6652 342.6322,-681.6652 342.6322,-659.6652 192.6322,-659.6652"/>
<image xlink:href="../../images/foreignKeys.png" width="11px" height="12px" preserveAspectRatio="xMinYMin meet" x="197.632" y="-676.665"/>
<text text-anchor="start" x="215.6322" y="-666.7652" font-family="Helvetica,sans-Serif" font-size="11.00" fill="#000000">updated_by</text>
<polygon fill="none" stroke="#000000" points="192.6322,-640.6652 192.6322,-659.6652 342.6322,-659.6652 342.6322,-640.6652 192.6322,-640.6652"/>
<text text-anchor="start" x="195.6322" y="-646.7652" font-family="Helvetica,sans-Serif" font-size="11.00" fill="#000000">...</text>
<polygon fill="#ffffff" stroke="transparent" points="192.6322,-621.6652 192.6322,-640.6652 342.6322,-640.6652 342.6322,-621.6652 192.6322,-621.6652"/>
<polygon fill="none" stroke="#000000" points="192.6322,-621.6652 192.6322,-640.6652 342.6322,-640.6652 342.6322,-621.6652 192.6322,-621.6652"/>
<polygon fill="#ffffff" stroke="transparent" points="193.6322,-622.6652 193.6322,-639.6652 246.6322,-639.6652 246.6322,-622.6652 193.6322,-622.6652"/>
<text text-anchor="start" x="195.6322" y="-627.7652" font-family="Helvetica,sans-Serif" font-size="11.00" fill="#000000">&lt; 2</text>
<polygon fill="#ffffff" stroke="transparent" points="246.6322,-622.6652 246.6322,-639.6652 289.6322,-639.6652 289.6322,-622.6652 246.6322,-622.6652"/>
<text text-anchor="start" x="265.0753" y="-627.7652" font-family="Helvetica,sans-Serif" font-size="11.00" fill="#000000"> &#160;</text>
<polygon fill="#ffffff" stroke="transparent" points="289.6322,-622.6652 289.6322,-639.6652 341.6322,-639.6652 341.6322,-622.6652 289.6322,-622.6652"/>
<text text-anchor="start" x="324.0375" y="-627.7652" font-family="Helvetica,sans-Serif" font-size="11.00" fill="#000000">1 &gt;</text>
<polygon fill="#000000" stroke="#000000" points="246.6322,-622.6652 246.6322,-639.6652 246.6322,-639.6652 246.6322,-622.6652 246.6322,-622.6652"/>
<polygon fill="#000000" stroke="#000000" points="289.6322,-622.6652 289.6322,-639.6652 289.6322,-639.6652 289.6322,-622.6652 289.6322,-622.6652"/>
</a>
</g>
</g>
<!-- payments&#45;&gt;paymentgateways -->
<g id="edge6" class="edge">
<title>payments:w&#45;&gt;paymentgateways:e</title>
<path fill="none" stroke="#000000" d="M377.792,-646.4549C360.0005,-662.6955 375.6023,-714.6652 342.6322,-714.6652"/>
<polygon fill="#000000" stroke="#000000" points="384.0721,-644.2816 392.8095,-645.0672 387.8521,-642.9734 391.6322,-641.6652 391.6322,-641.6652 391.6322,-641.6652 387.8521,-642.9734 390.4548,-638.2632 384.0721,-644.2816 384.0721,-644.2816"/>
<ellipse fill="none" stroke="#000000" cx="381.048" cy="-645.3281" rx="3.2" ry="3.2"/>
</g>
<!-- role_modules -->
<g id="node2" class="node">
<title>role_modules</title>
<g id="a_node2"><a xlink:href="../../tables/role_modules.html" xlink:title="role_modules" target="_top">
<polygon fill="#ffffff" stroke="transparent" points="206.1322,-940.1652 206.1322,-1089.1652 329.1322,-1089.1652 329.1322,-940.1652 206.1322,-940.1652"/>
<polygon fill="#f5f5f5" stroke="transparent" points="206.6322,-1065.6652 206.6322,-1088.6652 329.6322,-1088.6652 329.6322,-1065.6652 206.6322,-1065.6652"/>
<polygon fill="none" stroke="#000000" points="206.6322,-1065.6652 206.6322,-1088.6652 329.6322,-1088.6652 329.6322,-1065.6652 206.6322,-1065.6652"/>
<text text-anchor="start" x="211.6322" y="-1074.2652" font-family="Helvetica,sans-Serif" font-weight="bold" font-size="11.00" fill="#000000">role_modules</text>
<text text-anchor="start" x="295.154" y="-1073.7652" font-family="Helvetica,sans-Serif" font-size="11.00" fill="#000000">[table]</text>
<polygon fill="none" stroke="#000000" points="206.6322,-1043.6652 206.6322,-1065.6652 329.6322,-1065.6652 329.6322,-1043.6652 206.6322,-1043.6652"/>
<image xlink:href="../../images/primaryKeys.png" width="11px" height="12px" preserveAspectRatio="xMinYMin meet" x="211.632" y="-1060.67"/>
<text text-anchor="start" x="235.6322" y="-1050.7652" font-family="Helvetica,sans-Serif" font-size="11.00" fill="#000000">module_id</text>
<polygon fill="none" stroke="#000000" points="206.6322,-1021.6652 206.6322,-1043.6652 329.6322,-1043.6652 329.6322,-1021.6652 206.6322,-1021.6652"/>
<image xlink:href="../../images/primaryKeys.png" width="11px" height="12px" preserveAspectRatio="xMinYMin meet" x="211.632" y="-1038.67"/>
<text text-anchor="start" x="235.6322" y="-1028.7652" font-family="Helvetica,sans-Serif" font-size="11.00" fill="#000000">role_id</text>
<polygon fill="#ffffff" stroke="transparent" points="206.6322,-999.6652 206.6322,-1021.6652 329.6322,-1021.6652 329.6322,-999.6652 206.6322,-999.6652"/>
<polygon fill="none" stroke="#000000" points="206.6322,-999.6652 206.6322,-1021.6652 329.6322,-1021.6652 329.6322,-999.6652 206.6322,-999.6652"/>
<image xlink:href="../../images/foreignKeys.png" width="11px" height="12px" preserveAspectRatio="xMinYMin meet" x="211.632" y="-1016.67"/>
<text text-anchor="start" x="235.6322" y="-1006.7652" font-family="Helvetica,sans-Serif" font-size="11.00" fill="#000000">updated_by</text>
<polygon fill="#ffffff" stroke="transparent" points="206.6322,-977.6652 206.6322,-999.6652 329.6322,-999.6652 329.6322,-977.6652 206.6322,-977.6652"/>
<polygon fill="none" stroke="#000000" points="206.6322,-977.6652 206.6322,-999.6652 329.6322,-999.6652 329.6322,-977.6652 206.6322,-977.6652"/>
<image xlink:href="../../images/foreignKeys.png" width="11px" height="12px" preserveAspectRatio="xMinYMin meet" x="211.632" y="-994.665"/>
<text text-anchor="start" x="235.6322" y="-984.7652" font-family="Helvetica,sans-Serif" font-size="11.00" fill="#000000">created_by</text>
<polygon fill="none" stroke="#000000" points="206.6322,-958.6652 206.6322,-977.6652 329.6322,-977.6652 329.6322,-958.6652 206.6322,-958.6652"/>
<text text-anchor="start" x="209.6322" y="-964.7652" font-family="Helvetica,sans-Serif" font-size="11.00" fill="#000000">...</text>
<polygon fill="#ffffff" stroke="transparent" points="206.6322,-939.6652 206.6322,-958.6652 329.6322,-958.6652 329.6322,-939.6652 206.6322,-939.6652"/>
<polygon fill="none" stroke="#000000" points="206.6322,-939.6652 206.6322,-958.6652 329.6322,-958.6652 329.6322,-939.6652 206.6322,-939.6652"/>
<polygon fill="#ffffff" stroke="transparent" points="207.6322,-940.6652 207.6322,-957.6652 254.6322,-957.6652 254.6322,-940.6652 207.6322,-940.6652"/>
<text text-anchor="start" x="209.6322" y="-945.7652" font-family="Helvetica,sans-Serif" font-size="11.00" fill="#000000">&lt; 4</text>
<polygon fill="#ffffff" stroke="transparent" points="254.6322,-940.6652 254.6322,-957.6652 291.6322,-957.6652 291.6322,-940.6652 254.6322,-940.6652"/>
<text text-anchor="start" x="270.0753" y="-945.7652" font-family="Helvetica,sans-Serif" font-size="11.00" fill="#000000"> &#160;</text>
<polygon fill="#ffffff" stroke="transparent" points="291.6322,-940.6652 291.6322,-957.6652 328.6322,-957.6652 328.6322,-940.6652 291.6322,-940.6652"/>
<text text-anchor="start" x="320.5184" y="-945.7652" font-family="Helvetica,sans-Serif" font-size="11.00" fill="#000000"> &#160;</text>
<polygon fill="#000000" stroke="#000000" points="254.6322,-940.6652 254.6322,-957.6652 254.6322,-957.6652 254.6322,-940.6652 254.6322,-940.6652"/>
<polygon fill="#000000" stroke="#000000" points="291.6322,-940.6652 291.6322,-957.6652 291.6322,-957.6652 291.6322,-940.6652 291.6322,-940.6652"/>
</a>
</g>
</g>
<!-- modules -->
<g id="node7" class="node">
<title>modules</title>
<g id="a_node7"><a xlink:href="../../tables/modules.html" xlink:title="modules" target="_top">
<polygon fill="#ffffff" stroke="transparent" points="35.6322,-1006.1652 35.6322,-1089.1652 143.6322,-1089.1652 143.6322,-1006.1652 35.6322,-1006.1652"/>
<polygon fill="#f5f5f5" stroke="transparent" points="35.6322,-1065.6652 35.6322,-1088.6652 143.6322,-1088.6652 143.6322,-1065.6652 35.6322,-1065.6652"/>
<polygon fill="none" stroke="#000000" points="35.6322,-1065.6652 35.6322,-1088.6652 143.6322,-1088.6652 143.6322,-1065.6652 35.6322,-1065.6652"/>
<text text-anchor="start" x="40.6322" y="-1074.2652" font-family="Helvetica,sans-Serif" font-weight="bold" font-size="11.00" fill="#000000">modules</text>
<text text-anchor="start" x="108.6759" y="-1073.7652" font-family="Helvetica,sans-Serif" font-size="11.00" fill="#000000">[table]</text>
<polygon fill="none" stroke="#000000" points="35.6322,-1043.6652 35.6322,-1065.6652 143.6322,-1065.6652 143.6322,-1043.6652 35.6322,-1043.6652"/>
<image xlink:href="../../images/primaryKeys.png" width="11px" height="12px" preserveAspectRatio="xMinYMin meet" x="40.6322" y="-1060.67"/>
<text text-anchor="start" x="55.6322" y="-1050.7652" font-family="Helvetica,sans-Serif" font-size="11.00" fill="#000000">module_id</text>
<polygon fill="none" stroke="#000000" points="35.6322,-1024.6652 35.6322,-1043.6652 143.6322,-1043.6652 143.6322,-1024.6652 35.6322,-1024.6652"/>
<text text-anchor="start" x="38.6322" y="-1030.7652" font-family="Helvetica,sans-Serif" font-size="11.00" fill="#000000">...</text>
<polygon fill="#ffffff" stroke="transparent" points="35.6322,-1005.6652 35.6322,-1024.6652 143.6322,-1024.6652 143.6322,-1005.6652 35.6322,-1005.6652"/>
<polygon fill="none" stroke="#000000" points="35.6322,-1005.6652 35.6322,-1024.6652 143.6322,-1024.6652 143.6322,-1005.6652 35.6322,-1005.6652"/>
<polygon fill="#ffffff" stroke="transparent" points="36.6322,-1006.6652 36.6322,-1023.6652 69.6322,-1023.6652 69.6322,-1006.6652 36.6322,-1006.6652"/>
<text text-anchor="start" x="38.6322" y="-1011.7652" font-family="Helvetica,sans-Serif" font-size="11.00" fill="#000000"> &#160;</text>
<polygon fill="#ffffff" stroke="transparent" points="69.6322,-1006.6652 69.6322,-1023.6652 101.6322,-1023.6652 101.6322,-1006.6652 69.6322,-1006.6652"/>
<text text-anchor="start" x="82.5753" y="-1011.7652" font-family="Helvetica,sans-Serif" font-size="11.00" fill="#000000"> &#160;</text>
<polygon fill="#ffffff" stroke="transparent" points="101.6322,-1006.6652 101.6322,-1023.6652 142.6322,-1023.6652 142.6322,-1006.6652 101.6322,-1006.6652"/>
<text text-anchor="start" x="125.0375" y="-1011.7652" font-family="Helvetica,sans-Serif" font-size="11.00" fill="#000000">1 &gt;</text>
<polygon fill="#000000" stroke="#000000" points="69.6322,-1006.6652 69.6322,-1023.6652 69.6322,-1023.6652 69.6322,-1006.6652 69.6322,-1006.6652"/>
<polygon fill="#000000" stroke="#000000" points="101.6322,-1006.6652 101.6322,-1023.6652 101.6322,-1023.6652 101.6322,-1006.6652 101.6322,-1006.6652"/>
</a>
</g>
</g>
<!-- role_modules&#45;&gt;modules -->
<g id="edge13" class="edge">
<title>role_modules:w&#45;&gt;modules:e</title>
<path fill="none" stroke="#000000" d="M191.817,-1054.6652C174.922,-1054.6652 165.9447,-1054.6652 143.6322,-1054.6652"/>
<polygon fill="#000000" stroke="#000000" points="198.6322,-1054.6653 206.6322,-1058.2652 202.6322,-1054.6652 206.6322,-1054.6652 206.6322,-1054.6652 206.6322,-1054.6652 202.6322,-1054.6652 206.6321,-1051.0652 198.6322,-1054.6653 198.6322,-1054.6653"/>
<ellipse fill="none" stroke="#000000" cx="195.4322" cy="-1054.6653" rx="3.2" ry="3.2"/>
</g>
<!-- roles -->
<g id="node9" class="node">
<title>roles</title>
<g id="a_node9"><a xlink:href="../../tables/roles.html" xlink:title="roles" target="_top">
<polygon fill="#ffffff" stroke="transparent" points="43.1322,-858.1652 43.1322,-941.1652 136.1322,-941.1652 136.1322,-858.1652 43.1322,-858.1652"/>
<polygon fill="#f5f5f5" stroke="transparent" points="43.6322,-917.6652 43.6322,-940.6652 136.6322,-940.6652 136.6322,-917.6652 43.6322,-917.6652"/>
<polygon fill="none" stroke="#000000" points="43.6322,-917.6652 43.6322,-940.6652 136.6322,-940.6652 136.6322,-917.6652 43.6322,-917.6652"/>
<text text-anchor="start" x="48.6322" y="-926.2652" font-family="Helvetica,sans-Serif" font-weight="bold" font-size="11.00" fill="#000000">roles</text>
<text text-anchor="start" x="101.6759" y="-925.7652" font-family="Helvetica,sans-Serif" font-size="11.00" fill="#000000">[table]</text>
<polygon fill="none" stroke="#000000" points="43.6322,-895.6652 43.6322,-917.6652 136.6322,-917.6652 136.6322,-895.6652 43.6322,-895.6652"/>
<image xlink:href="../../images/primaryKeys.png" width="11px" height="12px" preserveAspectRatio="xMinYMin meet" x="48.6322" y="-912.665"/>
<text text-anchor="start" x="63.6322" y="-902.7652" font-family="Helvetica,sans-Serif" font-size="11.00" fill="#000000">role_id</text>
<polygon fill="none" stroke="#000000" points="43.6322,-876.6652 43.6322,-895.6652 136.6322,-895.6652 136.6322,-876.6652 43.6322,-876.6652"/>
<text text-anchor="start" x="46.6322" y="-882.7652" font-family="Helvetica,sans-Serif" font-size="11.00" fill="#000000">...</text>
<polygon fill="#ffffff" stroke="transparent" points="43.6322,-857.6652 43.6322,-876.6652 136.6322,-876.6652 136.6322,-857.6652 43.6322,-857.6652"/>
<polygon fill="none" stroke="#000000" points="43.6322,-857.6652 43.6322,-876.6652 136.6322,-876.6652 136.6322,-857.6652 43.6322,-857.6652"/>
<polygon fill="#ffffff" stroke="transparent" points="44.6322,-858.6652 44.6322,-875.6652 72.6322,-875.6652 72.6322,-858.6652 44.6322,-858.6652"/>
<text text-anchor="start" x="46.6322" y="-863.7652" font-family="Helvetica,sans-Serif" font-size="11.00" fill="#000000"> &#160;</text>
<polygon fill="#ffffff" stroke="transparent" points="72.6322,-858.6652 72.6322,-875.6652 99.6322,-875.6652 99.6322,-858.6652 72.6322,-858.6652"/>
<text text-anchor="start" x="83.0753" y="-863.7652" font-family="Helvetica,sans-Serif" font-size="11.00" fill="#000000"> &#160;</text>
<polygon fill="#ffffff" stroke="transparent" points="99.6322,-858.6652 99.6322,-875.6652 135.6322,-875.6652 135.6322,-858.6652 99.6322,-858.6652"/>
<text text-anchor="start" x="118.0375" y="-863.7652" font-family="Helvetica,sans-Serif" font-size="11.00" fill="#000000">2 &gt;</text>
<polygon fill="#000000" stroke="#000000" points="72.6322,-858.6652 72.6322,-875.6652 72.6322,-875.6652 72.6322,-858.6652 72.6322,-858.6652"/>
<polygon fill="#000000" stroke="#000000" points="99.6322,-858.6652 99.6322,-875.6652 99.6322,-875.6652 99.6322,-858.6652 99.6322,-858.6652"/>
</a>
</g>
</g>
<!-- role_modules&#45;&gt;roles -->
<g id="edge14" class="edge">
<title>role_modules:w&#45;&gt;roles:e</title>
<path fill="none" stroke="#000000" d="M192.4065,-1029.9163C151.8436,-1011.4901 195.0634,-906.6652 136.6322,-906.6652"/>
<polygon fill="#000000" stroke="#000000" points="198.7775,-1031.1474 205.9491,-1036.1998 202.7048,-1031.9063 206.6322,-1032.6652 206.6322,-1032.6652 206.6322,-1032.6652 202.7048,-1031.9063 207.3152,-1029.1306 198.7775,-1031.1474 198.7775,-1031.1474"/>
<ellipse fill="none" stroke="#000000" cx="195.6356" cy="-1030.5402" rx="3.2" ry="3.2"/>
</g>
<!-- role_modules&#45;&gt;users -->
<g id="edge12" class="edge">
<title>role_modules:w&#45;&gt;users:e</title>
<path fill="none" stroke="#000000" d="M192.5938,-984.9305C122.3345,-942.7072 228.5658,-556.6652 136.6322,-556.6652"/>
<polygon fill="#000000" stroke="#000000" points="198.9011,-986.6084 205.7066,-992.1442 202.7666,-987.6368 206.6322,-988.6652 206.6322,-988.6652 206.6322,-988.6652 202.7666,-987.6368 207.5577,-985.1862 198.9011,-986.6084 198.9011,-986.6084"/>
<ellipse fill="none" stroke="#000000" cx="195.8086" cy="-985.7857" rx="3.2" ry="3.2"/>
</g>
<!-- role_modules&#45;&gt;users -->
<g id="edge15" class="edge">
<title>role_modules:w&#45;&gt;users:e</title>
<path fill="none" stroke="#000000" d="M192.3842,-1007.0107C118.044,-964.0449 233.33,-556.6652 136.6322,-556.6652"/>
<polygon fill="#000000" stroke="#000000" points="198.883,-1008.6776 205.7377,-1014.1523 202.7576,-1009.6714 206.6322,-1010.6652 206.6322,-1010.6652 206.6322,-1010.6652 202.7576,-1009.6714 207.5266,-1007.1781 198.883,-1008.6776 198.883,-1008.6776"/>
<ellipse fill="none" stroke="#000000" cx="195.7833" cy="-1007.8825" rx="3.2" ry="3.2"/>
</g>
<!-- paymentstatus -->
<g id="node3" class="node">
<title>paymentstatus</title>
<g id="a_node3"><a xlink:href="../../tables/paymentstatus.html" xlink:title="paymentstatus" target="_top">
<polygon fill="#ffffff" stroke="transparent" points="644.6322,-921.1652 644.6322,-1004.1652 775.6322,-1004.1652 775.6322,-921.1652 644.6322,-921.1652"/>
<polygon fill="#f5f5f5" stroke="transparent" points="645.1322,-980.6652 645.1322,-1003.6652 776.1322,-1003.6652 776.1322,-980.6652 645.1322,-980.6652"/>
<polygon fill="none" stroke="#000000" points="645.1322,-980.6652 645.1322,-1003.6652 776.1322,-1003.6652 776.1322,-980.6652 645.1322,-980.6652"/>
<text text-anchor="start" x="650.1322" y="-989.2652" font-family="Helvetica,sans-Serif" font-weight="bold" font-size="11.00" fill="#000000">paymentstatus</text>
<text text-anchor="start" x="741.654" y="-988.7652" font-family="Helvetica,sans-Serif" font-size="11.00" fill="#000000">[table]</text>
<polygon fill="none" stroke="#000000" points="645.1322,-958.6652 645.1322,-980.6652 776.1322,-980.6652 776.1322,-958.6652 645.1322,-958.6652"/>
<image xlink:href="../../images/primaryKeys.png" width="11px" height="12px" preserveAspectRatio="xMinYMin meet" x="650.132" y="-975.665"/>
<text text-anchor="start" x="665.1322" y="-965.7652" font-family="Helvetica,sans-Serif" font-size="11.00" fill="#000000">paymentstatus_id</text>
<polygon fill="none" stroke="#000000" points="645.1322,-939.6652 645.1322,-958.6652 776.1322,-958.6652 776.1322,-939.6652 645.1322,-939.6652"/>
<text text-anchor="start" x="648.1322" y="-945.7652" font-family="Helvetica,sans-Serif" font-size="11.00" fill="#000000">...</text>
<polygon fill="#ffffff" stroke="transparent" points="645.1322,-920.6652 645.1322,-939.6652 776.1322,-939.6652 776.1322,-920.6652 645.1322,-920.6652"/>
<polygon fill="none" stroke="#000000" points="645.1322,-920.6652 645.1322,-939.6652 776.1322,-939.6652 776.1322,-920.6652 645.1322,-920.6652"/>
<polygon fill="#ffffff" stroke="transparent" points="646.1322,-921.6652 646.1322,-938.6652 689.1322,-938.6652 689.1322,-921.6652 646.1322,-921.6652"/>
<text text-anchor="start" x="648.1322" y="-926.7652" font-family="Helvetica,sans-Serif" font-size="11.00" fill="#000000"> &#160;</text>
<polygon fill="#ffffff" stroke="transparent" points="689.1322,-921.6652 689.1322,-938.6652 732.1322,-938.6652 732.1322,-921.6652 689.1322,-921.6652"/>
<text text-anchor="start" x="707.5753" y="-926.7652" font-family="Helvetica,sans-Serif" font-size="11.00" fill="#000000"> &#160;</text>
<polygon fill="#ffffff" stroke="transparent" points="732.1322,-921.6652 732.1322,-938.6652 775.1322,-938.6652 775.1322,-921.6652 732.1322,-921.6652"/>
<text text-anchor="start" x="767.0184" y="-926.7652" font-family="Helvetica,sans-Serif" font-size="11.00" fill="#000000"> &#160;</text>
<polygon fill="#000000" stroke="#000000" points="689.1322,-921.6652 689.1322,-938.6652 689.1322,-938.6652 689.1322,-921.6652 689.1322,-921.6652"/>
<polygon fill="#000000" stroke="#000000" points="732.1322,-921.6652 732.1322,-938.6652 732.1322,-938.6652 732.1322,-921.6652 732.1322,-921.6652"/>
</a>
</g>
</g>
<!-- user_roles -->
<g id="node4" class="node">
<title>user_roles</title>
<g id="a_node4"><a xlink:href="../../tables/user_roles.html" xlink:title="user_roles" target="_top">
<polygon fill="#ffffff" stroke="transparent" points="215.6322,-770.1652 215.6322,-919.1652 319.6322,-919.1652 319.6322,-770.1652 215.6322,-770.1652"/>
<polygon fill="#f5f5f5" stroke="transparent" points="215.6322,-895.6652 215.6322,-918.6652 319.6322,-918.6652 319.6322,-895.6652 215.6322,-895.6652"/>
<polygon fill="none" stroke="#000000" points="215.6322,-895.6652 215.6322,-918.6652 319.6322,-918.6652 319.6322,-895.6652 215.6322,-895.6652"/>
<text text-anchor="start" x="220.6322" y="-904.2652" font-family="Helvetica,sans-Serif" font-weight="bold" font-size="11.00" fill="#000000">user_roles</text>
<text text-anchor="start" x="285.154" y="-903.7652" font-family="Helvetica,sans-Serif" font-size="11.00" fill="#000000">[table]</text>
<polygon fill="none" stroke="#000000" points="215.6322,-873.6652 215.6322,-895.6652 319.6322,-895.6652 319.6322,-873.6652 215.6322,-873.6652"/>
<image xlink:href="../../images/primaryKeys.png" width="11px" height="12px" preserveAspectRatio="xMinYMin meet" x="220.632" y="-890.665"/>
<text text-anchor="start" x="241.6322" y="-880.7652" font-family="Helvetica,sans-Serif" font-size="11.00" fill="#000000">user_id</text>
<polygon fill="none" stroke="#000000" points="215.6322,-851.6652 215.6322,-873.6652 319.6322,-873.6652 319.6322,-851.6652 215.6322,-851.6652"/>
<image xlink:href="../../images/primaryKeys.png" width="11px" height="12px" preserveAspectRatio="xMinYMin meet" x="220.632" y="-868.665"/>
<text text-anchor="start" x="241.6322" y="-858.7652" font-family="Helvetica,sans-Serif" font-size="11.00" fill="#000000">role_id</text>
<polygon fill="#ffffff" stroke="transparent" points="215.6322,-829.6652 215.6322,-851.6652 319.6322,-851.6652 319.6322,-829.6652 215.6322,-829.6652"/>
<polygon fill="none" stroke="#000000" points="215.6322,-829.6652 215.6322,-851.6652 319.6322,-851.6652 319.6322,-829.6652 215.6322,-829.6652"/>
<image xlink:href="../../images/foreignKeys.png" width="11px" height="12px" preserveAspectRatio="xMinYMin meet" x="220.632" y="-846.665"/>
<text text-anchor="start" x="241.6322" y="-836.7652" font-family="Helvetica,sans-Serif" font-size="11.00" fill="#000000">created_by</text>
<polygon fill="#ffffff" stroke="transparent" points="215.6322,-807.6652 215.6322,-829.6652 319.6322,-829.6652 319.6322,-807.6652 215.6322,-807.6652"/>
<polygon fill="none" stroke="#000000" points="215.6322,-807.6652 215.6322,-829.6652 319.6322,-829.6652 319.6322,-807.6652 215.6322,-807.6652"/>
<image xlink:href="../../images/foreignKeys.png" width="11px" height="12px" preserveAspectRatio="xMinYMin meet" x="220.632" y="-824.665"/>
<text text-anchor="start" x="241.6322" y="-814.7652" font-family="Helvetica,sans-Serif" font-size="11.00" fill="#000000">updated_by</text>
<polygon fill="none" stroke="#000000" points="215.6322,-788.6652 215.6322,-807.6652 319.6322,-807.6652 319.6322,-788.6652 215.6322,-788.6652"/>
<text text-anchor="start" x="218.6322" y="-794.7652" font-family="Helvetica,sans-Serif" font-size="11.00" fill="#000000">...</text>
<polygon fill="#ffffff" stroke="transparent" points="215.6322,-769.6652 215.6322,-788.6652 319.6322,-788.6652 319.6322,-769.6652 215.6322,-769.6652"/>
<polygon fill="none" stroke="#000000" points="215.6322,-769.6652 215.6322,-788.6652 319.6322,-788.6652 319.6322,-769.6652 215.6322,-769.6652"/>
<polygon fill="#ffffff" stroke="transparent" points="216.6322,-770.6652 216.6322,-787.6652 256.6322,-787.6652 256.6322,-770.6652 216.6322,-770.6652"/>
<text text-anchor="start" x="218.6322" y="-775.7652" font-family="Helvetica,sans-Serif" font-size="11.00" fill="#000000">&lt; 4</text>
<polygon fill="#ffffff" stroke="transparent" points="256.6322,-770.6652 256.6322,-787.6652 287.6322,-787.6652 287.6322,-770.6652 256.6322,-770.6652"/>
<text text-anchor="start" x="269.0753" y="-775.7652" font-family="Helvetica,sans-Serif" font-size="11.00" fill="#000000"> &#160;</text>
<polygon fill="#ffffff" stroke="transparent" points="287.6322,-770.6652 287.6322,-787.6652 318.6322,-787.6652 318.6322,-770.6652 287.6322,-770.6652"/>
<text text-anchor="start" x="310.5184" y="-775.7652" font-family="Helvetica,sans-Serif" font-size="11.00" fill="#000000"> &#160;</text>
<polygon fill="#000000" stroke="#000000" points="256.6322,-770.6652 256.6322,-787.6652 256.6322,-787.6652 256.6322,-770.6652 256.6322,-770.6652"/>
<polygon fill="#000000" stroke="#000000" points="287.6322,-770.6652 287.6322,-787.6652 287.6322,-787.6652 287.6322,-770.6652 287.6322,-770.6652"/>
</a>
</g>
</g>
<!-- user_roles&#45;&gt;roles -->
<g id="edge19" class="edge">
<title>user_roles:w&#45;&gt;roles:e</title>
<path fill="none" stroke="#000000" d="M201.2667,-864.9077C175.0426,-873.874 171.3271,-906.6652 136.6322,-906.6652"/>
<polygon fill="#000000" stroke="#000000" points="207.7279,-863.8991 216.1874,-866.2221 211.68,-863.2822 215.6322,-862.6652 215.6322,-862.6652 215.6322,-862.6652 211.68,-863.2822 215.0769,-859.1083 207.7279,-863.8991 207.7279,-863.8991"/>
<ellipse fill="none" stroke="#000000" cx="204.5662" cy="-864.3927" rx="3.2" ry="3.2"/>
</g>
<!-- user_roles&#45;&gt;users -->
<g id="edge18" class="edge">
<title>user_roles:w&#45;&gt;users:e</title>
<path fill="none" stroke="#000000" d="M202.0352,-835.4934C157.7017,-797.002 196.8938,-556.6652 136.6322,-556.6652"/>
<polygon fill="#000000" stroke="#000000" points="208.1548,-837.821 214.3523,-844.03 211.8935,-839.2431 215.6322,-840.6652 215.6322,-840.6652 215.6322,-840.6652 211.8935,-839.2431 216.912,-837.3004 208.1548,-837.821 208.1548,-837.821"/>
<ellipse fill="none" stroke="#000000" cx="205.1638" cy="-836.6834" rx="3.2" ry="3.2"/>
</g>
<!-- user_roles&#45;&gt;users -->
<g id="edge20" class="edge">
<title>user_roles:w&#45;&gt;users:e</title>
<path fill="none" stroke="#000000" d="M201.2056,-817.1918C107.893,-796.1438 252.9102,-556.6652 136.6322,-556.6652"/>
<polygon fill="#000000" stroke="#000000" points="207.6736,-817.8523 215.2664,-822.2466 211.6529,-818.2588 215.6322,-818.6652 215.6322,-818.6652 215.6322,-818.6652 211.6529,-818.2588 215.998,-815.0838 207.6736,-817.8523 207.6736,-817.8523"/>
<ellipse fill="none" stroke="#000000" cx="204.4901" cy="-817.5271" rx="3.2" ry="3.2"/>
</g>
<!-- user_roles&#45;&gt;users -->
<g id="edge21" class="edge">
<title>user_roles:w&#45;&gt;users:e</title>
<path fill="none" stroke="#000000" d="M201.8803,-880.0285C149.9144,-840.1618 206.3338,-556.6652 136.6322,-556.6652"/>
<polygon fill="#000000" stroke="#000000" points="208.0515,-882.1092 214.482,-888.0765 211.8418,-883.3872 215.6322,-884.6652 215.6322,-884.6652 215.6322,-884.6652 211.8418,-883.3872 216.7824,-881.2539 208.0515,-882.1092 208.0515,-882.1092"/>
<ellipse fill="none" stroke="#000000" cx="205.0192" cy="-881.0868" rx="3.2" ry="3.2"/>
</g>
<!-- systemsetting -->
<g id="node5" class="node">
<title>systemsetting</title>
<g id="a_node5"><a xlink:href="../../tables/systemsetting.html" xlink:title="systemsetting" target="_top">
<polygon fill="#ffffff" stroke="transparent" points="644.6322,-725.1652 644.6322,-808.1652 771.6322,-808.1652 771.6322,-725.1652 644.6322,-725.1652"/>
<polygon fill="#f5f5f5" stroke="transparent" points="645.1322,-784.6652 645.1322,-807.6652 772.1322,-807.6652 772.1322,-784.6652 645.1322,-784.6652"/>
<polygon fill="none" stroke="#000000" points="645.1322,-784.6652 645.1322,-807.6652 772.1322,-807.6652 772.1322,-784.6652 645.1322,-784.6652"/>
<text text-anchor="start" x="650.1322" y="-793.2652" font-family="Helvetica,sans-Serif" font-weight="bold" font-size="11.00" fill="#000000">systemsetting</text>
<text text-anchor="start" x="737.654" y="-792.7652" font-family="Helvetica,sans-Serif" font-size="11.00" fill="#000000">[table]</text>
<polygon fill="none" stroke="#000000" points="645.1322,-762.6652 645.1322,-784.6652 772.1322,-784.6652 772.1322,-762.6652 645.1322,-762.6652"/>
<image xlink:href="../../images/primaryKeys.png" width="11px" height="12px" preserveAspectRatio="xMinYMin meet" x="650.132" y="-779.665"/>
<text text-anchor="start" x="665.1322" y="-769.7652" font-family="Helvetica,sans-Serif" font-size="11.00" fill="#000000">systemsetting_id</text>
<polygon fill="none" stroke="#000000" points="645.1322,-743.6652 645.1322,-762.6652 772.1322,-762.6652 772.1322,-743.6652 645.1322,-743.6652"/>
<text text-anchor="start" x="648.1322" y="-749.7652" font-family="Helvetica,sans-Serif" font-size="11.00" fill="#000000">...</text>
<polygon fill="#ffffff" stroke="transparent" points="645.1322,-724.6652 645.1322,-743.6652 772.1322,-743.6652 772.1322,-724.6652 645.1322,-724.6652"/>
<polygon fill="none" stroke="#000000" points="645.1322,-724.6652 645.1322,-743.6652 772.1322,-743.6652 772.1322,-724.6652 645.1322,-724.6652"/>
<polygon fill="#ffffff" stroke="transparent" points="646.1322,-725.6652 646.1322,-742.6652 681.1322,-742.6652 681.1322,-725.6652 646.1322,-725.6652"/>
<text text-anchor="start" x="648.1322" y="-730.7652" font-family="Helvetica,sans-Serif" font-size="11.00" fill="#000000"> &#160;</text>
<polygon fill="#ffffff" stroke="transparent" points="681.1322,-725.6652 681.1322,-742.6652 736.1322,-742.6652 736.1322,-725.6652 681.1322,-725.6652"/>
<text text-anchor="start" x="695.1874" y="-730.7652" font-family="Helvetica,sans-Serif" font-size="11.00" fill="#000000">1 row</text>
<polygon fill="#ffffff" stroke="transparent" points="736.1322,-725.6652 736.1322,-742.6652 771.1322,-742.6652 771.1322,-725.6652 736.1322,-725.6652"/>
<text text-anchor="start" x="763.0184" y="-730.7652" font-family="Helvetica,sans-Serif" font-size="11.00" fill="#000000"> &#160;</text>
<polygon fill="#000000" stroke="#000000" points="681.1322,-725.6652 681.1322,-742.6652 681.1322,-742.6652 681.1322,-725.6652 681.1322,-725.6652"/>
<polygon fill="#000000" stroke="#000000" points="736.1322,-725.6652 736.1322,-742.6652 736.1322,-742.6652 736.1322,-725.6652 736.1322,-725.6652"/>
</a>
</g>
</g>
<!-- customers -->
<g id="node6" class="node">
<title>customers</title>
<g id="a_node6"><a xlink:href="../../tables/customers.html" xlink:title="customers" target="_top">
<polygon fill="#ffffff" stroke="transparent" points="209.1322,-446.1652 209.1322,-573.1652 326.1322,-573.1652 326.1322,-446.1652 209.1322,-446.1652"/>
<polygon fill="#f5f5f5" stroke="transparent" points="209.6322,-549.6652 209.6322,-572.6652 326.6322,-572.6652 326.6322,-549.6652 209.6322,-549.6652"/>
<polygon fill="none" stroke="#000000" points="209.6322,-549.6652 209.6322,-572.6652 326.6322,-572.6652 326.6322,-549.6652 209.6322,-549.6652"/>
<text text-anchor="start" x="214.6322" y="-558.2652" font-family="Helvetica,sans-Serif" font-weight="bold" font-size="11.00" fill="#000000">customers</text>
<text text-anchor="start" x="291.6759" y="-557.7652" font-family="Helvetica,sans-Serif" font-size="11.00" fill="#000000">[table]</text>
<polygon fill="none" stroke="#000000" points="209.6322,-527.6652 209.6322,-549.6652 326.6322,-549.6652 326.6322,-527.6652 209.6322,-527.6652"/>
<image xlink:href="../../images/primaryKeys.png" width="11px" height="12px" preserveAspectRatio="xMinYMin meet" x="214.632" y="-544.665"/>
<text text-anchor="start" x="229.6322" y="-534.7652" font-family="Helvetica,sans-Serif" font-size="11.00" fill="#000000">customer_id</text>
<polygon fill="#ffffff" stroke="transparent" points="209.6322,-505.6652 209.6322,-527.6652 326.6322,-527.6652 326.6322,-505.6652 209.6322,-505.6652"/>
<polygon fill="none" stroke="#000000" points="209.6322,-505.6652 209.6322,-527.6652 326.6322,-527.6652 326.6322,-505.6652 209.6322,-505.6652"/>
<image xlink:href="../../images/foreignKeys.png" width="11px" height="12px" preserveAspectRatio="xMinYMin meet" x="214.632" y="-522.665"/>
<text text-anchor="start" x="229.6322" y="-512.7652" font-family="Helvetica,sans-Serif" font-size="11.00" fill="#000000">created_by</text>
<polygon fill="#ffffff" stroke="transparent" points="209.6322,-483.6652 209.6322,-505.6652 326.6322,-505.6652 326.6322,-483.6652 209.6322,-483.6652"/>
<polygon fill="none" stroke="#000000" points="209.6322,-483.6652 209.6322,-505.6652 326.6322,-505.6652 326.6322,-483.6652 209.6322,-483.6652"/>
<image xlink:href="../../images/foreignKeys.png" width="11px" height="12px" preserveAspectRatio="xMinYMin meet" x="214.632" y="-500.665"/>
<text text-anchor="start" x="229.6322" y="-490.7652" font-family="Helvetica,sans-Serif" font-size="11.00" fill="#000000">updated_by</text>
<polygon fill="none" stroke="#000000" points="209.6322,-464.6652 209.6322,-483.6652 326.6322,-483.6652 326.6322,-464.6652 209.6322,-464.6652"/>
<text text-anchor="start" x="212.6322" y="-470.7652" font-family="Helvetica,sans-Serif" font-size="11.00" fill="#000000">...</text>
<polygon fill="#ffffff" stroke="transparent" points="209.6322,-445.6652 209.6322,-464.6652 326.6322,-464.6652 326.6322,-445.6652 209.6322,-445.6652"/>
<polygon fill="none" stroke="#000000" points="209.6322,-445.6652 209.6322,-464.6652 326.6322,-464.6652 326.6322,-445.6652 209.6322,-445.6652"/>
<polygon fill="#ffffff" stroke="transparent" points="210.6322,-446.6652 210.6322,-463.6652 255.6322,-463.6652 255.6322,-446.6652 210.6322,-446.6652"/>
<text text-anchor="start" x="212.6322" y="-451.7652" font-family="Helvetica,sans-Serif" font-size="11.00" fill="#000000">&lt; 2</text>
<polygon fill="#ffffff" stroke="transparent" points="255.6322,-446.6652 255.6322,-463.6652 290.6322,-463.6652 290.6322,-446.6652 255.6322,-446.6652"/>
<text text-anchor="start" x="270.0753" y="-451.7652" font-family="Helvetica,sans-Serif" font-size="11.00" fill="#000000"> &#160;</text>
<polygon fill="#ffffff" stroke="transparent" points="290.6322,-446.6652 290.6322,-463.6652 325.6322,-463.6652 325.6322,-446.6652 290.6322,-446.6652"/>
<text text-anchor="start" x="317.5184" y="-451.7652" font-family="Helvetica,sans-Serif" font-size="11.00" fill="#000000"> &#160;</text>
<polygon fill="#000000" stroke="#000000" points="255.6322,-446.6652 255.6322,-463.6652 255.6322,-463.6652 255.6322,-446.6652 255.6322,-446.6652"/>
<polygon fill="#000000" stroke="#000000" points="290.6322,-446.6652 290.6322,-463.6652 290.6322,-463.6652 290.6322,-446.6652 290.6322,-446.6652"/>
</a>
</g>
</g>
<!-- customers&#45;&gt;users -->
<g id="edge1" class="edge">
<title>customers:w&#45;&gt;users:e</title>
<path fill="none" stroke="#000000" d="M195.42,-519.0476C172.0937,-527.6588 168.1364,-556.6652 136.6322,-556.6652"/>
<polygon fill="#000000" stroke="#000000" points="201.7422,-517.9878 210.2273,-520.2157 205.6872,-517.3265 209.6322,-516.6652 209.6322,-516.6652 209.6322,-516.6652 205.6872,-517.3265 209.037,-513.1147 201.7422,-517.9878 201.7422,-517.9878"/>
<ellipse fill="none" stroke="#000000" cx="198.5863" cy="-518.5169" rx="3.2" ry="3.2"/>
</g>
<!-- customers&#45;&gt;users -->
<g id="edge2" class="edge">
<title>customers:w&#45;&gt;users:e</title>
<path fill="none" stroke="#000000" d="M195.3102,-497.6556C169.3234,-510.0403 173.5457,-556.6652 136.6322,-556.6652"/>
<polygon fill="#000000" stroke="#000000" points="201.801,-496.3004 210.368,-498.1892 205.7166,-495.4828 209.6322,-494.6652 209.6322,-494.6652 209.6322,-494.6652 205.7166,-495.4828 208.8963,-491.1412 201.801,-496.3004 201.801,-496.3004"/>
<ellipse fill="none" stroke="#000000" cx="198.6686" cy="-496.9544" rx="3.2" ry="3.2"/>
</g>
<!-- products -->
<g id="node8" class="node">
<title>products</title>
<g id="a_node8"><a xlink:href="../../tables/products.html" xlink:title="products" target="_top">
<polygon fill="#ffffff" stroke="transparent" points="408.6322,-175.1652 408.6322,-324.1652 518.6322,-324.1652 518.6322,-175.1652 408.6322,-175.1652"/>
<polygon fill="#f5f5f5" stroke="transparent" points="408.6322,-300.6652 408.6322,-323.6652 518.6322,-323.6652 518.6322,-300.6652 408.6322,-300.6652"/>
<polygon fill="none" stroke="#000000" points="408.6322,-300.6652 408.6322,-323.6652 518.6322,-323.6652 518.6322,-300.6652 408.6322,-300.6652"/>
<text text-anchor="start" x="413.6322" y="-309.2652" font-family="Helvetica,sans-Serif" font-weight="bold" font-size="11.00" fill="#000000">products</text>
<text text-anchor="start" x="483.6759" y="-308.7652" font-family="Helvetica,sans-Serif" font-size="11.00" fill="#000000">[table]</text>
<polygon fill="none" stroke="#000000" points="408.6322,-278.6652 408.6322,-300.6652 518.6322,-300.6652 518.6322,-278.6652 408.6322,-278.6652"/>
<image xlink:href="../../images/primaryKeys.png" width="11px" height="12px" preserveAspectRatio="xMinYMin meet" x="413.632" y="-295.665"/>
<text text-anchor="start" x="428.6322" y="-285.7652" font-family="Helvetica,sans-Serif" font-size="11.00" fill="#000000">product_id</text>
<polygon fill="#ffffff" stroke="transparent" points="408.6322,-256.6652 408.6322,-278.6652 518.6322,-278.6652 518.6322,-256.6652 408.6322,-256.6652"/>
<polygon fill="none" stroke="#000000" points="408.6322,-256.6652 408.6322,-278.6652 518.6322,-278.6652 518.6322,-256.6652 408.6322,-256.6652"/>
<image xlink:href="../../images/foreignKeys.png" width="11px" height="12px" preserveAspectRatio="xMinYMin meet" x="413.632" y="-273.665"/>
<text text-anchor="start" x="428.6322" y="-263.7652" font-family="Helvetica,sans-Serif" font-size="11.00" fill="#000000">site_id</text>
<polygon fill="#ffffff" stroke="transparent" points="408.6322,-234.6652 408.6322,-256.6652 518.6322,-256.6652 518.6322,-234.6652 408.6322,-234.6652"/>
<polygon fill="none" stroke="#000000" points="408.6322,-234.6652 408.6322,-256.6652 518.6322,-256.6652 518.6322,-234.6652 408.6322,-234.6652"/>
<image xlink:href="../../images/foreignKeys.png" width="11px" height="12px" preserveAspectRatio="xMinYMin meet" x="413.632" y="-251.665"/>
<text text-anchor="start" x="428.6322" y="-241.7652" font-family="Helvetica,sans-Serif" font-size="11.00" fill="#000000">created_by</text>
<polygon fill="#ffffff" stroke="transparent" points="408.6322,-212.6652 408.6322,-234.6652 518.6322,-234.6652 518.6322,-212.6652 408.6322,-212.6652"/>
<polygon fill="none" stroke="#000000" points="408.6322,-212.6652 408.6322,-234.6652 518.6322,-234.6652 518.6322,-212.6652 408.6322,-212.6652"/>
<image xlink:href="../../images/foreignKeys.png" width="11px" height="12px" preserveAspectRatio="xMinYMin meet" x="413.632" y="-229.665"/>
<text text-anchor="start" x="428.6322" y="-219.7652" font-family="Helvetica,sans-Serif" font-size="11.00" fill="#000000">updated_by</text>
<polygon fill="none" stroke="#000000" points="408.6322,-193.6652 408.6322,-212.6652 518.6322,-212.6652 518.6322,-193.6652 408.6322,-193.6652"/>
<text text-anchor="start" x="411.6322" y="-199.7652" font-family="Helvetica,sans-Serif" font-size="11.00" fill="#000000">...</text>
<polygon fill="#ffffff" stroke="transparent" points="408.6322,-174.6652 408.6322,-193.6652 518.6322,-193.6652 518.6322,-174.6652 408.6322,-174.6652"/>
<polygon fill="none" stroke="#000000" points="408.6322,-174.6652 408.6322,-193.6652 518.6322,-193.6652 518.6322,-174.6652 408.6322,-174.6652"/>
<polygon fill="#ffffff" stroke="transparent" points="409.6322,-175.6652 409.6322,-192.6652 451.6322,-192.6652 451.6322,-175.6652 409.6322,-175.6652"/>
<text text-anchor="start" x="411.6322" y="-180.7652" font-family="Helvetica,sans-Serif" font-size="11.00" fill="#000000">&lt; 3</text>
<polygon fill="#ffffff" stroke="transparent" points="451.6322,-175.6652 451.6322,-192.6652 484.6322,-192.6652 484.6322,-175.6652 451.6322,-175.6652"/>
<text text-anchor="start" x="465.0753" y="-180.7652" font-family="Helvetica,sans-Serif" font-size="11.00" fill="#000000"> &#160;</text>
<polygon fill="#ffffff" stroke="transparent" points="484.6322,-175.6652 484.6322,-192.6652 517.6322,-192.6652 517.6322,-175.6652 484.6322,-175.6652"/>
<text text-anchor="start" x="509.5184" y="-180.7652" font-family="Helvetica,sans-Serif" font-size="11.00" fill="#000000"> &#160;</text>
<polygon fill="#000000" stroke="#000000" points="451.6322,-175.6652 451.6322,-192.6652 451.6322,-192.6652 451.6322,-175.6652 451.6322,-175.6652"/>
<polygon fill="#000000" stroke="#000000" points="484.6322,-175.6652 484.6322,-192.6652 484.6322,-192.6652 484.6322,-175.6652 484.6322,-175.6652"/>
</a>
</g>
</g>
<!-- sites -->
<g id="node10" class="node">
<title>sites</title>
<g id="a_node10"><a xlink:href="../../tables/sites.html" xlink:title="sites" target="_top">
<polygon fill="#ffffff" stroke="transparent" points="221.1322,-270.1652 221.1322,-397.1652 314.1322,-397.1652 314.1322,-270.1652 221.1322,-270.1652"/>
<polygon fill="#f5f5f5" stroke="transparent" points="221.6322,-373.6652 221.6322,-396.6652 314.6322,-396.6652 314.6322,-373.6652 221.6322,-373.6652"/>
<polygon fill="none" stroke="#000000" points="221.6322,-373.6652 221.6322,-396.6652 314.6322,-396.6652 314.6322,-373.6652 221.6322,-373.6652"/>
<text text-anchor="start" x="226.6322" y="-382.2652" font-family="Helvetica,sans-Serif" font-weight="bold" font-size="11.00" fill="#000000">sites</text>
<text text-anchor="start" x="279.6759" y="-381.7652" font-family="Helvetica,sans-Serif" font-size="11.00" fill="#000000">[table]</text>
<polygon fill="none" stroke="#000000" points="221.6322,-351.6652 221.6322,-373.6652 314.6322,-373.6652 314.6322,-351.6652 221.6322,-351.6652"/>
<image xlink:href="../../images/primaryKeys.png" width="11px" height="12px" preserveAspectRatio="xMinYMin meet" x="226.632" y="-368.665"/>
<text text-anchor="start" x="241.6322" y="-358.7652" font-family="Helvetica,sans-Serif" font-size="11.00" fill="#000000">site_id</text>
<polygon fill="#ffffff" stroke="transparent" points="221.6322,-329.6652 221.6322,-351.6652 314.6322,-351.6652 314.6322,-329.6652 221.6322,-329.6652"/>
<polygon fill="none" stroke="#000000" points="221.6322,-329.6652 221.6322,-351.6652 314.6322,-351.6652 314.6322,-329.6652 221.6322,-329.6652"/>
<image xlink:href="../../images/foreignKeys.png" width="11px" height="12px" preserveAspectRatio="xMinYMin meet" x="226.632" y="-346.665"/>
<text text-anchor="start" x="241.6322" y="-336.7652" font-family="Helvetica,sans-Serif" font-size="11.00" fill="#000000">created_by</text>
<polygon fill="#ffffff" stroke="transparent" points="221.6322,-307.6652 221.6322,-329.6652 314.6322,-329.6652 314.6322,-307.6652 221.6322,-307.6652"/>
<polygon fill="none" stroke="#000000" points="221.6322,-307.6652 221.6322,-329.6652 314.6322,-329.6652 314.6322,-307.6652 221.6322,-307.6652"/>
<image xlink:href="../../images/foreignKeys.png" width="11px" height="12px" preserveAspectRatio="xMinYMin meet" x="226.632" y="-324.665"/>
<text text-anchor="start" x="241.6322" y="-314.7652" font-family="Helvetica,sans-Serif" font-size="11.00" fill="#000000">updated_by</text>
<polygon fill="none" stroke="#000000" points="221.6322,-288.6652 221.6322,-307.6652 314.6322,-307.6652 314.6322,-288.6652 221.6322,-288.6652"/>
<text text-anchor="start" x="224.6322" y="-294.7652" font-family="Helvetica,sans-Serif" font-size="11.00" fill="#000000">...</text>
<polygon fill="#ffffff" stroke="transparent" points="221.6322,-269.6652 221.6322,-288.6652 314.6322,-288.6652 314.6322,-269.6652 221.6322,-269.6652"/>
<polygon fill="none" stroke="#000000" points="221.6322,-269.6652 221.6322,-288.6652 314.6322,-288.6652 314.6322,-269.6652 221.6322,-269.6652"/>
<polygon fill="#ffffff" stroke="transparent" points="222.6322,-270.6652 222.6322,-287.6652 256.6322,-287.6652 256.6322,-270.6652 222.6322,-270.6652"/>
<text text-anchor="start" x="224.6322" y="-275.7652" font-family="Helvetica,sans-Serif" font-size="11.00" fill="#000000">&lt; 2</text>
<polygon fill="#ffffff" stroke="transparent" points="256.6322,-270.6652 256.6322,-287.6652 280.6322,-287.6652 280.6322,-270.6652 256.6322,-270.6652"/>
<text text-anchor="start" x="265.5753" y="-275.7652" font-family="Helvetica,sans-Serif" font-size="11.00" fill="#000000"> &#160;</text>
<polygon fill="#ffffff" stroke="transparent" points="280.6322,-270.6652 280.6322,-287.6652 313.6322,-287.6652 313.6322,-270.6652 280.6322,-270.6652"/>
<text text-anchor="start" x="296.0375" y="-275.7652" font-family="Helvetica,sans-Serif" font-size="11.00" fill="#000000">1 &gt;</text>
<polygon fill="#000000" stroke="#000000" points="256.6322,-270.6652 256.6322,-287.6652 256.6322,-287.6652 256.6322,-270.6652 256.6322,-270.6652"/>
<polygon fill="#000000" stroke="#000000" points="280.6322,-270.6652 280.6322,-287.6652 280.6322,-287.6652 280.6322,-270.6652 280.6322,-270.6652"/>
</a>
</g>
</g>
<!-- products&#45;&gt;sites -->
<g id="edge9" class="edge">
<title>products:w&#45;&gt;sites:e</title>
<path fill="none" stroke="#000000" d="M394.2727,-269.9198C353.0772,-284.3061 368.5774,-362.6652 314.6322,-362.6652"/>
<polygon fill="#000000" stroke="#000000" points="400.729,-268.9061 409.1906,-271.2216 404.6806,-268.2857 408.6322,-267.6652 408.6322,-267.6652 408.6322,-267.6652 404.6806,-268.2857 408.0737,-264.1088 400.729,-268.9061 400.729,-268.9061"/>
<ellipse fill="none" stroke="#000000" cx="397.5677" cy="-269.4025" rx="3.2" ry="3.2"/>
</g>
<!-- products&#45;&gt;users -->
<g id="edge8" class="edge">
<title>products:w&#45;&gt;users:e</title>
<path fill="none" stroke="#000000" d="M393.9586,-245.2792C335.9203,-242.705 218.4057,-229.0435 184.6322,-259.6652 135.103,-304.5722 203.4886,-556.6652 136.6322,-556.6652"/>
<polygon fill="#000000" stroke="#000000" points="400.6349,-245.4548 408.5375,-249.264 404.6335,-245.56 408.6322,-245.6652 408.6322,-245.6652 408.6322,-245.6652 404.6335,-245.56 408.7269,-242.0664 400.6349,-245.4548 400.6349,-245.4548"/>
<ellipse fill="none" stroke="#000000" cx="397.436" cy="-245.3706" rx="3.2" ry="3.2"/>
</g>
<!-- products&#45;&gt;users -->
<g id="edge10" class="edge">
<title>products:w&#45;&gt;users:e</title>
<path fill="none" stroke="#000000" d="M394.3205,-221.5939C351.4027,-206.894 401.93,-117.9391 350.6322,-83.6652 289.2869,-42.6783 239.3711,-34.2 184.6322,-83.6652 106.2451,-154.5001 242.2831,-556.6652 136.6322,-556.6652"/>
<polygon fill="#000000" stroke="#000000" points="400.7146,-222.5193 408.1165,-227.2281 404.6734,-223.0922 408.6322,-223.6652 408.6322,-223.6652 408.6322,-223.6652 404.6734,-223.0922 409.1478,-220.1023 400.7146,-222.5193 400.7146,-222.5193"/>
<ellipse fill="none" stroke="#000000" cx="397.5476" cy="-222.0609" rx="3.2" ry="3.2"/>
</g>
<!-- sites&#45;&gt;users -->
<g id="edge16" class="edge">
<title>sites:w&#45;&gt;users:e</title>
<path fill="none" stroke="#000000" d="M207.1181,-342.4039C130.6388,-362.8458 234.3575,-556.6652 136.6322,-556.6652"/>
<polygon fill="#000000" stroke="#000000" points="213.6889,-341.6168 222.0604,-344.2396 217.6606,-341.141 221.6322,-340.6652 221.6322,-340.6652 221.6322,-340.6652 217.6606,-341.141 221.2039,-337.0908 213.6889,-341.6168 213.6889,-341.6168"/>
<ellipse fill="none" stroke="#000000" cx="210.5117" cy="-341.9974" rx="3.2" ry="3.2"/>
</g>
<!-- sites&#45;&gt;users -->
<g id="edge17" class="edge">
<title>sites:w&#45;&gt;users:e</title>
<path fill="none" stroke="#000000" d="M207.1835,-320.2479C122.0981,-340.8976 243.5788,-556.6652 136.6322,-556.6652"/>
<polygon fill="#000000" stroke="#000000" points="213.6797,-319.5364 222.0242,-322.2438 217.6559,-319.1008 221.6322,-318.6652 221.6322,-318.6652 221.6322,-318.6652 217.6559,-319.1008 221.2401,-315.0866 213.6797,-319.5364 213.6797,-319.5364"/>
<ellipse fill="none" stroke="#000000" cx="210.4988" cy="-319.8848" rx="3.2" ry="3.2"/>
</g>
<!-- users&#45;&gt;users -->
<g id="edge22" class="edge">
<title>users:w&#45;&gt;users:e</title>
<path fill="none" stroke="#000000" d="M31.9115,-543.032C0,-570.1681 8.0189,-608.1652 90.1322,-608.1652 181.1322,-608.1652 181.1322,-583.4985 136.6322,-556.6652"/>
<polygon fill="#000000" stroke="#000000" points="37.1209,-539.3133 45.7238,-537.5952 40.3766,-536.9892 43.6322,-534.6652 43.6322,-534.6652 43.6322,-534.6652 40.3766,-536.9892 41.5405,-531.7352 37.1209,-539.3133 37.1209,-539.3133"/>
<ellipse fill="none" stroke="#000000" cx="34.5165" cy="-541.1725" rx="3.2" ry="3.2"/>
</g>
<!-- users&#45;&gt;users -->
<g id="edge23" class="edge">
<title>users:w&#45;&gt;users:e</title>
<path fill="none" stroke="#000000" d="M31.9115,-521.6205C0,-552.2551 8.0189,-608.1652 90.1322,-608.1652 181.1322,-608.1652 181.1322,-583.4985 136.6322,-556.6652"/>
<polygon fill="#000000" stroke="#000000" points="37.2753,-517.5222 45.8178,-515.5258 40.4537,-515.0937 43.6322,-512.6652 43.6322,-512.6652 43.6322,-512.6652 40.4537,-515.0937 41.4465,-509.8046 37.2753,-517.5222 37.2753,-517.5222"/>
<ellipse fill="none" stroke="#000000" cx="34.7326" cy="-519.465" rx="3.2" ry="3.2"/>
</g>
<!-- refresh_tokens -->
<g id="node12" class="node">
<title>refresh_tokens</title>
<g id="a_node12"><a xlink:href="../../tables/refresh_tokens.html" xlink:title="refresh_tokens" target="_top">
<polygon fill="#ffffff" stroke="transparent" points="201.6322,-94.1652 201.6322,-221.1652 333.6322,-221.1652 333.6322,-94.1652 201.6322,-94.1652"/>
<polygon fill="#f5f5f5" stroke="transparent" points="201.6322,-197.6652 201.6322,-220.6652 333.6322,-220.6652 333.6322,-197.6652 201.6322,-197.6652"/>
<polygon fill="none" stroke="#000000" points="201.6322,-197.6652 201.6322,-220.6652 333.6322,-220.6652 333.6322,-197.6652 201.6322,-197.6652"/>
<text text-anchor="start" x="206.6322" y="-206.2652" font-family="Helvetica,sans-Serif" font-weight="bold" font-size="11.00" fill="#000000">refresh_tokens</text>
<text text-anchor="start" x="299.154" y="-205.7652" font-family="Helvetica,sans-Serif" font-size="11.00" fill="#000000">[table]</text>
<polygon fill="none" stroke="#000000" points="201.6322,-175.6652 201.6322,-197.6652 333.6322,-197.6652 333.6322,-175.6652 201.6322,-175.6652"/>
<image xlink:href="../../images/primaryKeys.png" width="11px" height="12px" preserveAspectRatio="xMinYMin meet" x="206.632" y="-192.665"/>
<text text-anchor="start" x="230.6322" y="-182.7652" font-family="Helvetica,sans-Serif" font-size="11.00" fill="#000000">id</text>
<polygon fill="#ffffff" stroke="transparent" points="201.6322,-153.6652 201.6322,-175.6652 333.6322,-175.6652 333.6322,-153.6652 201.6322,-153.6652"/>
<polygon fill="none" stroke="#000000" points="201.6322,-153.6652 201.6322,-175.6652 333.6322,-175.6652 333.6322,-153.6652 201.6322,-153.6652"/>
<text text-anchor="start" x="230.6322" y="-160.7652" font-family="Helvetica,sans-Serif" font-size="11.00" fill="#000000">token</text>
<polygon fill="#ffffff" stroke="transparent" points="201.6322,-131.6652 201.6322,-153.6652 333.6322,-153.6652 333.6322,-131.6652 201.6322,-131.6652"/>
<polygon fill="none" stroke="#000000" points="201.6322,-131.6652 201.6322,-153.6652 333.6322,-153.6652 333.6322,-131.6652 201.6322,-131.6652"/>
<image xlink:href="../../images/foreignKeys.png" width="11px" height="12px" preserveAspectRatio="xMinYMin meet" x="206.632" y="-148.665"/>
<text text-anchor="start" x="230.6322" y="-138.7652" font-family="Helvetica,sans-Serif" font-size="11.00" fill="#000000">user_id</text>
<polygon fill="none" stroke="#000000" points="201.6322,-112.6652 201.6322,-131.6652 333.6322,-131.6652 333.6322,-112.6652 201.6322,-112.6652"/>
<text text-anchor="start" x="204.6322" y="-118.7652" font-family="Helvetica,sans-Serif" font-size="11.00" fill="#000000">...</text>
<polygon fill="#ffffff" stroke="transparent" points="201.6322,-93.6652 201.6322,-112.6652 333.6322,-112.6652 333.6322,-93.6652 201.6322,-93.6652"/>
<polygon fill="none" stroke="#000000" points="201.6322,-93.6652 201.6322,-112.6652 333.6322,-112.6652 333.6322,-93.6652 201.6322,-93.6652"/>
<polygon fill="#ffffff" stroke="transparent" points="202.6322,-94.6652 202.6322,-111.6652 252.6322,-111.6652 252.6322,-94.6652 202.6322,-94.6652"/>
<text text-anchor="start" x="204.6322" y="-99.7652" font-family="Helvetica,sans-Serif" font-size="11.00" fill="#000000">&lt; 1</text>
<polygon fill="#ffffff" stroke="transparent" points="252.6322,-94.6652 252.6322,-111.6652 292.6322,-111.6652 292.6322,-94.6652 252.6322,-94.6652"/>
<text text-anchor="start" x="269.5753" y="-99.7652" font-family="Helvetica,sans-Serif" font-size="11.00" fill="#000000"> &#160;</text>
<polygon fill="#ffffff" stroke="transparent" points="292.6322,-94.6652 292.6322,-111.6652 332.6322,-111.6652 332.6322,-94.6652 292.6322,-94.6652"/>
<text text-anchor="start" x="324.5184" y="-99.7652" font-family="Helvetica,sans-Serif" font-size="11.00" fill="#000000"> &#160;</text>
<polygon fill="#000000" stroke="#000000" points="252.6322,-94.6652 252.6322,-111.6652 252.6322,-111.6652 252.6322,-94.6652 252.6322,-94.6652"/>
<polygon fill="#000000" stroke="#000000" points="292.6322,-94.6652 292.6322,-111.6652 292.6322,-111.6652 292.6322,-94.6652 292.6322,-94.6652"/>
</a>
</g>
</g>
<!-- refresh_tokens&#45;&gt;users -->
<g id="edge11" class="edge">
<title>refresh_tokens:w&#45;&gt;users:e</title>
<path fill="none" stroke="#000000" d="M187.384,-146.7627C121.9786,-189.7595 224.3025,-556.6652 136.6322,-556.6652"/>
<polygon fill="#000000" stroke="#000000" points="193.9438,-144.8763 202.6271,-146.125 197.788,-143.7707 201.6322,-142.6652 201.6322,-142.6652 201.6322,-142.6652 197.788,-143.7707 200.6372,-139.2054 193.9438,-144.8763 193.9438,-144.8763"/>
<ellipse fill="none" stroke="#000000" cx="190.8684" cy="-145.7607" rx="3.2" ry="3.2"/>
</g>
<!-- paymentgateways&#45;&gt;users -->
<g id="edge3" class="edge">
<title>paymentgateways:w&#45;&gt;users:e</title>
<path fill="none" stroke="#000000" d="M178.453,-689.6982C139.319,-669.8095 196.255,-556.6652 136.6322,-556.6652"/>
<polygon fill="#000000" stroke="#000000" points="184.8018,-691.0266 191.8948,-696.1889 188.717,-691.8459 192.6322,-692.6652 192.6322,-692.6652 192.6322,-692.6652 188.717,-691.8459 193.3695,-689.1415 184.8018,-691.0266 184.8018,-691.0266"/>
<ellipse fill="none" stroke="#000000" cx="181.6696" cy="-690.3712" rx="3.2" ry="3.2"/>
</g>
<!-- paymentgateways&#45;&gt;users -->
<g id="edge4" class="edge">
<title>paymentgateways:w&#45;&gt;users:e</title>
<path fill="none" stroke="#000000" d="M178.2877,-667.1284C146.9238,-647.8864 187.1282,-556.6652 136.6322,-556.6652"/>
<polygon fill="#000000" stroke="#000000" points="184.8648,-668.75 191.7703,-674.1605 188.7485,-669.7076 192.6322,-670.6652 192.6322,-670.6652 192.6322,-670.6652 188.7485,-669.7076 193.494,-667.1699 184.8648,-668.75 184.8648,-668.75"/>
<ellipse fill="none" stroke="#000000" cx="181.7578" cy="-667.9839" rx="3.2" ry="3.2"/>
</g>
</g>
</svg>
